%TF.GenerationSoftware,KiCad,Pcbnew,8.0.1*%
%TF.CreationDate,2024-04-18T13:31:19+02:00*%
%TF.ProjectId,ESP32S3_M.2_Board,45535033-3253-4335-9f4d-2e325f426f61,rev?*%
%TF.SameCoordinates,Original*%
%TF.FileFunction,Copper,L4,Bot*%
%TF.FilePolarity,Positive*%
%FSLAX46Y46*%
G04 Gerber Fmt 4.6, Leading zero omitted, Abs format (unit mm)*
G04 Created by KiCad (PCBNEW 8.0.1) date 2024-04-18 13:31:19*
%MOMM*%
%LPD*%
G01*
G04 APERTURE LIST*
G04 Aperture macros list*
%AMRoundRect*
0 Rectangle with rounded corners*
0 $1 Rounding radius*
0 $2 $3 $4 $5 $6 $7 $8 $9 X,Y pos of 4 corners*
0 Add a 4 corners polygon primitive as box body*
4,1,4,$2,$3,$4,$5,$6,$7,$8,$9,$2,$3,0*
0 Add four circle primitives for the rounded corners*
1,1,$1+$1,$2,$3*
1,1,$1+$1,$4,$5*
1,1,$1+$1,$6,$7*
1,1,$1+$1,$8,$9*
0 Add four rect primitives between the rounded corners*
20,1,$1+$1,$2,$3,$4,$5,0*
20,1,$1+$1,$4,$5,$6,$7,0*
20,1,$1+$1,$6,$7,$8,$9,0*
20,1,$1+$1,$8,$9,$2,$3,0*%
G04 Aperture macros list end*
%TA.AperFunction,EtchedComponent*%
%ADD10C,1.250000*%
%TD*%
%TA.AperFunction,EtchedComponent*%
%ADD11C,0.000000*%
%TD*%
%TA.AperFunction,ComponentPad*%
%ADD12C,5.500000*%
%TD*%
%TA.AperFunction,SMDPad,CuDef*%
%ADD13R,0.350000X2.500000*%
%TD*%
%TA.AperFunction,SMDPad,CuDef*%
%ADD14RoundRect,0.150000X0.512500X0.150000X-0.512500X0.150000X-0.512500X-0.150000X0.512500X-0.150000X0*%
%TD*%
%TA.AperFunction,SMDPad,CuDef*%
%ADD15R,1.800000X1.000000*%
%TD*%
%TA.AperFunction,SMDPad,CuDef*%
%ADD16RoundRect,0.160000X-0.197500X-0.160000X0.197500X-0.160000X0.197500X0.160000X-0.197500X0.160000X0*%
%TD*%
%TA.AperFunction,SMDPad,CuDef*%
%ADD17RoundRect,0.155000X0.212500X0.155000X-0.212500X0.155000X-0.212500X-0.155000X0.212500X-0.155000X0*%
%TD*%
%TA.AperFunction,SMDPad,CuDef*%
%ADD18RoundRect,0.155000X-0.155000X0.212500X-0.155000X-0.212500X0.155000X-0.212500X0.155000X0.212500X0*%
%TD*%
%TA.AperFunction,SMDPad,CuDef*%
%ADD19RoundRect,0.237500X-0.237500X0.287500X-0.237500X-0.287500X0.237500X-0.287500X0.237500X0.287500X0*%
%TD*%
%TA.AperFunction,SMDPad,CuDef*%
%ADD20RoundRect,0.155000X-0.212500X-0.155000X0.212500X-0.155000X0.212500X0.155000X-0.212500X0.155000X0*%
%TD*%
%TA.AperFunction,SMDPad,CuDef*%
%ADD21R,1.200000X1.400000*%
%TD*%
%TA.AperFunction,SMDPad,CuDef*%
%ADD22RoundRect,0.155000X0.155000X-0.212500X0.155000X0.212500X-0.155000X0.212500X-0.155000X-0.212500X0*%
%TD*%
%TA.AperFunction,SMDPad,CuDef*%
%ADD23RoundRect,0.160000X0.197500X0.160000X-0.197500X0.160000X-0.197500X-0.160000X0.197500X-0.160000X0*%
%TD*%
%TA.AperFunction,SMDPad,CuDef*%
%ADD24RoundRect,0.160000X-0.160000X0.197500X-0.160000X-0.197500X0.160000X-0.197500X0.160000X0.197500X0*%
%TD*%
%TA.AperFunction,SMDPad,CuDef*%
%ADD25R,1.200000X3.300000*%
%TD*%
%TA.AperFunction,SMDPad,CuDef*%
%ADD26RoundRect,0.160000X0.160000X-0.197500X0.160000X0.197500X-0.160000X0.197500X-0.160000X-0.197500X0*%
%TD*%
%TA.AperFunction,SMDPad,CuDef*%
%ADD27RoundRect,0.150000X0.425000X-0.150000X0.425000X0.150000X-0.425000X0.150000X-0.425000X-0.150000X0*%
%TD*%
%TA.AperFunction,SMDPad,CuDef*%
%ADD28RoundRect,0.075000X0.500000X-0.075000X0.500000X0.075000X-0.500000X0.075000X-0.500000X-0.075000X0*%
%TD*%
%TA.AperFunction,ComponentPad*%
%ADD29O,1.800000X1.000000*%
%TD*%
%TA.AperFunction,ComponentPad*%
%ADD30O,2.100000X1.000000*%
%TD*%
%TA.AperFunction,ViaPad*%
%ADD31C,0.450000*%
%TD*%
%TA.AperFunction,Conductor*%
%ADD32C,0.250000*%
%TD*%
%TA.AperFunction,Conductor*%
%ADD33C,0.150000*%
%TD*%
%TA.AperFunction,Conductor*%
%ADD34C,0.200000*%
%TD*%
G04 APERTURE END LIST*
D10*
%TO.C,J2*%
X231900000Y-92100000D02*
G75*
G02*
X225900000Y-92100000I-3000000J0D01*
G01*
X225900000Y-92100000D02*
G75*
G02*
X231900000Y-92100000I3000000J0D01*
G01*
D11*
%TA.AperFunction,EtchedComponent*%
G36*
X231450000Y-94650000D02*
G01*
X226350000Y-94650000D01*
X226350000Y-89550000D01*
X231450000Y-89550000D01*
X231450000Y-94650000D01*
G37*
%TD.AperFunction*%
%TD*%
D12*
%TO.P,J2,MOUNTING-HOLE,MP1*%
%TO.N,unconnected-(J2-MP1-PadMOUNTING-HOLE)*%
X228900000Y-91100000D03*
D13*
%TO.P,J2,P$2,2*%
%TO.N,Net-(J2-2)*%
X237900000Y-131850000D03*
%TO.P,J2,P$4,4*%
X237400000Y-131850000D03*
%TO.P,J2,P$6,6*%
%TO.N,Earth*%
X236900000Y-131850000D03*
%TO.P,J2,P$8,8*%
%TO.N,/SPICS1*%
X236400000Y-131850000D03*
%TO.P,J2,P$10,10*%
%TO.N,/GPIO21*%
X235900000Y-131850000D03*
%TO.P,J2,P$20,20*%
%TO.N,Earth*%
X233400000Y-131850000D03*
%TO.P,J2,P$22,22*%
%TO.N,/GPIO18*%
X232900000Y-131850000D03*
%TO.P,J2,P$24,24*%
%TO.N,/GPIO17*%
X232400000Y-131850000D03*
%TO.P,J2,P$26,26*%
%TO.N,Earth*%
X231900000Y-131850000D03*
%TO.P,J2,P$28,28*%
%TO.N,/SPICLK_N*%
X231400000Y-131850000D03*
%TO.P,J2,P$30,30*%
%TO.N,/SPICLK_P*%
X230900000Y-131850000D03*
%TO.P,J2,P$32,32*%
%TO.N,Earth*%
X230400000Y-131850000D03*
%TO.P,J2,P$34,34*%
%TO.N,/GPIO33*%
X229900000Y-131850000D03*
%TO.P,J2,P$36,36*%
%TO.N,/GPIO34*%
X229400000Y-131850000D03*
%TO.P,J2,P$38,38*%
%TO.N,Earth*%
X228900000Y-131850000D03*
%TO.P,J2,P$40,40*%
%TO.N,/GPIO35*%
X228400000Y-131850000D03*
%TO.P,J2,P$42,42*%
%TO.N,/GPIO36*%
X227900000Y-131850000D03*
%TO.P,J2,P$44,44*%
%TO.N,Earth*%
X227400000Y-131850000D03*
%TO.P,J2,P$46,46*%
%TO.N,/GPIO37*%
X226900000Y-131850000D03*
%TO.P,J2,P$48,48*%
%TO.N,/GPIO38*%
X226400000Y-131850000D03*
%TO.P,J2,P$50,50*%
%TO.N,Earth*%
X225900000Y-131850000D03*
%TO.P,J2,P$52,52*%
%TO.N,/MTCK*%
X225400000Y-131850000D03*
%TO.P,J2,P$54,54*%
%TO.N,/MTDO*%
X224900000Y-131850000D03*
%TO.P,J2,P$56,56*%
%TO.N,Earth*%
X224400000Y-131850000D03*
%TO.P,J2,P$58,58*%
%TO.N,/MTDI*%
X223900000Y-131850000D03*
%TO.P,J2,P$60,60*%
%TO.N,/MTMS*%
X223400000Y-131850000D03*
%TO.P,J2,P$62,62*%
%TO.N,Earth*%
X222900000Y-131850000D03*
%TO.P,J2,P$64,64*%
%TO.N,/U0TXD*%
X222400000Y-131850000D03*
%TO.P,J2,P$66,66*%
%TO.N,/U0RXD*%
X221900000Y-131850000D03*
%TO.P,J2,P$68,68*%
%TO.N,Earth*%
X221400000Y-131850000D03*
%TO.P,J2,P$70,70*%
%TO.N,/GPIO45*%
X220900000Y-131850000D03*
%TO.P,J2,P$72,72*%
%TO.N,/GPIO46*%
X220400000Y-131850000D03*
%TO.P,J2,P$74,74*%
%TO.N,Earth*%
X219900000Y-131850000D03*
%TD*%
D14*
%TO.P,U1,1,EN*%
%TO.N,Net-(U1-EN)*%
X235937500Y-96487500D03*
%TO.P,U1,2,GND*%
%TO.N,Earth*%
X235937500Y-97437500D03*
%TO.P,U1,3,SW*%
%TO.N,Net-(U1-SW)*%
X235937500Y-98387500D03*
%TO.P,U1,4,VIN*%
%TO.N,VBUS*%
X233662500Y-98387500D03*
%TO.P,U1,5,FB*%
%TO.N,Net-(U1-FB)*%
X233662500Y-96487500D03*
%TD*%
D15*
%TO.P,Y2,1,1*%
%TO.N,/OSC32_IN*%
X230665000Y-123860000D03*
%TO.P,Y2,2,2*%
%TO.N,/OSC32_OUT*%
X230665000Y-121360000D03*
%TD*%
D16*
%TO.P,R6,1*%
%TO.N,Net-(U1-FB)*%
X234752500Y-94600000D03*
%TO.P,R6,2*%
%TO.N,Earth*%
X235947500Y-94600000D03*
%TD*%
D17*
%TO.P,C2,1*%
%TO.N,+3V3*%
X219500000Y-119475000D03*
%TO.P,C2,2*%
%TO.N,Earth*%
X218365000Y-119475000D03*
%TD*%
D18*
%TO.P,C22,1*%
%TO.N,VDD_SPI*%
X236275000Y-116457500D03*
%TO.P,C22,2*%
%TO.N,Earth*%
X236275000Y-117592500D03*
%TD*%
D19*
%TO.P,L1,1,1*%
%TO.N,+3V3_RF*%
X219500000Y-116200000D03*
%TO.P,L1,2,2*%
%TO.N,+3V3*%
X219500000Y-117950000D03*
%TD*%
D18*
%TO.P,C12,1*%
%TO.N,+3V3*%
X225600000Y-109415000D03*
%TO.P,C12,2*%
%TO.N,Earth*%
X225600000Y-110550000D03*
%TD*%
D20*
%TO.P,C20,1*%
%TO.N,VBUS*%
X238290000Y-123375000D03*
%TO.P,C20,2*%
%TO.N,Earth*%
X239425000Y-123375000D03*
%TD*%
D21*
%TO.P,Y1,1,1*%
%TO.N,Net-(C6-Pad1)*%
X218600000Y-110150000D03*
%TO.P,Y1,2,2*%
%TO.N,Earth*%
X218600000Y-107950000D03*
%TO.P,Y1,3,3*%
%TO.N,/OSC_OUT*%
X220300000Y-107950000D03*
%TO.P,Y1,4,4*%
%TO.N,Earth*%
X220300000Y-110150000D03*
%TD*%
D22*
%TO.P,C5,1*%
%TO.N,+3V3*%
X237750000Y-98492500D03*
%TO.P,C5,2*%
%TO.N,Earth*%
X237750000Y-97357500D03*
%TD*%
%TO.P,C7,1*%
%TO.N,/OSC_OUT*%
X222250000Y-108017500D03*
%TO.P,C7,2*%
%TO.N,Earth*%
X222250000Y-106882500D03*
%TD*%
%TO.P,C4,1*%
%TO.N,VBUS*%
X231950000Y-98117500D03*
%TO.P,C4,2*%
%TO.N,Earth*%
X231950000Y-96982500D03*
%TD*%
D23*
%TO.P,R8,1*%
%TO.N,/USB_CC1*%
X220772500Y-94375000D03*
%TO.P,R8,2*%
%TO.N,Earth*%
X219577500Y-94375000D03*
%TD*%
%TO.P,R4,1*%
%TO.N,+3V3*%
X235947500Y-93350000D03*
%TO.P,R4,2*%
%TO.N,Net-(U1-FB)*%
X234752500Y-93350000D03*
%TD*%
D14*
%TO.P,U2,1,I/O1*%
%TO.N,/USB_D+*%
X230284195Y-102418514D03*
%TO.P,U2,2,GND*%
%TO.N,Earth*%
X230284195Y-103368514D03*
%TO.P,U2,3,I/O2*%
%TO.N,/USB_D+*%
X230284195Y-104318514D03*
%TO.P,U2,4,I/O2*%
%TO.N,/USB_D-*%
X228009195Y-104318514D03*
%TO.P,U2,5,VBUS*%
%TO.N,VBUS*%
X228009195Y-103368514D03*
%TO.P,U2,6,I/O1*%
%TO.N,/USB_D-*%
X228009195Y-102418514D03*
%TD*%
D20*
%TO.P,C19,1*%
%TO.N,VBUS*%
X238282500Y-124975000D03*
%TO.P,C19,2*%
%TO.N,Earth*%
X239417500Y-124975000D03*
%TD*%
D17*
%TO.P,C3,1*%
%TO.N,+3V3*%
X219500000Y-120750000D03*
%TO.P,C3,2*%
%TO.N,Earth*%
X218365000Y-120750000D03*
%TD*%
D24*
%TO.P,R5,1*%
%TO.N,/OSC_IN*%
X222243071Y-109583871D03*
%TO.P,R5,2*%
%TO.N,Net-(C6-Pad1)*%
X222243071Y-110778871D03*
%TD*%
D16*
%TO.P,R7,1*%
%TO.N,/USB_CC2*%
X222027500Y-94375000D03*
%TO.P,R7,2*%
%TO.N,Earth*%
X223222500Y-94375000D03*
%TD*%
D17*
%TO.P,C1,1*%
%TO.N,+3V3_RF*%
X219492500Y-114700000D03*
%TO.P,C1,2*%
%TO.N,Earth*%
X218357500Y-114700000D03*
%TD*%
D20*
%TO.P,C6,1*%
%TO.N,Net-(C6-Pad1)*%
X218953210Y-111701651D03*
%TO.P,C6,2*%
%TO.N,Earth*%
X220088210Y-111701651D03*
%TD*%
D25*
%TO.P,L2,1,1*%
%TO.N,Net-(U1-SW)*%
X234600000Y-101737500D03*
%TO.P,L2,2,2*%
%TO.N,+3V3*%
X237700000Y-101737500D03*
%TD*%
D20*
%TO.P,C8,1*%
%TO.N,/OSC32_IN*%
X230152500Y-125257500D03*
%TO.P,C8,2*%
%TO.N,Earth*%
X231287500Y-125257500D03*
%TD*%
D26*
%TO.P,R11,1*%
%TO.N,Net-(J2-2)*%
X237650000Y-128572500D03*
%TO.P,R11,2*%
%TO.N,VBUS*%
X237650000Y-127377500D03*
%TD*%
D27*
%TO.P,J1,A1,GND*%
%TO.N,Earth*%
X224440000Y-103500000D03*
%TO.P,J1,A4,VBUS*%
%TO.N,VBUS*%
X224440000Y-102700000D03*
D28*
%TO.P,J1,A5,CC1*%
%TO.N,/USB_CC1*%
X224440000Y-101550000D03*
%TO.P,J1,A6,D+*%
%TO.N,/USB_D+*%
X224440000Y-100550000D03*
%TO.P,J1,A7,D-*%
%TO.N,/USB_D-*%
X224440000Y-100050000D03*
%TO.P,J1,A8,SBU1*%
%TO.N,unconnected-(J1-SBU1-PadA8)*%
X224440000Y-99050000D03*
D27*
%TO.P,J1,A9,VBUS*%
%TO.N,VBUS*%
X224440000Y-97900000D03*
%TO.P,J1,A12,GND*%
%TO.N,Earth*%
X224440000Y-97100000D03*
%TO.P,J1,B1,GND*%
X224440000Y-97100000D03*
%TO.P,J1,B4,VBUS*%
%TO.N,VBUS*%
X224440000Y-97900000D03*
D28*
%TO.P,J1,B5,CC2*%
%TO.N,/USB_CC2*%
X224440000Y-98550000D03*
%TO.P,J1,B6,D+*%
%TO.N,/USB_D+*%
X224440000Y-99550000D03*
%TO.P,J1,B7,D-*%
%TO.N,/USB_D-*%
X224440000Y-101050000D03*
%TO.P,J1,B8,SBU2*%
%TO.N,unconnected-(J1-SBU2-PadB8)*%
X224440000Y-102050000D03*
D27*
%TO.P,J1,B9,VBUS*%
%TO.N,VBUS*%
X224440000Y-102700000D03*
%TO.P,J1,B12,GND*%
%TO.N,Earth*%
X224440000Y-103500000D03*
D29*
%TO.P,J1,S1,SHIELD*%
X219685000Y-104620000D03*
D30*
X223865000Y-104620000D03*
D29*
X219685000Y-95980000D03*
D30*
X223865000Y-95980000D03*
%TD*%
D18*
%TO.P,C13,1*%
%TO.N,+3V3*%
X224225000Y-109415000D03*
%TO.P,C13,2*%
%TO.N,Earth*%
X224225000Y-110550000D03*
%TD*%
%TO.P,C21,1*%
%TO.N,VDD_SPI*%
X235125000Y-116457500D03*
%TO.P,C21,2*%
%TO.N,Earth*%
X235125000Y-117592500D03*
%TD*%
D20*
%TO.P,C9,1*%
%TO.N,/OSC32_OUT*%
X230152500Y-119982500D03*
%TO.P,C9,2*%
%TO.N,Earth*%
X231287500Y-119982500D03*
%TD*%
D31*
%TO.N,VBUS*%
X230325000Y-98850000D03*
X230325000Y-97595997D03*
X225700000Y-101750000D03*
X225700000Y-102475000D03*
X230900000Y-98529003D03*
X226825000Y-103375000D03*
X239575000Y-108575000D03*
X226875000Y-97900000D03*
X230900000Y-97925000D03*
X230325000Y-98200000D03*
X229725000Y-98500000D03*
X225425000Y-97900000D03*
X229725000Y-97925000D03*
%TO.N,Earth*%
X222880000Y-129650000D03*
X235525000Y-95275000D03*
X239150000Y-113900000D03*
X218700000Y-97650000D03*
X224390000Y-129635000D03*
X232425000Y-124125000D03*
X230875000Y-95825000D03*
X218548439Y-106630888D03*
X218365000Y-121475000D03*
X231500000Y-105175000D03*
X238575000Y-93500000D03*
X218365000Y-118690000D03*
X225375000Y-97100000D03*
X227850000Y-100700000D03*
X236275000Y-118400000D03*
X232750000Y-103275000D03*
X239425000Y-122400000D03*
X218700000Y-102825000D03*
X233390000Y-129582500D03*
X219880000Y-129677500D03*
X236650000Y-129725000D03*
X225915000Y-129632500D03*
X239425000Y-125800000D03*
X231450000Y-115075000D03*
X228880000Y-129625000D03*
X220899569Y-111701651D03*
X218350000Y-113825000D03*
X223575000Y-106550000D03*
X238900000Y-98175000D03*
X235100000Y-129050000D03*
X229225000Y-103375000D03*
X224775000Y-94825000D03*
X233025000Y-93525000D03*
X218175000Y-94975000D03*
X226000000Y-120850000D03*
X231880000Y-129597500D03*
X221400000Y-110150000D03*
X235125000Y-118400000D03*
X225700000Y-96550000D03*
X236650000Y-129120997D03*
X239075000Y-116950000D03*
X232400000Y-121225000D03*
X221390000Y-129677500D03*
X230390000Y-129625000D03*
X239425000Y-127425000D03*
X223300000Y-109375000D03*
X225450000Y-103525000D03*
X227390000Y-129625000D03*
X235100000Y-128445997D03*
%TO.N,+3V3*%
X238875000Y-103150000D03*
X226000000Y-105750000D03*
X225600000Y-108800000D03*
X224225000Y-108750000D03*
X237375000Y-123200000D03*
X238650000Y-103725000D03*
X235825000Y-103450000D03*
X238750000Y-100425000D03*
X226025000Y-119700000D03*
X237375000Y-123925000D03*
X235700000Y-92675000D03*
X237375000Y-125375000D03*
X238750000Y-99775000D03*
X219500000Y-121475000D03*
X228625000Y-96550000D03*
X230340000Y-107735000D03*
X237375000Y-124650000D03*
X238275000Y-99350000D03*
%TO.N,/OSC_IN*%
X224425000Y-107975000D03*
%TO.N,/OSC_OUT*%
X223825000Y-107350000D03*
%TO.N,/OSC32_IN*%
X229225000Y-121125000D03*
%TO.N,/OSC32_OUT*%
X229365000Y-119960000D03*
%TO.N,VDD_SPI*%
X237465000Y-112110000D03*
X234375000Y-115650000D03*
%TO.N,/USB_D+*%
X230525000Y-105050000D03*
X231825000Y-119012800D03*
%TO.N,/USB_D-*%
X229025000Y-104300000D03*
X230987200Y-119012800D03*
%TO.N,/FLASH_QSPI_nH*%
X237077500Y-113447500D03*
X235440000Y-115085000D03*
%TO.N,/FLASH_QSPI_DO*%
X235065000Y-112935000D03*
X236165000Y-113510000D03*
%TO.N,+3V3_RF*%
X219500000Y-113825000D03*
%TO.N,/CHIP_PU*%
X233000000Y-104925000D03*
X226375000Y-110450000D03*
%TO.N,/CHIP_BOOT*%
X226350000Y-111575000D03*
X234400000Y-106400000D03*
%TO.N,/GPIO33*%
X235640000Y-109460000D03*
%TO.N,/GPIO18*%
X231840000Y-126385000D03*
%TO.N,/GPIO35*%
X234015000Y-109460000D03*
%TO.N,/GPIO21*%
X232737500Y-119112500D03*
%TO.N,/SPICLK_P*%
X236465000Y-109460000D03*
%TO.N,/MTCK*%
X232825000Y-106950000D03*
%TO.N,/GPIO37*%
X232390000Y-109460000D03*
%TO.N,/GPIO17*%
X231827500Y-127297500D03*
%TO.N,/MTDO*%
X231800000Y-106950000D03*
%TO.N,/GPIO34*%
X234815000Y-109460000D03*
%TO.N,/U0RXD*%
X228515000Y-110060000D03*
%TO.N,/U0TXD*%
X229340000Y-110060000D03*
%TO.N,/SPICS1*%
X233375000Y-118550000D03*
%TO.N,/MTDI*%
X229740000Y-106960000D03*
%TO.N,/GPIO36*%
X233215000Y-109460000D03*
%TO.N,/GPIO46*%
X229825000Y-99850000D03*
X227315000Y-106960000D03*
%TO.N,/SPICLK_N*%
X237015000Y-110310000D03*
%TO.N,/MTMS*%
X228940000Y-106960000D03*
%TO.N,/GPIO38*%
X233625000Y-106950000D03*
%TO.N,/GPIO45*%
X228140000Y-106960000D03*
%TO.N,Net-(U1-EN)*%
X239575000Y-105900000D03*
%TD*%
D32*
%TO.N,VBUS*%
X237650000Y-126575000D02*
X237650000Y-127402500D01*
X238290000Y-123375000D02*
X238290000Y-124967500D01*
X226875000Y-97900000D02*
X225425000Y-97900000D01*
X238290000Y-123375000D02*
X238290000Y-121035000D01*
X238290000Y-121035000D02*
X239850000Y-119475000D01*
X239850000Y-108850000D02*
X237150000Y-106150000D01*
X225700000Y-102475000D02*
X225700000Y-101750000D01*
X224440000Y-97900000D02*
X225523455Y-97900000D01*
X233525000Y-101800000D02*
X231550000Y-99825000D01*
X225700000Y-102475000D02*
X225500000Y-102675000D01*
X239850000Y-119475000D02*
X239850000Y-108850000D01*
X231950000Y-98117500D02*
X232132500Y-98300000D01*
X238282500Y-125942500D02*
X237650000Y-126575000D01*
X225523455Y-97900000D02*
X225541872Y-97881583D01*
X233575000Y-98300000D02*
X233662500Y-98387500D01*
X235775000Y-106150000D02*
X233525000Y-103900000D01*
X225475000Y-102700000D02*
X224440000Y-102700000D01*
X238282500Y-124975000D02*
X238282500Y-125942500D01*
X238290000Y-124967500D02*
X238282500Y-124975000D01*
X228002709Y-103375000D02*
X226825000Y-103375000D01*
X231550000Y-99825000D02*
X231550000Y-99125000D01*
X238290000Y-123375000D02*
X238290000Y-124505000D01*
X237150000Y-106150000D02*
X235775000Y-106150000D01*
X228009195Y-103368514D02*
X228002709Y-103375000D01*
X233525000Y-103900000D02*
X233525000Y-101800000D01*
D33*
%TO.N,Earth*%
X230390000Y-129550000D02*
X230390000Y-131735000D01*
X230390000Y-129500000D02*
X230405000Y-129515000D01*
X231880000Y-129510000D02*
X231880000Y-131695000D01*
X224390000Y-129635000D02*
X224452500Y-129635000D01*
X233390000Y-129610000D02*
X233515000Y-129610000D01*
D32*
X235800000Y-95275000D02*
X235947500Y-95127500D01*
D33*
X227390000Y-129625000D02*
X227390000Y-131810000D01*
X231880000Y-129625000D02*
X232005000Y-129625000D01*
X220104073Y-111685787D02*
X220088210Y-111701651D01*
D32*
X232425000Y-124125000D02*
X232425000Y-124900000D01*
X230284195Y-103368514D02*
X229231486Y-103368514D01*
X224440000Y-103500000D02*
X225425000Y-103500000D01*
D33*
X222880000Y-129677500D02*
X223005000Y-129677500D01*
D32*
X232425000Y-124900000D02*
X232067500Y-125257500D01*
X219577500Y-94375000D02*
X218775000Y-94375000D01*
D33*
X222880000Y-129650000D02*
X222942500Y-129650000D01*
D32*
X223300000Y-110125000D02*
X223725000Y-110550000D01*
X230284195Y-103368514D02*
X230293514Y-103368514D01*
X232067500Y-125257500D02*
X231287500Y-125257500D01*
X225600000Y-110550000D02*
X224225000Y-110550000D01*
X231950000Y-96900000D02*
X231950000Y-96982500D01*
X239417500Y-125792500D02*
X239425000Y-125800000D01*
X239425000Y-123375000D02*
X239425000Y-122400000D01*
X229231486Y-103368514D02*
X229225000Y-103375000D01*
X230875000Y-95825000D02*
X231950000Y-96900000D01*
X235947500Y-95127500D02*
X235947500Y-94600000D01*
D33*
X221390000Y-129552500D02*
X221405000Y-129567500D01*
D32*
X223222500Y-94375000D02*
X224325000Y-94375000D01*
D33*
X225915000Y-129660000D02*
X226040000Y-129660000D01*
D32*
X218357500Y-114700000D02*
X218357500Y-113907500D01*
X218548439Y-107827513D02*
X218548439Y-106630888D01*
X238900000Y-97600000D02*
X238900000Y-98175000D01*
X235125000Y-117592500D02*
X235025000Y-117692500D01*
D33*
X219880000Y-129637500D02*
X219880000Y-131822500D01*
X233390000Y-129495000D02*
X233390000Y-131680000D01*
X224390000Y-129662500D02*
X224515000Y-129662500D01*
D32*
X239417500Y-124975000D02*
X239417500Y-125792500D01*
X218365000Y-121550000D02*
X218365000Y-120785000D01*
X218365000Y-118690000D02*
X218365000Y-119475000D01*
D33*
X223575000Y-106550000D02*
X223242500Y-106882500D01*
X223242500Y-106882500D02*
X222250000Y-106882500D01*
D32*
X236275000Y-117592500D02*
X236175000Y-117692500D01*
X237670000Y-97437500D02*
X237750000Y-97357500D01*
X220104073Y-110345926D02*
X220104073Y-111685787D01*
D33*
X228880000Y-129585000D02*
X228880000Y-131770000D01*
D32*
X224440000Y-97100000D02*
X225375000Y-97100000D01*
D33*
X224390000Y-129547500D02*
X224390000Y-131732500D01*
D32*
X218775000Y-94375000D02*
X218175000Y-94975000D01*
X236275000Y-118400000D02*
X236275000Y-117592500D01*
X235525000Y-95275000D02*
X235800000Y-95275000D01*
X235937500Y-97437500D02*
X237670000Y-97437500D01*
X224325000Y-94375000D02*
X224775000Y-94825000D01*
X223725000Y-110550000D02*
X224225000Y-110550000D01*
D33*
X233390000Y-129582500D02*
X233452500Y-129582500D01*
X231880000Y-129597500D02*
X231942500Y-129597500D01*
X221390000Y-129602500D02*
X221390000Y-131787500D01*
D32*
X231287500Y-119982500D02*
X232082500Y-119982500D01*
D33*
X222880000Y-129562500D02*
X222880000Y-131747500D01*
D32*
X238657500Y-97357500D02*
X238900000Y-97600000D01*
X236900000Y-131850000D02*
X236900000Y-129975000D01*
X220088210Y-111701651D02*
X220899569Y-111701651D01*
D33*
X225915000Y-129632500D02*
X225977500Y-129632500D01*
X225915000Y-129545000D02*
X225915000Y-131730000D01*
D32*
X237750000Y-97357500D02*
X238657500Y-97357500D01*
X232082500Y-119982500D02*
X232400000Y-120300000D01*
X218357500Y-113907500D02*
X218350000Y-113900000D01*
X236900000Y-129975000D02*
X236650000Y-129725000D01*
D33*
X220299999Y-110150000D02*
X220104073Y-110345926D01*
D32*
X223300000Y-109375000D02*
X223300000Y-110125000D01*
X232400000Y-120300000D02*
X232400000Y-121225000D01*
X225425000Y-103500000D02*
X225450000Y-103525000D01*
X235125000Y-117692500D02*
X235125000Y-118400000D01*
X221400000Y-110150000D02*
X220299999Y-110150000D01*
%TO.N,+3V3*%
X219500000Y-119462500D02*
X219500000Y-120737500D01*
X219500000Y-120750000D02*
X219500000Y-121475000D01*
X219500000Y-117937500D02*
X219500000Y-119462500D01*
X225600000Y-109415000D02*
X225600000Y-108800000D01*
X224225000Y-108750000D02*
X224225000Y-109415000D01*
X235700000Y-92675000D02*
X235947500Y-92922500D01*
X235947500Y-92922500D02*
X235947500Y-93350000D01*
D33*
%TO.N,/OSC_IN*%
X222243071Y-109583872D02*
X222243071Y-109531929D01*
X222243071Y-109531929D02*
X223775000Y-108000000D01*
X223775000Y-108000000D02*
X223775000Y-107975000D01*
X224425000Y-107975000D02*
X223775000Y-107975000D01*
%TO.N,/OSC_OUT*%
X220392372Y-108042373D02*
X222225127Y-108042373D01*
X223825000Y-107350000D02*
X222850000Y-107350000D01*
X220299999Y-107950000D02*
X220392372Y-108042373D01*
X222225127Y-108042373D02*
X222250000Y-108017500D01*
X222250000Y-107950000D02*
X222250000Y-108017500D01*
X222850000Y-107350000D02*
X222250000Y-107950000D01*
%TO.N,/OSC32_IN*%
X230112500Y-125257500D02*
X230152500Y-125257500D01*
X229225000Y-121125000D02*
X229225000Y-122850000D01*
X230152500Y-124372500D02*
X230665000Y-123860000D01*
X230235000Y-123860000D02*
X230665000Y-123860000D01*
X230152500Y-125257500D02*
X230152500Y-124372500D01*
X229225000Y-122850000D02*
X230235000Y-123860000D01*
%TO.N,/OSC32_OUT*%
X230152500Y-119982500D02*
X230152500Y-120847500D01*
X230130000Y-119960000D02*
X230152500Y-119982500D01*
X229365000Y-119960000D02*
X230130000Y-119960000D01*
%TO.N,VDD_SPI*%
X235125000Y-116400000D02*
X235125000Y-116457500D01*
X236275000Y-115250000D02*
X237725000Y-113800000D01*
X237725000Y-113800000D02*
X237725000Y-112375000D01*
X236275000Y-116457500D02*
X235125000Y-116457500D01*
X236275000Y-116457500D02*
X236275000Y-115250000D01*
X237465000Y-112115000D02*
X237465000Y-112110000D01*
X234375000Y-115650000D02*
X235125000Y-116400000D01*
X237725000Y-112375000D02*
X237465000Y-112115000D01*
D34*
%TO.N,/USB_D+*%
X224440000Y-99550000D02*
X223350000Y-99550000D01*
X223125000Y-99775000D02*
X223125000Y-100275000D01*
X230284195Y-104809195D02*
X230284195Y-104318514D01*
X223125000Y-100275000D02*
X223400000Y-100550000D01*
X230284195Y-102418514D02*
X231746695Y-102418514D01*
X231746695Y-102418514D02*
X232046695Y-102718514D01*
X230284195Y-101959195D02*
X230284195Y-102418514D01*
X230289195Y-104323514D02*
X230284195Y-104318514D01*
X230525000Y-105050000D02*
X230284195Y-104809195D01*
X223400000Y-100550000D02*
X224440000Y-100550000D01*
X232046695Y-104043514D02*
X231766695Y-104323514D01*
X231766695Y-104323514D02*
X230289195Y-104323514D01*
X232046695Y-102718514D02*
X232046695Y-104043514D01*
X223350000Y-99550000D02*
X223125000Y-99775000D01*
X227875000Y-99550000D02*
X230284195Y-101959195D01*
X224440000Y-99550000D02*
X227875000Y-99550000D01*
D33*
%TO.N,/USB_CC1*%
X221225000Y-94825000D02*
X221225000Y-100625000D01*
X221225000Y-100625000D02*
X222150000Y-101550000D01*
X220775000Y-94375000D02*
X221225000Y-94825000D01*
X220772500Y-94375000D02*
X220775000Y-94375000D01*
X222150000Y-101550000D02*
X224440000Y-101550000D01*
%TO.N,/USB_CC2*%
X222027500Y-97502500D02*
X222027500Y-94375000D01*
X224440000Y-98550000D02*
X223075000Y-98550000D01*
X223075000Y-98550000D02*
X222027500Y-97502500D01*
D34*
%TO.N,/USB_D-*%
X226350000Y-100050000D02*
X227512500Y-101212500D01*
X229006486Y-104318514D02*
X228009195Y-104318514D01*
X226191695Y-102873514D02*
X226191695Y-103938514D01*
X227350000Y-101050000D02*
X227512500Y-101212500D01*
X227512500Y-101212500D02*
X228009195Y-101709195D01*
X228009195Y-102418514D02*
X226646695Y-102418514D01*
X226191695Y-103938514D02*
X226571695Y-104318514D01*
X224440000Y-101050000D02*
X227350000Y-101050000D01*
X226571695Y-104318514D02*
X228009195Y-104318514D01*
X229025000Y-104300000D02*
X229006486Y-104318514D01*
X226646695Y-102418514D02*
X226191695Y-102873514D01*
X224440000Y-100050000D02*
X226350000Y-100050000D01*
X228009195Y-101709195D02*
X228009195Y-102418514D01*
D33*
%TO.N,/FLASH_QSPI_nH*%
X235440000Y-115085000D02*
X237077500Y-113447500D01*
%TO.N,/FLASH_QSPI_DO*%
X235590000Y-112935000D02*
X236165000Y-113510000D01*
X235065000Y-112935000D02*
X235590000Y-112935000D01*
D32*
%TO.N,+3V3_RF*%
X219500000Y-113825000D02*
X219500000Y-116200000D01*
D33*
%TO.N,/CHIP_PU*%
X226375000Y-106475000D02*
X226375000Y-110450000D01*
X233000000Y-105475000D02*
X232625000Y-105850000D01*
X232625000Y-105850000D02*
X227000000Y-105850000D01*
X233000000Y-104850000D02*
X233000000Y-105475000D01*
X227000000Y-105850000D02*
X226375000Y-106475000D01*
%TO.N,/CHIP_BOOT*%
X226760000Y-106730111D02*
X226760000Y-108385000D01*
X226975000Y-108600000D02*
X226975000Y-110950000D01*
X226975000Y-110950000D02*
X226350000Y-111575000D01*
X234400000Y-106400000D02*
X233859889Y-106400000D01*
X233859889Y-106400000D02*
X233854889Y-106395000D01*
X233854889Y-106395000D02*
X227095111Y-106395000D01*
X226760000Y-108385000D02*
X226975000Y-108600000D01*
X227095111Y-106395000D02*
X226760000Y-106730111D01*
%TO.N,Net-(C6-Pad1)*%
X219202512Y-112444113D02*
X218953211Y-112194811D01*
X218953211Y-112194811D02*
X218953211Y-111701651D01*
X222243071Y-111418808D02*
X221217767Y-112444113D01*
X218901992Y-111650432D02*
X218953211Y-111701651D01*
X222243071Y-110778871D02*
X222243071Y-111418808D01*
X221217767Y-112444113D02*
X219202512Y-112444113D01*
X218953211Y-110503211D02*
X218953211Y-111701651D01*
X218600000Y-110150000D02*
X218953211Y-110503211D01*
%TO.N,/GPIO33*%
X235640000Y-109560000D02*
X235640000Y-109460000D01*
X235640000Y-109460000D02*
X235640000Y-109485000D01*
X229815000Y-127815000D02*
X229815000Y-131775000D01*
X229815000Y-131775000D02*
X229885000Y-131845000D01*
X227700000Y-125700000D02*
X229815000Y-127815000D01*
X234133000Y-110292000D02*
X227700000Y-116725000D01*
X227700000Y-116725000D02*
X227700000Y-125700000D01*
X234833000Y-110292000D02*
X234133000Y-110292000D01*
X235640000Y-109485000D02*
X234833000Y-110292000D01*
%TO.N,/GPIO18*%
X232900000Y-131860000D02*
X232815000Y-131775000D01*
X232815000Y-131775000D02*
X232815000Y-127360000D01*
X232815000Y-127360000D02*
X231840000Y-126385000D01*
%TO.N,/GPIO35*%
X228315000Y-131775000D02*
X228375000Y-131835000D01*
X227100000Y-116400000D02*
X227100000Y-126650000D01*
X227100000Y-126650000D02*
X228315000Y-127865000D01*
X234015000Y-109485000D02*
X227100000Y-116400000D01*
X228315000Y-127865000D02*
X228315000Y-131775000D01*
%TO.N,/GPIO21*%
X235768000Y-131718000D02*
X235900000Y-131850000D01*
X232737500Y-119112500D02*
X235768000Y-122143000D01*
X235768000Y-122143000D02*
X235768000Y-131718000D01*
%TO.N,/SPICLK_P*%
X236465000Y-109460000D02*
X235356000Y-110569000D01*
X230965000Y-128315000D02*
X230965000Y-131775000D01*
X234381000Y-110569000D02*
X228100000Y-116850000D01*
X228100000Y-125450000D02*
X230965000Y-128315000D01*
X235356000Y-110569000D02*
X234381000Y-110569000D01*
X228100000Y-116850000D02*
X228100000Y-125450000D01*
X230965000Y-131775000D02*
X230890000Y-131850000D01*
%TO.N,/MTCK*%
X224450000Y-127275000D02*
X225323000Y-128148000D01*
X225323000Y-131758000D02*
X225375000Y-131810000D01*
X232825000Y-106950000D02*
X231265000Y-108510000D01*
X231265000Y-110543476D02*
X224450000Y-117358476D01*
X231265000Y-108510000D02*
X231265000Y-110543476D01*
X224450000Y-117358476D02*
X224450000Y-127275000D01*
X225323000Y-128148000D02*
X225323000Y-131758000D01*
%TO.N,/GPIO37*%
X232390000Y-110201952D02*
X225150000Y-117441952D01*
X226806989Y-131741989D02*
X226885000Y-131820000D01*
X225150000Y-126375000D02*
X226806989Y-128031989D01*
X232390000Y-109460000D02*
X232390000Y-110201952D01*
X225150000Y-117441952D02*
X225150000Y-126375000D01*
X226806989Y-128031989D02*
X226806989Y-131741989D01*
%TO.N,/GPIO17*%
X232465000Y-131795000D02*
X232400000Y-131860000D01*
X232465000Y-127935000D02*
X232465000Y-131795000D01*
X231827500Y-127297500D02*
X232465000Y-127935000D01*
%TO.N,/MTDO*%
X224100000Y-127675000D02*
X224945000Y-128520000D01*
X224945000Y-128520000D02*
X224945000Y-131740000D01*
X231800000Y-106950000D02*
X231800000Y-107200000D01*
X230895000Y-110521738D02*
X224100000Y-117316738D01*
X230895000Y-108105000D02*
X230895000Y-110521738D01*
X224100000Y-117316738D02*
X224100000Y-127675000D01*
X231800000Y-107200000D02*
X230895000Y-108105000D01*
X224945000Y-131740000D02*
X224875000Y-131810000D01*
%TO.N,/GPIO34*%
X233935000Y-110015000D02*
X234277444Y-110015000D01*
X227400000Y-116550000D02*
X233935000Y-110015000D01*
X229465000Y-128215000D02*
X227400000Y-126150000D01*
X229465000Y-131765000D02*
X229465000Y-128215000D01*
X227400000Y-126150000D02*
X227400000Y-116550000D01*
X234277444Y-110015000D02*
X234757444Y-109535000D01*
X234757444Y-109535000D02*
X234815000Y-109535000D01*
X229385000Y-131845000D02*
X229465000Y-131765000D01*
%TO.N,/U0RXD*%
X228515000Y-111210000D02*
X228515000Y-110060000D01*
X221965000Y-117760000D02*
X228515000Y-111210000D01*
X221965000Y-131720000D02*
X221965000Y-117760000D01*
X221875000Y-131810000D02*
X221965000Y-131720000D01*
%TO.N,/U0TXD*%
X222315000Y-117810000D02*
X222315000Y-131750000D01*
X229340000Y-110060000D02*
X229340000Y-110785000D01*
X229340000Y-110785000D02*
X222315000Y-117810000D01*
X222315000Y-131750000D02*
X222375000Y-131810000D01*
%TO.N,/SPICS1*%
X236400000Y-130275000D02*
X236400000Y-131850000D01*
X233375000Y-118550000D02*
X233375000Y-118900000D01*
X236045000Y-129920000D02*
X236400000Y-130275000D01*
X236045000Y-121570000D02*
X236045000Y-129920000D01*
X233375000Y-118900000D02*
X236045000Y-121570000D01*
%TO.N,/MTDI*%
X229785000Y-107005000D02*
X229740000Y-106960000D01*
X223815000Y-117210000D02*
X230290000Y-110735000D01*
X223885000Y-131820000D02*
X223815000Y-131750000D01*
X229785000Y-108030000D02*
X229785000Y-107005000D01*
X230290000Y-110735000D02*
X230290000Y-108535000D01*
X230290000Y-108535000D02*
X229785000Y-108030000D01*
X223815000Y-131750000D02*
X223815000Y-117210000D01*
%TO.N,/GPIO36*%
X227965000Y-128340000D02*
X226800000Y-127175000D01*
X226800000Y-116225000D02*
X233215000Y-109810000D01*
X226800000Y-127175000D02*
X226800000Y-116225000D01*
X227965000Y-131745000D02*
X227965000Y-128340000D01*
X227875000Y-131835000D02*
X227965000Y-131745000D01*
X233215000Y-109810000D02*
X233215000Y-109485000D01*
%TO.N,/GPIO46*%
X227315000Y-111476310D02*
X227315000Y-106960000D01*
X220400000Y-131810000D02*
X220440000Y-131770000D01*
X220440000Y-118351311D02*
X227315000Y-111476310D01*
X220440000Y-131770000D02*
X220440000Y-118351311D01*
%TO.N,/SPICLK_N*%
X228575000Y-125325000D02*
X228575000Y-116925000D01*
X236315000Y-110310000D02*
X237015000Y-110310000D01*
X231315000Y-131775000D02*
X231315000Y-128065000D01*
X229400000Y-116050000D02*
X234450000Y-111000000D01*
X231315000Y-128065000D02*
X228575000Y-125325000D01*
X235625000Y-111000000D02*
X236315000Y-110310000D01*
X234450000Y-111000000D02*
X235625000Y-111000000D01*
X229400000Y-116100000D02*
X229400000Y-116050000D01*
X231390000Y-131850000D02*
X231315000Y-131775000D01*
X228575000Y-116925000D02*
X229400000Y-116100000D01*
%TO.N,/MTMS*%
X229895000Y-108815000D02*
X229895000Y-110705000D01*
X229895000Y-110705000D02*
X227211999Y-113387999D01*
X223440000Y-131765000D02*
X223385000Y-131820000D01*
X227211999Y-113387999D02*
X227203952Y-113387999D01*
X223440000Y-117151952D02*
X223440000Y-131765000D01*
X227203952Y-113387999D02*
X223440000Y-117151952D01*
X228940000Y-106960000D02*
X228940000Y-107860000D01*
X228940000Y-107860000D02*
X229895000Y-108815000D01*
%TO.N,/GPIO38*%
X233625000Y-106950000D02*
X231665000Y-108910000D01*
X224775000Y-117425214D02*
X224775000Y-126825000D01*
X226470000Y-128520000D02*
X226470000Y-131735000D01*
X226470000Y-131735000D02*
X226385000Y-131820000D01*
X231665000Y-110535214D02*
X224775000Y-117425214D01*
X231665000Y-108910000D02*
X231665000Y-110535214D01*
X224775000Y-126825000D02*
X226470000Y-128520000D01*
%TO.N,/GPIO45*%
X228140000Y-106960000D02*
X227592000Y-107508000D01*
X220815000Y-118435000D02*
X220815000Y-131725000D01*
X227592000Y-107508000D02*
X227592000Y-111658000D01*
X227592000Y-111658000D02*
X220815000Y-118435000D01*
X220815000Y-131725000D02*
X220900000Y-131810000D01*
%TO.N,Net-(U1-FB)*%
X234752500Y-93350000D02*
X234752500Y-94600000D01*
X234175000Y-94600000D02*
X233662500Y-95112500D01*
X233662500Y-95112500D02*
X233662500Y-96487500D01*
X234752500Y-94600000D02*
X234175000Y-94600000D01*
D32*
%TO.N,Net-(U1-EN)*%
X239775000Y-105700000D02*
X239575000Y-105900000D01*
X239062500Y-96487500D02*
X239775000Y-97200000D01*
X239775000Y-97200000D02*
X239775000Y-105700000D01*
X235937500Y-96487500D02*
X239062500Y-96487500D01*
%TO.N,Net-(J2-2)*%
X237650000Y-129425000D02*
X237650000Y-128572500D01*
X237400000Y-131850000D02*
X237400000Y-129675000D01*
X237900000Y-129675000D02*
X237900000Y-131850000D01*
X237650000Y-129425000D02*
X237900000Y-129675000D01*
X237400000Y-129675000D02*
X237650000Y-129425000D01*
%TD*%
%TA.AperFunction,Conductor*%
%TO.N,Net-(U1-SW)*%
G36*
X236518039Y-98257685D02*
G01*
X236563794Y-98310489D01*
X236575000Y-98362000D01*
X236575000Y-98823638D01*
X236555315Y-98890677D01*
X236538681Y-98911319D01*
X235500000Y-99949999D01*
X235500000Y-102728846D01*
X235480315Y-102795885D01*
X235441973Y-102833839D01*
X235369798Y-102879189D01*
X235285306Y-102963682D01*
X235223982Y-102997166D01*
X235197625Y-103000000D01*
X234274500Y-103000000D01*
X234207461Y-102980315D01*
X234161706Y-102927511D01*
X234150500Y-102876000D01*
X234150500Y-101738396D01*
X234150500Y-101738394D01*
X234126463Y-101617548D01*
X234126461Y-101617543D01*
X234106962Y-101570468D01*
X234106947Y-101570435D01*
X234106932Y-101570397D01*
X234079312Y-101503715D01*
X234079309Y-101503710D01*
X234062256Y-101478189D01*
X234062256Y-101478188D01*
X234062253Y-101478186D01*
X234020897Y-101416290D01*
X234000020Y-101349612D01*
X234000000Y-101347401D01*
X234000000Y-99851362D01*
X234019685Y-99784323D01*
X234036319Y-99763681D01*
X235300000Y-98500000D01*
X235300000Y-98362000D01*
X235319685Y-98294961D01*
X235372489Y-98249206D01*
X235424000Y-98238000D01*
X236451000Y-98238000D01*
X236518039Y-98257685D01*
G37*
%TD.AperFunction*%
%TD*%
%TA.AperFunction,Conductor*%
%TO.N,VBUS*%
G36*
X230709825Y-97269685D02*
G01*
X230737129Y-97293531D01*
X230827941Y-97400000D01*
X231425000Y-98100000D01*
X232225000Y-98100000D01*
X232350000Y-98100000D01*
X233226000Y-98100000D01*
X233293039Y-98119685D01*
X233338794Y-98172489D01*
X233350000Y-98224000D01*
X233350000Y-98623638D01*
X233330315Y-98690677D01*
X233313681Y-98711319D01*
X232711319Y-99313681D01*
X232649996Y-99347166D01*
X232623638Y-99350000D01*
X231749999Y-99350000D01*
X231637681Y-99462319D01*
X231576358Y-99495804D01*
X231506666Y-99490820D01*
X231462319Y-99462319D01*
X231350000Y-99350000D01*
X230402374Y-99350000D01*
X230335335Y-99330315D01*
X230314693Y-99313681D01*
X230280204Y-99279192D01*
X230141774Y-99192210D01*
X229987455Y-99138212D01*
X229825004Y-99119909D01*
X229824996Y-99119909D01*
X229662544Y-99138212D01*
X229508225Y-99192210D01*
X229369795Y-99279192D01*
X229362175Y-99286813D01*
X229300852Y-99320298D01*
X229231160Y-99315314D01*
X229186813Y-99286813D01*
X229161319Y-99261319D01*
X229127834Y-99199996D01*
X229125000Y-99173638D01*
X229125000Y-97451362D01*
X229144685Y-97384323D01*
X229161319Y-97363681D01*
X229238681Y-97286319D01*
X229300004Y-97252834D01*
X229326362Y-97250000D01*
X230642786Y-97250000D01*
X230709825Y-97269685D01*
G37*
%TD.AperFunction*%
%TD*%
%TA.AperFunction,Conductor*%
%TO.N,+3V3*%
G36*
X237433578Y-98205707D02*
G01*
X237491642Y-98222576D01*
X237528797Y-98225500D01*
X237971202Y-98225499D01*
X238008358Y-98222576D01*
X238028641Y-98216683D01*
X238098507Y-98216880D01*
X238157178Y-98254820D01*
X238186024Y-98318457D01*
X238186457Y-98321869D01*
X238188214Y-98337460D01*
X238242210Y-98491774D01*
X238242211Y-98491775D01*
X238329192Y-98630204D01*
X238444796Y-98745808D01*
X238583225Y-98832789D01*
X238589499Y-98835810D01*
X238588316Y-98838264D01*
X238635033Y-98871740D01*
X238636873Y-98874156D01*
X239125061Y-99531715D01*
X239149218Y-99597274D01*
X239149500Y-99605630D01*
X239149500Y-103624138D01*
X239129815Y-103691177D01*
X239113181Y-103711819D01*
X238811319Y-104013681D01*
X238749996Y-104047166D01*
X238723638Y-104050000D01*
X236991333Y-104050000D01*
X236924294Y-104030315D01*
X236916933Y-104025200D01*
X236901574Y-104013681D01*
X236799600Y-103937200D01*
X236757779Y-103881229D01*
X236750000Y-103838000D01*
X236750000Y-100151362D01*
X236769685Y-100084323D01*
X236786319Y-100063681D01*
X237275000Y-99575000D01*
X237275000Y-98324787D01*
X237294685Y-98257748D01*
X237347489Y-98211993D01*
X237416647Y-98202049D01*
X237433578Y-98205707D01*
G37*
%TD.AperFunction*%
%TD*%
M02*
