%TF.GenerationSoftware,KiCad,Pcbnew,8.0.1*%
%TF.CreationDate,2024-04-18T13:31:19+02:00*%
%TF.ProjectId,ESP32S3_M.2_Board,45535033-3253-4335-9f4d-2e325f426f61,rev?*%
%TF.SameCoordinates,Original*%
%TF.FileFunction,Copper,L2,Inr*%
%TF.FilePolarity,Positive*%
%FSLAX46Y46*%
G04 Gerber Fmt 4.6, Leading zero omitted, Abs format (unit mm)*
G04 Created by KiCad (PCBNEW 8.0.1) date 2024-04-18 13:31:19*
%MOMM*%
%LPD*%
G01*
G04 APERTURE LIST*
%TA.AperFunction,ComponentPad*%
%ADD10C,5.500000*%
%TD*%
%TA.AperFunction,ComponentPad*%
%ADD11O,1.800000X1.000000*%
%TD*%
%TA.AperFunction,ComponentPad*%
%ADD12O,2.100000X1.000000*%
%TD*%
%TA.AperFunction,ViaPad*%
%ADD13C,0.450000*%
%TD*%
%TA.AperFunction,Conductor*%
%ADD14C,0.150000*%
%TD*%
G04 APERTURE END LIST*
D10*
%TO.N,unconnected-(J2-MP1-PadMOUNTING-HOLE)*%
%TO.C,J2*%
X228900000Y-91100000D03*
%TD*%
D11*
%TO.N,Earth*%
%TO.C,J1*%
X219685000Y-104620000D03*
D12*
X223865000Y-104620000D03*
D11*
X219685000Y-95980000D03*
D12*
X223865000Y-95980000D03*
%TD*%
D13*
%TO.N,VBUS*%
X230325000Y-98850000D03*
X230325000Y-97595997D03*
X225700000Y-101750000D03*
X225700000Y-102475000D03*
X230900000Y-98529003D03*
X226825000Y-103375000D03*
X239575000Y-108575000D03*
X226875000Y-97900000D03*
X230900000Y-97925000D03*
X230325000Y-98200000D03*
X229725000Y-98500000D03*
X225425000Y-97900000D03*
X229725000Y-97925000D03*
%TO.N,Earth*%
X222880000Y-129650000D03*
X235525000Y-95275000D03*
X239150000Y-113900000D03*
X218700000Y-97650000D03*
X224390000Y-129635000D03*
X232425000Y-124125000D03*
X230875000Y-95825000D03*
X218548439Y-106630888D03*
X218365000Y-121475000D03*
X231500000Y-105175000D03*
X238575000Y-93500000D03*
X218365000Y-118690000D03*
X225375000Y-97100000D03*
X227850000Y-100700000D03*
X236275000Y-118400000D03*
X232750000Y-103275000D03*
X239425000Y-122400000D03*
X218700000Y-102825000D03*
X233390000Y-129582500D03*
X219880000Y-129677500D03*
X236650000Y-129725000D03*
X225915000Y-129632500D03*
X239425000Y-125800000D03*
X231450000Y-115075000D03*
X228880000Y-129625000D03*
X220899569Y-111701651D03*
X218350000Y-113825000D03*
X223575000Y-106550000D03*
X238900000Y-98175000D03*
X235100000Y-129050000D03*
X229225000Y-103375000D03*
X224775000Y-94825000D03*
X233025000Y-93525000D03*
X218175000Y-94975000D03*
X226000000Y-120850000D03*
X231880000Y-129597500D03*
X221400000Y-110150000D03*
X235125000Y-118400000D03*
X225700000Y-96550000D03*
X236650000Y-129120997D03*
X239075000Y-116950000D03*
X232400000Y-121225000D03*
X221390000Y-129677500D03*
X230390000Y-129625000D03*
X239425000Y-127425000D03*
X223300000Y-109375000D03*
X225450000Y-103525000D03*
X227390000Y-129625000D03*
X235100000Y-128445997D03*
%TO.N,+3V3*%
X238875000Y-103150000D03*
X226000000Y-105750000D03*
X225600000Y-108800000D03*
X224225000Y-108750000D03*
X237375000Y-123200000D03*
X238650000Y-103725000D03*
X235825000Y-103450000D03*
X238750000Y-100425000D03*
X226025000Y-119700000D03*
X237375000Y-123925000D03*
X235700000Y-92675000D03*
X237375000Y-125375000D03*
X238750000Y-99775000D03*
X219500000Y-121475000D03*
X228625000Y-96550000D03*
X230340000Y-107735000D03*
X237375000Y-124650000D03*
X238275000Y-99350000D03*
%TO.N,/OSC_IN*%
X224425000Y-107975000D03*
%TO.N,/OSC_OUT*%
X223825000Y-107350000D03*
%TO.N,/OSC32_IN*%
X229225000Y-121125000D03*
%TO.N,/OSC32_OUT*%
X229365000Y-119960000D03*
%TO.N,VDD_SPI*%
X234375000Y-115650000D03*
%TO.N,/USB_D+*%
X230525000Y-105050000D03*
X231825000Y-119012800D03*
%TO.N,/USB_D-*%
X229025000Y-104300000D03*
X230987200Y-119012800D03*
%TO.N,/FLASH_QSPI_nH*%
X237077500Y-113447500D03*
X235440000Y-115085000D03*
%TO.N,/FLASH_QSPI_DO*%
X235065000Y-112935000D03*
X236165000Y-113510000D03*
%TO.N,+3V3_RF*%
X219500000Y-113825000D03*
%TO.N,/CHIP_PU*%
X233000000Y-104925000D03*
X226375000Y-110450000D03*
%TO.N,/CHIP_BOOT*%
X226350000Y-111575000D03*
X234400000Y-106400000D03*
%TO.N,/GPIO33*%
X235640000Y-109460000D03*
%TO.N,/GPIO18*%
X231840000Y-126385000D03*
%TO.N,/GPIO35*%
X234015000Y-109460000D03*
%TO.N,/GPIO21*%
X232737500Y-119112500D03*
%TO.N,/SPICLK_P*%
X236465000Y-109460000D03*
%TO.N,/MTCK*%
X232825000Y-106950000D03*
%TO.N,/GPIO37*%
X232390000Y-109460000D03*
%TO.N,/GPIO17*%
X231827500Y-127297500D03*
%TO.N,/MTDO*%
X231800000Y-106950000D03*
%TO.N,/GPIO34*%
X234815000Y-109460000D03*
%TO.N,/U0RXD*%
X228515000Y-110060000D03*
%TO.N,/U0TXD*%
X229340000Y-110060000D03*
%TO.N,/SPICS1*%
X233375000Y-118550000D03*
%TO.N,/MTDI*%
X229740000Y-106960000D03*
%TO.N,/GPIO36*%
X233215000Y-109460000D03*
%TO.N,/GPIO46*%
X229825000Y-99850000D03*
X227315000Y-106960000D03*
%TO.N,/SPICLK_N*%
X237015000Y-110310000D03*
%TO.N,/MTMS*%
X228940000Y-106960000D03*
%TO.N,/GPIO38*%
X233625000Y-106950000D03*
%TO.N,/GPIO45*%
X228140000Y-106960000D03*
%TO.N,Net-(U1-EN)*%
X239575000Y-105900000D03*
%TD*%
D14*
%TO.N,/USB_D+*%
X230525000Y-105050000D02*
X231220000Y-105745000D01*
X230670000Y-116788303D02*
X230670000Y-116908303D01*
X230670000Y-114689045D02*
X230670000Y-115708303D01*
X231220000Y-105745000D02*
X231220000Y-114139045D01*
X231430000Y-116548303D02*
X230910000Y-116548303D01*
X230670000Y-117857800D02*
X231825000Y-119012800D01*
X230670000Y-116908303D02*
X230670000Y-117075000D01*
X231670000Y-116188303D02*
X231670000Y-116308303D01*
X230910000Y-115948303D02*
X231430000Y-115948303D01*
X230670000Y-117075000D02*
X230670000Y-117857800D01*
X231220000Y-114139045D02*
X230670000Y-114689045D01*
X231670000Y-116308303D02*
G75*
G02*
X231430000Y-116548300I-240000J3D01*
G01*
X230910000Y-116548303D02*
G75*
G03*
X230670003Y-116788303I0J-239997D01*
G01*
X230670000Y-115708303D02*
G75*
G03*
X230910000Y-115948300I240000J3D01*
G01*
X231430000Y-115948303D02*
G75*
G02*
X231669997Y-116188303I0J-239997D01*
G01*
%TO.N,/USB_D-*%
X229025000Y-104950000D02*
X230895000Y-106820000D01*
X229025000Y-104300000D02*
X229025000Y-104950000D01*
X230406100Y-118431700D02*
X230987200Y-119012800D01*
X230895000Y-114090835D02*
X230406100Y-114579735D01*
X230895000Y-106820000D02*
X230895000Y-114090835D01*
X230406100Y-114579735D02*
X230406100Y-118431700D01*
%TO.N,/GPIO46*%
X227925000Y-102300000D02*
X227925000Y-105575000D01*
X227925000Y-105575000D02*
X227315000Y-106185000D01*
X229825000Y-100400000D02*
X227925000Y-102300000D01*
X227315000Y-106185000D02*
X227315000Y-106960000D01*
X229825000Y-99850000D02*
X229825000Y-100400000D01*
%TD*%
%TA.AperFunction,Conductor*%
%TO.N,Earth*%
G36*
X239909630Y-91402025D02*
G01*
X239942253Y-91407192D01*
X239979146Y-91419179D01*
X239999765Y-91429685D01*
X240031151Y-91452489D01*
X240047510Y-91468848D01*
X240070314Y-91500234D01*
X240080820Y-91520853D01*
X240092808Y-91557748D01*
X240097973Y-91590362D01*
X240099500Y-91609755D01*
X240099500Y-105148371D01*
X240079815Y-105215410D01*
X240027011Y-105261165D01*
X239957853Y-105271109D01*
X239909530Y-105253366D01*
X239891776Y-105242211D01*
X239737455Y-105188212D01*
X239575004Y-105169909D01*
X239574996Y-105169909D01*
X239412544Y-105188212D01*
X239258225Y-105242210D01*
X239119795Y-105329192D01*
X239004192Y-105444795D01*
X238917210Y-105583225D01*
X238863212Y-105737544D01*
X238844909Y-105899996D01*
X238844909Y-105900003D01*
X238863212Y-106062455D01*
X238917210Y-106216774D01*
X238986488Y-106327028D01*
X239004192Y-106355204D01*
X239119796Y-106470808D01*
X239258225Y-106557789D01*
X239412539Y-106611786D01*
X239412542Y-106611786D01*
X239412544Y-106611787D01*
X239574996Y-106630091D01*
X239575000Y-106630091D01*
X239575004Y-106630091D01*
X239737455Y-106611787D01*
X239737456Y-106611786D01*
X239737461Y-106611786D01*
X239891775Y-106557789D01*
X239904841Y-106549579D01*
X239909527Y-106546635D01*
X239976763Y-106527634D01*
X240043599Y-106548001D01*
X240088813Y-106601269D01*
X240099500Y-106651628D01*
X240099500Y-107823371D01*
X240079815Y-107890410D01*
X240027011Y-107936165D01*
X239957853Y-107946109D01*
X239909530Y-107928366D01*
X239891776Y-107917211D01*
X239737455Y-107863212D01*
X239575004Y-107844909D01*
X239574996Y-107844909D01*
X239412544Y-107863212D01*
X239258225Y-107917210D01*
X239119795Y-108004192D01*
X239004192Y-108119795D01*
X238917210Y-108258225D01*
X238863212Y-108412544D01*
X238844909Y-108574996D01*
X238844909Y-108575003D01*
X238863212Y-108737455D01*
X238917210Y-108891774D01*
X238917211Y-108891775D01*
X239004192Y-109030204D01*
X239119796Y-109145808D01*
X239258225Y-109232789D01*
X239412539Y-109286786D01*
X239412542Y-109286786D01*
X239412544Y-109286787D01*
X239574996Y-109305091D01*
X239575000Y-109305091D01*
X239575004Y-109305091D01*
X239737455Y-109286787D01*
X239737456Y-109286786D01*
X239737461Y-109286786D01*
X239891775Y-109232789D01*
X239904841Y-109224579D01*
X239909527Y-109221635D01*
X239976763Y-109202634D01*
X240043599Y-109223001D01*
X240088813Y-109276269D01*
X240099500Y-109326628D01*
X240099500Y-128675500D01*
X240079815Y-128742539D01*
X240027011Y-128788294D01*
X239975500Y-128799500D01*
X239271155Y-128799500D01*
X239116510Y-128830261D01*
X239116498Y-128830264D01*
X238970827Y-128890602D01*
X238970814Y-128890609D01*
X238839711Y-128978210D01*
X238839707Y-128978213D01*
X238728213Y-129089707D01*
X238728210Y-129089711D01*
X238640609Y-129220814D01*
X238640602Y-129220827D01*
X238580264Y-129366498D01*
X238580261Y-129366510D01*
X238549500Y-129521153D01*
X238549500Y-132675500D01*
X238529815Y-132742539D01*
X238477011Y-132788294D01*
X238425500Y-132799500D01*
X235524500Y-132799500D01*
X235457461Y-132779815D01*
X235411706Y-132727011D01*
X235400500Y-132675500D01*
X235400500Y-130111306D01*
X235400499Y-130111304D01*
X235365896Y-129937341D01*
X235365893Y-129937332D01*
X235298016Y-129773459D01*
X235298009Y-129773446D01*
X235199464Y-129625965D01*
X235199461Y-129625961D01*
X235074038Y-129500538D01*
X235074034Y-129500535D01*
X234926553Y-129401990D01*
X234926540Y-129401983D01*
X234762667Y-129334106D01*
X234762658Y-129334103D01*
X234588694Y-129299500D01*
X234588691Y-129299500D01*
X234547595Y-129299500D01*
X234500000Y-129299500D01*
X234411309Y-129299500D01*
X234411306Y-129299500D01*
X234237341Y-129334103D01*
X234237332Y-129334106D01*
X234073459Y-129401983D01*
X234073446Y-129401990D01*
X233925965Y-129500535D01*
X233925961Y-129500538D01*
X233800538Y-129625961D01*
X233800535Y-129625965D01*
X233701990Y-129773446D01*
X233701983Y-129773459D01*
X233634106Y-129937332D01*
X233634103Y-129937341D01*
X233599500Y-130111304D01*
X233599500Y-132675500D01*
X233579815Y-132742539D01*
X233527011Y-132788294D01*
X233475500Y-132799500D01*
X219374500Y-132799500D01*
X219307461Y-132779815D01*
X219261706Y-132727011D01*
X219250500Y-132675500D01*
X219250500Y-129521155D01*
X219250499Y-129521153D01*
X219246398Y-129500535D01*
X219219737Y-129366503D01*
X219174026Y-129256146D01*
X219159397Y-129220827D01*
X219159390Y-129220814D01*
X219071789Y-129089711D01*
X219071786Y-129089707D01*
X218960292Y-128978213D01*
X218960288Y-128978210D01*
X218829185Y-128890609D01*
X218829172Y-128890602D01*
X218683501Y-128830264D01*
X218683489Y-128830261D01*
X218528845Y-128799500D01*
X218528842Y-128799500D01*
X218489562Y-128799500D01*
X217849500Y-128799500D01*
X217782461Y-128779815D01*
X217736706Y-128727011D01*
X217725500Y-128675500D01*
X217725500Y-127297503D01*
X231097409Y-127297503D01*
X231115712Y-127459955D01*
X231169710Y-127614274D01*
X231169711Y-127614275D01*
X231256692Y-127752704D01*
X231372296Y-127868308D01*
X231510725Y-127955289D01*
X231665039Y-128009286D01*
X231665042Y-128009286D01*
X231665044Y-128009287D01*
X231827496Y-128027591D01*
X231827500Y-128027591D01*
X231827504Y-128027591D01*
X231989955Y-128009287D01*
X231989956Y-128009286D01*
X231989961Y-128009286D01*
X232144275Y-127955289D01*
X232282704Y-127868308D01*
X232398308Y-127752704D01*
X232485289Y-127614275D01*
X232539286Y-127459961D01*
X232557591Y-127297500D01*
X232539286Y-127135039D01*
X232485289Y-126980725D01*
X232485289Y-126980724D01*
X232445354Y-126917168D01*
X232426354Y-126849931D01*
X232445355Y-126785223D01*
X232457853Y-126765332D01*
X232497789Y-126701775D01*
X232551786Y-126547461D01*
X232570091Y-126385000D01*
X232551786Y-126222539D01*
X232497789Y-126068225D01*
X232410808Y-125929796D01*
X232295204Y-125814192D01*
X232156774Y-125727210D01*
X232002455Y-125673212D01*
X231840004Y-125654909D01*
X231839996Y-125654909D01*
X231677544Y-125673212D01*
X231523225Y-125727210D01*
X231384795Y-125814192D01*
X231269192Y-125929795D01*
X231182210Y-126068225D01*
X231128212Y-126222544D01*
X231109909Y-126384996D01*
X231109909Y-126385003D01*
X231128212Y-126547455D01*
X231182211Y-126701777D01*
X231222145Y-126765332D01*
X231241145Y-126832569D01*
X231222145Y-126897274D01*
X231169711Y-126980722D01*
X231115712Y-127135044D01*
X231097409Y-127297496D01*
X231097409Y-127297503D01*
X217725500Y-127297503D01*
X217725500Y-125375003D01*
X236644909Y-125375003D01*
X236663212Y-125537455D01*
X236717210Y-125691774D01*
X236717211Y-125691775D01*
X236804192Y-125830204D01*
X236919796Y-125945808D01*
X237058225Y-126032789D01*
X237212539Y-126086786D01*
X237212542Y-126086786D01*
X237212544Y-126086787D01*
X237374996Y-126105091D01*
X237375000Y-126105091D01*
X237375004Y-126105091D01*
X237537455Y-126086787D01*
X237537456Y-126086786D01*
X237537461Y-126086786D01*
X237691775Y-126032789D01*
X237830204Y-125945808D01*
X237945808Y-125830204D01*
X238032789Y-125691775D01*
X238086786Y-125537461D01*
X238105091Y-125375000D01*
X238086787Y-125212544D01*
X238086787Y-125212542D01*
X238086786Y-125212539D01*
X238032789Y-125058225D01*
X238032787Y-125058221D01*
X238031119Y-125053455D01*
X238027556Y-124983676D01*
X238031119Y-124971545D01*
X238032787Y-124966778D01*
X238032789Y-124966775D01*
X238086786Y-124812461D01*
X238086786Y-124812459D01*
X238086787Y-124812457D01*
X238105091Y-124650003D01*
X238105091Y-124649996D01*
X238086787Y-124487542D01*
X238086786Y-124487539D01*
X238032789Y-124333225D01*
X238032787Y-124333221D01*
X238031119Y-124328455D01*
X238027556Y-124258676D01*
X238031119Y-124246545D01*
X238032787Y-124241778D01*
X238032789Y-124241775D01*
X238086786Y-124087461D01*
X238086786Y-124087459D01*
X238086787Y-124087457D01*
X238105091Y-123925003D01*
X238105091Y-123924996D01*
X238086787Y-123762542D01*
X238086786Y-123762539D01*
X238032789Y-123608225D01*
X238032787Y-123608221D01*
X238031119Y-123603455D01*
X238027556Y-123533676D01*
X238031119Y-123521545D01*
X238032787Y-123516778D01*
X238032789Y-123516775D01*
X238086786Y-123362461D01*
X238086786Y-123362459D01*
X238086787Y-123362457D01*
X238105091Y-123200003D01*
X238105091Y-123199996D01*
X238086787Y-123037544D01*
X238086786Y-123037542D01*
X238086786Y-123037539D01*
X238032789Y-122883225D01*
X237945808Y-122744796D01*
X237830204Y-122629192D01*
X237691774Y-122542210D01*
X237537455Y-122488212D01*
X237375004Y-122469909D01*
X237374996Y-122469909D01*
X237212544Y-122488212D01*
X237058225Y-122542210D01*
X236919795Y-122629192D01*
X236804192Y-122744795D01*
X236717210Y-122883225D01*
X236663212Y-123037544D01*
X236644909Y-123199996D01*
X236644909Y-123200003D01*
X236663212Y-123362455D01*
X236718880Y-123521546D01*
X236722441Y-123591325D01*
X236718880Y-123603454D01*
X236663212Y-123762544D01*
X236644909Y-123924996D01*
X236644909Y-123925003D01*
X236663212Y-124087455D01*
X236718880Y-124246546D01*
X236722441Y-124316325D01*
X236718880Y-124328454D01*
X236663212Y-124487544D01*
X236644909Y-124649996D01*
X236644909Y-124650003D01*
X236663212Y-124812455D01*
X236718880Y-124971546D01*
X236722441Y-125041325D01*
X236718880Y-125053454D01*
X236663212Y-125212544D01*
X236644909Y-125374996D01*
X236644909Y-125375003D01*
X217725500Y-125375003D01*
X217725500Y-121475003D01*
X218769909Y-121475003D01*
X218788212Y-121637455D01*
X218842210Y-121791774D01*
X218842211Y-121791775D01*
X218929192Y-121930204D01*
X219044796Y-122045808D01*
X219183225Y-122132789D01*
X219337539Y-122186786D01*
X219337542Y-122186786D01*
X219337544Y-122186787D01*
X219499996Y-122205091D01*
X219500000Y-122205091D01*
X219500004Y-122205091D01*
X219662455Y-122186787D01*
X219662456Y-122186786D01*
X219662461Y-122186786D01*
X219816775Y-122132789D01*
X219955204Y-122045808D01*
X220070808Y-121930204D01*
X220157789Y-121791775D01*
X220211786Y-121637461D01*
X220211787Y-121637455D01*
X220230091Y-121475003D01*
X220230091Y-121474996D01*
X220211787Y-121312544D01*
X220211786Y-121312542D01*
X220211786Y-121312539D01*
X220157789Y-121158225D01*
X220136914Y-121125003D01*
X228494909Y-121125003D01*
X228513212Y-121287455D01*
X228567210Y-121441774D01*
X228654192Y-121580204D01*
X228769796Y-121695808D01*
X228908225Y-121782789D01*
X229062539Y-121836786D01*
X229062542Y-121836786D01*
X229062544Y-121836787D01*
X229224996Y-121855091D01*
X229225000Y-121855091D01*
X229225004Y-121855091D01*
X229387455Y-121836787D01*
X229387456Y-121836786D01*
X229387461Y-121836786D01*
X229541775Y-121782789D01*
X229680204Y-121695808D01*
X229795808Y-121580204D01*
X229882789Y-121441775D01*
X229936786Y-121287461D01*
X229936787Y-121287455D01*
X229955091Y-121125003D01*
X229955091Y-121124996D01*
X229936787Y-120962544D01*
X229936786Y-120962542D01*
X229936786Y-120962539D01*
X229882789Y-120808225D01*
X229804199Y-120683150D01*
X229785199Y-120615916D01*
X229805566Y-120549081D01*
X229821503Y-120529508D01*
X229935808Y-120415204D01*
X230022789Y-120276775D01*
X230076786Y-120122461D01*
X230095091Y-119960000D01*
X230084100Y-119862455D01*
X230076787Y-119797544D01*
X230076786Y-119797542D01*
X230076786Y-119797539D01*
X230022789Y-119643225D01*
X229935808Y-119504796D01*
X229820204Y-119389192D01*
X229750080Y-119345130D01*
X229681774Y-119302210D01*
X229527455Y-119248212D01*
X229365004Y-119229909D01*
X229364996Y-119229909D01*
X229202544Y-119248212D01*
X229048225Y-119302210D01*
X228909795Y-119389192D01*
X228794192Y-119504795D01*
X228707210Y-119643225D01*
X228653212Y-119797544D01*
X228634909Y-119959996D01*
X228634909Y-119960003D01*
X228653212Y-120122455D01*
X228707211Y-120276776D01*
X228785799Y-120401846D01*
X228804800Y-120469083D01*
X228784433Y-120535918D01*
X228768488Y-120555500D01*
X228654191Y-120669797D01*
X228567210Y-120808225D01*
X228513212Y-120962544D01*
X228494909Y-121124996D01*
X228494909Y-121125003D01*
X220136914Y-121125003D01*
X220070808Y-121019796D01*
X219955204Y-120904192D01*
X219816774Y-120817210D01*
X219662455Y-120763212D01*
X219500004Y-120744909D01*
X219499996Y-120744909D01*
X219337544Y-120763212D01*
X219183225Y-120817210D01*
X219044795Y-120904192D01*
X218929192Y-121019795D01*
X218842210Y-121158225D01*
X218788212Y-121312544D01*
X218769909Y-121474996D01*
X218769909Y-121475003D01*
X217725500Y-121475003D01*
X217725500Y-119700003D01*
X225294909Y-119700003D01*
X225313212Y-119862455D01*
X225367210Y-120016774D01*
X225367211Y-120016775D01*
X225454192Y-120155204D01*
X225569796Y-120270808D01*
X225708225Y-120357789D01*
X225862539Y-120411786D01*
X225862542Y-120411786D01*
X225862544Y-120411787D01*
X226024996Y-120430091D01*
X226025000Y-120430091D01*
X226025004Y-120430091D01*
X226187455Y-120411787D01*
X226187456Y-120411786D01*
X226187461Y-120411786D01*
X226341775Y-120357789D01*
X226480204Y-120270808D01*
X226595808Y-120155204D01*
X226682789Y-120016775D01*
X226736786Y-119862461D01*
X226739025Y-119842591D01*
X226755091Y-119700003D01*
X226755091Y-119699996D01*
X226736787Y-119537544D01*
X226736786Y-119537542D01*
X226736786Y-119537539D01*
X226682789Y-119383225D01*
X226595808Y-119244796D01*
X226480204Y-119129192D01*
X226445249Y-119107228D01*
X226341774Y-119042210D01*
X226187455Y-118988212D01*
X226025004Y-118969909D01*
X226024996Y-118969909D01*
X225862544Y-118988212D01*
X225708225Y-119042210D01*
X225569795Y-119129192D01*
X225454192Y-119244795D01*
X225367210Y-119383225D01*
X225313212Y-119537544D01*
X225294909Y-119699996D01*
X225294909Y-119700003D01*
X217725500Y-119700003D01*
X217725500Y-113825003D01*
X218769909Y-113825003D01*
X218788212Y-113987455D01*
X218842210Y-114141774D01*
X218888102Y-114214810D01*
X218929192Y-114280204D01*
X219044796Y-114395808D01*
X219183225Y-114482789D01*
X219337539Y-114536786D01*
X219337542Y-114536786D01*
X219337544Y-114536787D01*
X219499996Y-114555091D01*
X219500000Y-114555091D01*
X219500004Y-114555091D01*
X219662455Y-114536787D01*
X219662456Y-114536786D01*
X219662461Y-114536786D01*
X219816775Y-114482789D01*
X219955204Y-114395808D01*
X220070808Y-114280204D01*
X220157789Y-114141775D01*
X220211786Y-113987461D01*
X220221336Y-113902704D01*
X220230091Y-113825003D01*
X220230091Y-113824996D01*
X220211787Y-113662544D01*
X220211786Y-113662542D01*
X220211786Y-113662539D01*
X220157789Y-113508225D01*
X220070808Y-113369796D01*
X219955204Y-113254192D01*
X219951356Y-113251774D01*
X219816774Y-113167210D01*
X219662455Y-113113212D01*
X219500004Y-113094909D01*
X219499996Y-113094909D01*
X219337544Y-113113212D01*
X219183225Y-113167210D01*
X219044795Y-113254192D01*
X218929192Y-113369795D01*
X218842210Y-113508225D01*
X218788212Y-113662544D01*
X218769909Y-113824996D01*
X218769909Y-113825003D01*
X217725500Y-113825003D01*
X217725500Y-111575003D01*
X225619909Y-111575003D01*
X225638212Y-111737455D01*
X225692210Y-111891774D01*
X225779192Y-112030204D01*
X225894796Y-112145808D01*
X226033225Y-112232789D01*
X226187539Y-112286786D01*
X226187542Y-112286786D01*
X226187544Y-112286787D01*
X226349996Y-112305091D01*
X226350000Y-112305091D01*
X226350004Y-112305091D01*
X226512455Y-112286787D01*
X226512456Y-112286786D01*
X226512461Y-112286786D01*
X226666775Y-112232789D01*
X226805204Y-112145808D01*
X226920808Y-112030204D01*
X227007789Y-111891775D01*
X227061786Y-111737461D01*
X227080091Y-111575000D01*
X227079608Y-111570717D01*
X227061787Y-111412544D01*
X227061786Y-111412542D01*
X227061786Y-111412539D01*
X227007789Y-111258225D01*
X226920808Y-111119796D01*
X226913693Y-111112681D01*
X226880208Y-111051358D01*
X226885192Y-110981666D01*
X226913693Y-110937319D01*
X226945808Y-110905204D01*
X227032789Y-110766775D01*
X227086786Y-110612461D01*
X227086787Y-110612455D01*
X227105091Y-110450003D01*
X227105091Y-110449996D01*
X227086787Y-110287544D01*
X227086786Y-110287542D01*
X227086786Y-110287539D01*
X227032789Y-110133225D01*
X226986780Y-110060003D01*
X227784909Y-110060003D01*
X227803212Y-110222455D01*
X227857210Y-110376774D01*
X227857211Y-110376775D01*
X227944192Y-110515204D01*
X228059796Y-110630808D01*
X228198225Y-110717789D01*
X228352539Y-110771786D01*
X228352542Y-110771786D01*
X228352544Y-110771787D01*
X228514996Y-110790091D01*
X228515000Y-110790091D01*
X228515004Y-110790091D01*
X228677457Y-110771787D01*
X228677459Y-110771786D01*
X228677461Y-110771786D01*
X228831775Y-110717789D01*
X228861527Y-110699093D01*
X228928764Y-110680093D01*
X228993472Y-110699093D01*
X229023225Y-110717789D01*
X229177539Y-110771786D01*
X229177542Y-110771787D01*
X229339996Y-110790091D01*
X229340000Y-110790091D01*
X229340004Y-110790091D01*
X229502455Y-110771787D01*
X229502456Y-110771786D01*
X229502461Y-110771786D01*
X229656775Y-110717789D01*
X229795204Y-110630808D01*
X229910808Y-110515204D01*
X229997789Y-110376775D01*
X230051786Y-110222461D01*
X230051787Y-110222455D01*
X230070091Y-110060003D01*
X230070091Y-110059996D01*
X230051787Y-109897544D01*
X230051786Y-109897542D01*
X230051786Y-109897539D01*
X229997789Y-109743225D01*
X229910808Y-109604796D01*
X229795204Y-109489192D01*
X229752500Y-109462359D01*
X229656774Y-109402210D01*
X229502455Y-109348212D01*
X229340004Y-109329909D01*
X229339996Y-109329909D01*
X229177544Y-109348212D01*
X229023223Y-109402211D01*
X228993470Y-109420906D01*
X228926233Y-109439905D01*
X228861530Y-109420906D01*
X228831776Y-109402211D01*
X228677455Y-109348212D01*
X228515004Y-109329909D01*
X228514996Y-109329909D01*
X228352544Y-109348212D01*
X228198225Y-109402210D01*
X228059795Y-109489192D01*
X227944192Y-109604795D01*
X227857210Y-109743225D01*
X227803212Y-109897544D01*
X227784909Y-110059996D01*
X227784909Y-110060003D01*
X226986780Y-110060003D01*
X226945808Y-109994796D01*
X226830204Y-109879192D01*
X226791377Y-109854795D01*
X226691774Y-109792210D01*
X226557939Y-109745379D01*
X226537461Y-109738214D01*
X226537460Y-109738213D01*
X226537455Y-109738212D01*
X226375004Y-109719909D01*
X226374996Y-109719909D01*
X226212544Y-109738212D01*
X226058225Y-109792210D01*
X225919795Y-109879192D01*
X225804192Y-109994795D01*
X225717210Y-110133225D01*
X225663212Y-110287544D01*
X225644909Y-110449996D01*
X225644909Y-110450003D01*
X225663212Y-110612455D01*
X225717210Y-110766774D01*
X225804192Y-110905204D01*
X225811307Y-110912319D01*
X225844792Y-110973642D01*
X225839808Y-111043334D01*
X225811307Y-111087681D01*
X225779192Y-111119795D01*
X225692210Y-111258225D01*
X225638212Y-111412544D01*
X225619909Y-111574996D01*
X225619909Y-111575003D01*
X217725500Y-111575003D01*
X217725500Y-107350003D01*
X223094909Y-107350003D01*
X223113212Y-107512455D01*
X223113213Y-107512460D01*
X223113214Y-107512461D01*
X223119634Y-107530807D01*
X223167210Y-107666774D01*
X223210080Y-107735000D01*
X223254192Y-107805204D01*
X223369796Y-107920808D01*
X223508225Y-108007789D01*
X223634153Y-108051853D01*
X223690929Y-108092575D01*
X223709399Y-108131414D01*
X223710913Y-108130885D01*
X223712963Y-108136743D01*
X223713086Y-108139169D01*
X223714080Y-108141258D01*
X223714754Y-108144206D01*
X223713360Y-108144524D01*
X223716527Y-108206522D01*
X223683606Y-108265381D01*
X223654192Y-108294794D01*
X223567210Y-108433225D01*
X223513212Y-108587544D01*
X223494909Y-108749996D01*
X223494909Y-108750003D01*
X223513212Y-108912455D01*
X223567210Y-109066774D01*
X223646235Y-109192540D01*
X223654192Y-109205204D01*
X223769796Y-109320808D01*
X223908225Y-109407789D01*
X224062539Y-109461786D01*
X224062542Y-109461786D01*
X224062544Y-109461787D01*
X224224996Y-109480091D01*
X224225000Y-109480091D01*
X224225004Y-109480091D01*
X224387455Y-109461787D01*
X224387456Y-109461786D01*
X224387461Y-109461786D01*
X224541775Y-109407789D01*
X224680204Y-109320808D01*
X224795808Y-109205204D01*
X224795815Y-109205192D01*
X224799806Y-109200189D01*
X224856994Y-109160048D01*
X224926805Y-109157196D01*
X224987076Y-109192540D01*
X225001746Y-109211524D01*
X225029192Y-109255204D01*
X225144796Y-109370808D01*
X225283225Y-109457789D01*
X225437539Y-109511786D01*
X225437542Y-109511786D01*
X225437544Y-109511787D01*
X225599996Y-109530091D01*
X225600000Y-109530091D01*
X225600004Y-109530091D01*
X225762455Y-109511787D01*
X225762456Y-109511786D01*
X225762461Y-109511786D01*
X225916775Y-109457789D01*
X226055204Y-109370808D01*
X226170808Y-109255204D01*
X226257789Y-109116775D01*
X226311786Y-108962461D01*
X226317420Y-108912461D01*
X226330091Y-108800003D01*
X226330091Y-108799996D01*
X226311787Y-108637544D01*
X226311786Y-108637542D01*
X226311786Y-108637539D01*
X226257789Y-108483225D01*
X226170808Y-108344796D01*
X226055204Y-108229192D01*
X225993155Y-108190204D01*
X225916774Y-108142210D01*
X225762455Y-108088212D01*
X225600004Y-108069909D01*
X225599996Y-108069909D01*
X225437544Y-108088212D01*
X225316488Y-108130571D01*
X225246709Y-108134132D01*
X225186082Y-108099403D01*
X225153855Y-108037409D01*
X225152314Y-107999644D01*
X225155091Y-107975000D01*
X225155091Y-107974996D01*
X225136787Y-107812544D01*
X225136786Y-107812542D01*
X225136786Y-107812539D01*
X225082789Y-107658225D01*
X224995808Y-107519796D01*
X224880204Y-107404192D01*
X224793963Y-107350003D01*
X224741774Y-107317210D01*
X224677463Y-107294707D01*
X224615844Y-107273145D01*
X224559070Y-107232425D01*
X224540611Y-107193578D01*
X224539087Y-107194112D01*
X224482790Y-107033227D01*
X224482789Y-107033225D01*
X224395808Y-106894796D01*
X224280204Y-106779192D01*
X224141774Y-106692210D01*
X224007939Y-106645379D01*
X223987461Y-106638214D01*
X223987460Y-106638213D01*
X223987455Y-106638212D01*
X223825004Y-106619909D01*
X223824996Y-106619909D01*
X223662544Y-106638212D01*
X223508225Y-106692210D01*
X223369795Y-106779192D01*
X223254192Y-106894795D01*
X223167210Y-107033225D01*
X223113212Y-107187544D01*
X223094909Y-107349996D01*
X223094909Y-107350003D01*
X217725500Y-107350003D01*
X217725500Y-104870000D01*
X218315138Y-104870000D01*
X218323430Y-104911690D01*
X218323430Y-104911692D01*
X218398807Y-105093671D01*
X218398814Y-105093684D01*
X218508248Y-105257462D01*
X218508251Y-105257466D01*
X218647533Y-105396748D01*
X218647537Y-105396751D01*
X218811315Y-105506185D01*
X218811328Y-105506192D01*
X218993306Y-105581569D01*
X218993318Y-105581572D01*
X219186504Y-105619999D01*
X219186508Y-105620000D01*
X219435000Y-105620000D01*
X219435000Y-104920000D01*
X219935000Y-104920000D01*
X219935000Y-105620000D01*
X220183492Y-105620000D01*
X220183495Y-105619999D01*
X220376681Y-105581572D01*
X220376693Y-105581569D01*
X220558671Y-105506192D01*
X220558684Y-105506185D01*
X220722462Y-105396751D01*
X220722466Y-105396748D01*
X220861748Y-105257466D01*
X220861751Y-105257462D01*
X220971185Y-105093684D01*
X220971192Y-105093671D01*
X221046569Y-104911692D01*
X221046569Y-104911690D01*
X221054862Y-104870000D01*
X222345138Y-104870000D01*
X222353430Y-104911690D01*
X222353430Y-104911692D01*
X222428807Y-105093671D01*
X222428814Y-105093684D01*
X222538248Y-105257462D01*
X222538251Y-105257466D01*
X222677533Y-105396748D01*
X222677537Y-105396751D01*
X222841315Y-105506185D01*
X222841328Y-105506192D01*
X223023306Y-105581569D01*
X223023318Y-105581572D01*
X223216504Y-105619999D01*
X223216508Y-105620000D01*
X223615000Y-105620000D01*
X223615000Y-104920000D01*
X224115000Y-104920000D01*
X224115000Y-105620000D01*
X224513492Y-105620000D01*
X224513495Y-105619999D01*
X224706681Y-105581572D01*
X224706693Y-105581569D01*
X224888671Y-105506192D01*
X224888684Y-105506185D01*
X225052461Y-105396752D01*
X225133645Y-105315568D01*
X225194968Y-105282083D01*
X225264660Y-105287067D01*
X225320594Y-105328938D01*
X225345011Y-105394402D01*
X225338369Y-105444203D01*
X225288212Y-105587544D01*
X225269909Y-105749996D01*
X225269909Y-105750003D01*
X225288212Y-105912455D01*
X225342210Y-106066774D01*
X225422783Y-106195004D01*
X225429192Y-106205204D01*
X225544796Y-106320808D01*
X225683225Y-106407789D01*
X225837539Y-106461786D01*
X225837542Y-106461786D01*
X225837544Y-106461787D01*
X225999996Y-106480091D01*
X226000000Y-106480091D01*
X226000004Y-106480091D01*
X226162455Y-106461787D01*
X226162456Y-106461786D01*
X226162461Y-106461786D01*
X226316775Y-106407789D01*
X226455204Y-106320808D01*
X226527819Y-106248193D01*
X226589142Y-106214708D01*
X226658834Y-106219692D01*
X226714767Y-106261564D01*
X226739184Y-106327028D01*
X226739500Y-106335874D01*
X226739500Y-106476538D01*
X226720494Y-106542510D01*
X226657210Y-106643225D01*
X226603212Y-106797544D01*
X226584909Y-106959996D01*
X226584909Y-106960003D01*
X226603212Y-107122455D01*
X226657210Y-107276774D01*
X226703219Y-107349996D01*
X226744192Y-107415204D01*
X226859796Y-107530808D01*
X226998225Y-107617789D01*
X227152539Y-107671786D01*
X227152542Y-107671786D01*
X227152544Y-107671787D01*
X227314996Y-107690091D01*
X227315000Y-107690091D01*
X227315004Y-107690091D01*
X227477457Y-107671787D01*
X227477459Y-107671786D01*
X227477461Y-107671786D01*
X227631775Y-107617789D01*
X227661527Y-107599093D01*
X227728764Y-107580093D01*
X227793472Y-107599093D01*
X227823225Y-107617789D01*
X227967265Y-107668191D01*
X227977542Y-107671787D01*
X228139996Y-107690091D01*
X228140000Y-107690091D01*
X228140004Y-107690091D01*
X228302455Y-107671787D01*
X228302456Y-107671786D01*
X228302461Y-107671786D01*
X228456775Y-107617789D01*
X228474027Y-107606948D01*
X228541263Y-107587948D01*
X228605972Y-107606948D01*
X228623225Y-107617789D01*
X228777539Y-107671786D01*
X228777542Y-107671786D01*
X228777544Y-107671787D01*
X228939996Y-107690091D01*
X228940000Y-107690091D01*
X228940004Y-107690091D01*
X229102455Y-107671787D01*
X229102456Y-107671786D01*
X229102461Y-107671786D01*
X229256775Y-107617789D01*
X229274027Y-107606948D01*
X229341263Y-107587948D01*
X229405972Y-107606948D01*
X229423225Y-107617789D01*
X229530280Y-107655249D01*
X229587056Y-107695971D01*
X229612546Y-107758408D01*
X229628212Y-107897455D01*
X229628213Y-107897460D01*
X229628214Y-107897461D01*
X229635125Y-107917211D01*
X229682210Y-108051774D01*
X229735600Y-108136743D01*
X229769192Y-108190204D01*
X229884796Y-108305808D01*
X230023225Y-108392789D01*
X230177539Y-108446786D01*
X230209384Y-108450374D01*
X230273796Y-108477439D01*
X230313352Y-108535033D01*
X230319500Y-108573594D01*
X230319500Y-113801093D01*
X230299815Y-113868132D01*
X230283181Y-113888774D01*
X229945587Y-114226367D01*
X229945585Y-114226370D01*
X229869819Y-114357598D01*
X229830600Y-114503969D01*
X229830600Y-118507465D01*
X229869819Y-118653836D01*
X229903663Y-118712455D01*
X229945585Y-118785065D01*
X229945587Y-118785067D01*
X230237067Y-119076547D01*
X230270552Y-119137870D01*
X230272605Y-119150340D01*
X230275414Y-119175261D01*
X230294308Y-119229257D01*
X230329410Y-119329574D01*
X230366871Y-119389192D01*
X230416392Y-119468004D01*
X230531996Y-119583608D01*
X230670425Y-119670589D01*
X230824739Y-119724586D01*
X230824742Y-119724586D01*
X230824744Y-119724587D01*
X230987196Y-119742891D01*
X230987200Y-119742891D01*
X230987204Y-119742891D01*
X231149657Y-119724587D01*
X231149659Y-119724586D01*
X231149661Y-119724586D01*
X231303975Y-119670589D01*
X231340127Y-119647872D01*
X231407363Y-119628872D01*
X231472072Y-119647872D01*
X231508225Y-119670589D01*
X231662542Y-119724587D01*
X231824996Y-119742891D01*
X231825000Y-119742891D01*
X231825004Y-119742891D01*
X231987457Y-119724587D01*
X231987459Y-119724586D01*
X231987461Y-119724586D01*
X232141775Y-119670589D01*
X232141784Y-119670582D01*
X232148052Y-119667566D01*
X232149291Y-119670139D01*
X232204154Y-119654619D01*
X232270995Y-119674968D01*
X232280235Y-119681664D01*
X232282292Y-119683304D01*
X232282296Y-119683308D01*
X232420725Y-119770289D01*
X232575039Y-119824286D01*
X232575042Y-119824286D01*
X232575044Y-119824287D01*
X232737496Y-119842591D01*
X232737500Y-119842591D01*
X232737504Y-119842591D01*
X232899955Y-119824287D01*
X232899956Y-119824286D01*
X232899961Y-119824286D01*
X233054275Y-119770289D01*
X233192704Y-119683308D01*
X233308308Y-119567704D01*
X233395289Y-119429275D01*
X233424733Y-119345128D01*
X233465453Y-119288354D01*
X233527896Y-119262863D01*
X233537461Y-119261786D01*
X233537463Y-119261785D01*
X233537468Y-119261784D01*
X233691772Y-119207790D01*
X233691771Y-119207790D01*
X233691775Y-119207789D01*
X233830204Y-119120808D01*
X233945808Y-119005204D01*
X234032789Y-118866775D01*
X234086786Y-118712461D01*
X234086787Y-118712455D01*
X234105091Y-118550003D01*
X234105091Y-118549996D01*
X234086787Y-118387544D01*
X234086786Y-118387542D01*
X234086786Y-118387539D01*
X234032789Y-118233225D01*
X233945808Y-118094796D01*
X233830204Y-117979192D01*
X233691774Y-117892210D01*
X233537455Y-117838212D01*
X233375004Y-117819909D01*
X233374996Y-117819909D01*
X233212544Y-117838212D01*
X233058225Y-117892210D01*
X232919795Y-117979192D01*
X232804192Y-118094795D01*
X232717209Y-118233227D01*
X232687766Y-118317370D01*
X232647044Y-118374146D01*
X232584616Y-118399634D01*
X232575044Y-118400713D01*
X232575041Y-118400713D01*
X232420719Y-118454712D01*
X232414452Y-118457731D01*
X232413221Y-118455175D01*
X232358241Y-118470679D01*
X232291417Y-118450274D01*
X232282266Y-118443636D01*
X232280207Y-118441994D01*
X232141774Y-118355010D01*
X232041457Y-118319908D01*
X231987461Y-118301014D01*
X231962540Y-118298205D01*
X231898128Y-118271137D01*
X231888747Y-118262667D01*
X231281819Y-117655739D01*
X231248334Y-117594416D01*
X231245500Y-117568058D01*
X231245500Y-117247803D01*
X231265185Y-117180764D01*
X231317989Y-117135009D01*
X231369500Y-117123803D01*
X231510290Y-117123803D01*
X231510314Y-117123800D01*
X231510319Y-117123800D01*
X231588564Y-117108235D01*
X231667863Y-117092463D01*
X231667866Y-117092461D01*
X231667871Y-117092461D01*
X231816281Y-117030988D01*
X231949848Y-116941743D01*
X232063437Y-116828155D01*
X232152684Y-116694590D01*
X232214159Y-116546181D01*
X232245499Y-116388629D01*
X232245500Y-116388621D01*
X232245500Y-116278890D01*
X232245501Y-116238432D01*
X232245500Y-116238427D01*
X232245500Y-116112537D01*
X232245500Y-116108009D01*
X232245498Y-116107996D01*
X232245497Y-116107995D01*
X232245498Y-116107990D01*
X232214160Y-115950436D01*
X232152688Y-115802023D01*
X232063442Y-115668455D01*
X232044990Y-115650003D01*
X233644909Y-115650003D01*
X233663212Y-115812455D01*
X233717210Y-115966774D01*
X233717211Y-115966775D01*
X233804192Y-116105204D01*
X233919796Y-116220808D01*
X234058225Y-116307789D01*
X234212539Y-116361786D01*
X234212542Y-116361786D01*
X234212544Y-116361787D01*
X234374996Y-116380091D01*
X234375000Y-116380091D01*
X234375004Y-116380091D01*
X234537455Y-116361787D01*
X234537456Y-116361786D01*
X234537461Y-116361786D01*
X234691775Y-116307789D01*
X234830204Y-116220808D01*
X234945808Y-116105204D01*
X235032789Y-115966775D01*
X235071526Y-115856070D01*
X235112248Y-115799295D01*
X235177200Y-115773547D01*
X235229520Y-115779983D01*
X235277539Y-115796786D01*
X235277543Y-115796786D01*
X235277545Y-115796787D01*
X235277542Y-115796787D01*
X235439996Y-115815091D01*
X235440000Y-115815091D01*
X235440004Y-115815091D01*
X235602455Y-115796787D01*
X235602456Y-115796786D01*
X235602461Y-115796786D01*
X235756775Y-115742789D01*
X235895204Y-115655808D01*
X236010808Y-115540204D01*
X236097789Y-115401775D01*
X236151786Y-115247461D01*
X236170091Y-115085000D01*
X236161526Y-115008986D01*
X236151787Y-114922544D01*
X236151786Y-114922542D01*
X236151786Y-114922539D01*
X236097789Y-114768225D01*
X236010808Y-114629796D01*
X235895204Y-114514192D01*
X235845222Y-114482786D01*
X235756774Y-114427210D01*
X235602455Y-114373212D01*
X235440004Y-114354909D01*
X235439996Y-114354909D01*
X235277544Y-114373212D01*
X235123225Y-114427210D01*
X234984795Y-114514192D01*
X234869192Y-114629795D01*
X234782211Y-114768224D01*
X234743474Y-114878929D01*
X234702752Y-114935705D01*
X234637799Y-114961452D01*
X234585478Y-114955016D01*
X234537455Y-114938212D01*
X234375004Y-114919909D01*
X234374996Y-114919909D01*
X234212544Y-114938212D01*
X234058225Y-114992210D01*
X233919795Y-115079192D01*
X233804192Y-115194795D01*
X233717210Y-115333225D01*
X233663212Y-115487544D01*
X233644909Y-115649996D01*
X233644909Y-115650003D01*
X232044990Y-115650003D01*
X231949853Y-115554865D01*
X231816286Y-115465617D01*
X231816284Y-115465616D01*
X231816281Y-115465614D01*
X231667874Y-115404142D01*
X231667866Y-115404140D01*
X231510324Y-115372803D01*
X231510320Y-115372803D01*
X231505766Y-115372803D01*
X231369500Y-115372803D01*
X231302461Y-115353118D01*
X231256706Y-115300314D01*
X231245500Y-115248803D01*
X231245500Y-114978787D01*
X231265185Y-114911748D01*
X231281819Y-114891106D01*
X231680511Y-114492414D01*
X231680514Y-114492411D01*
X231686070Y-114482789D01*
X231756281Y-114361180D01*
X231783518Y-114259530D01*
X231795500Y-114214812D01*
X231795500Y-114063279D01*
X231795500Y-112935003D01*
X234334909Y-112935003D01*
X234353212Y-113097455D01*
X234407210Y-113251774D01*
X234428112Y-113285039D01*
X234494192Y-113390204D01*
X234609796Y-113505808D01*
X234748225Y-113592789D01*
X234902539Y-113646786D01*
X234902542Y-113646786D01*
X234902544Y-113646787D01*
X235064996Y-113665091D01*
X235065000Y-113665091D01*
X235065004Y-113665091D01*
X235227457Y-113646787D01*
X235227459Y-113646786D01*
X235227461Y-113646786D01*
X235303542Y-113620163D01*
X235373320Y-113616602D01*
X235433947Y-113651330D01*
X235461537Y-113696250D01*
X235507209Y-113826772D01*
X235594192Y-113965204D01*
X235709796Y-114080808D01*
X235848225Y-114167789D01*
X236002539Y-114221786D01*
X236002542Y-114221786D01*
X236002544Y-114221787D01*
X236164996Y-114240091D01*
X236165000Y-114240091D01*
X236165004Y-114240091D01*
X236327455Y-114221787D01*
X236327456Y-114221786D01*
X236327461Y-114221786D01*
X236481775Y-114167789D01*
X236605010Y-114090354D01*
X236672247Y-114071354D01*
X236736954Y-114090354D01*
X236760722Y-114105288D01*
X236760725Y-114105289D01*
X236915039Y-114159286D01*
X236915042Y-114159286D01*
X236915044Y-114159287D01*
X237077496Y-114177591D01*
X237077500Y-114177591D01*
X237077504Y-114177591D01*
X237239955Y-114159287D01*
X237239956Y-114159286D01*
X237239961Y-114159286D01*
X237394275Y-114105289D01*
X237532704Y-114018308D01*
X237648308Y-113902704D01*
X237735289Y-113764275D01*
X237789286Y-113609961D01*
X237800749Y-113508225D01*
X237807591Y-113447503D01*
X237807591Y-113447496D01*
X237789287Y-113285044D01*
X237789286Y-113285042D01*
X237789286Y-113285039D01*
X237735289Y-113130725D01*
X237648308Y-112992296D01*
X237597181Y-112941169D01*
X237563696Y-112879846D01*
X237568680Y-112810154D01*
X237610552Y-112754221D01*
X237655187Y-112733091D01*
X237697365Y-112722696D01*
X237837240Y-112649283D01*
X237955483Y-112544530D01*
X238045220Y-112414523D01*
X238101237Y-112266818D01*
X238120278Y-112110000D01*
X238101237Y-111953182D01*
X238045220Y-111805477D01*
X237955483Y-111675470D01*
X237837240Y-111570717D01*
X237837238Y-111570716D01*
X237837237Y-111570715D01*
X237697365Y-111497303D01*
X237543986Y-111459500D01*
X237543985Y-111459500D01*
X237386015Y-111459500D01*
X237386014Y-111459500D01*
X237232634Y-111497303D01*
X237092762Y-111570715D01*
X236974516Y-111675471D01*
X236884781Y-111805475D01*
X236884780Y-111805476D01*
X236828762Y-111953181D01*
X236809722Y-112109999D01*
X236809722Y-112110000D01*
X236828762Y-112266818D01*
X236884780Y-112414523D01*
X236884781Y-112414524D01*
X236976890Y-112547968D01*
X236998773Y-112614323D01*
X236981307Y-112681974D01*
X236930040Y-112729444D01*
X236915794Y-112735450D01*
X236915039Y-112735713D01*
X236915039Y-112735714D01*
X236891377Y-112743993D01*
X236760725Y-112789710D01*
X236637488Y-112867146D01*
X236570251Y-112886146D01*
X236505545Y-112867146D01*
X236481778Y-112852212D01*
X236481771Y-112852209D01*
X236327455Y-112798212D01*
X236165004Y-112779909D01*
X236164996Y-112779909D01*
X236002543Y-112798212D01*
X235926456Y-112824836D01*
X235856678Y-112828397D01*
X235796051Y-112793668D01*
X235768461Y-112748748D01*
X235722789Y-112618225D01*
X235635807Y-112479795D01*
X235520204Y-112364192D01*
X235381774Y-112277210D01*
X235227455Y-112223212D01*
X235065004Y-112204909D01*
X235064996Y-112204909D01*
X234902544Y-112223212D01*
X234748225Y-112277210D01*
X234609795Y-112364192D01*
X234494192Y-112479795D01*
X234407210Y-112618225D01*
X234353212Y-112772544D01*
X234334909Y-112934996D01*
X234334909Y-112935003D01*
X231795500Y-112935003D01*
X231795500Y-110167643D01*
X231815185Y-110100604D01*
X231867989Y-110054849D01*
X231937147Y-110044905D01*
X231985470Y-110062649D01*
X232073225Y-110117789D01*
X232227539Y-110171786D01*
X232227542Y-110171786D01*
X232227544Y-110171787D01*
X232389996Y-110190091D01*
X232390000Y-110190091D01*
X232390004Y-110190091D01*
X232552457Y-110171787D01*
X232552459Y-110171786D01*
X232552461Y-110171786D01*
X232706775Y-110117789D01*
X232736527Y-110099093D01*
X232803764Y-110080093D01*
X232868472Y-110099093D01*
X232898225Y-110117789D01*
X232983260Y-110147544D01*
X233052542Y-110171787D01*
X233214996Y-110190091D01*
X233215000Y-110190091D01*
X233215004Y-110190091D01*
X233377455Y-110171787D01*
X233377456Y-110171786D01*
X233377461Y-110171786D01*
X233531775Y-110117789D01*
X233549027Y-110106948D01*
X233616263Y-110087948D01*
X233680972Y-110106948D01*
X233698225Y-110117789D01*
X233852539Y-110171786D01*
X233852542Y-110171786D01*
X233852544Y-110171787D01*
X234014996Y-110190091D01*
X234015000Y-110190091D01*
X234015004Y-110190091D01*
X234177455Y-110171787D01*
X234177456Y-110171786D01*
X234177461Y-110171786D01*
X234331775Y-110117789D01*
X234349027Y-110106948D01*
X234416263Y-110087948D01*
X234480972Y-110106948D01*
X234498225Y-110117789D01*
X234652539Y-110171786D01*
X234652542Y-110171786D01*
X234652544Y-110171787D01*
X234814996Y-110190091D01*
X234815000Y-110190091D01*
X234815004Y-110190091D01*
X234977457Y-110171787D01*
X234977459Y-110171786D01*
X234977461Y-110171786D01*
X235131775Y-110117789D01*
X235161527Y-110099093D01*
X235228764Y-110080093D01*
X235293472Y-110099093D01*
X235323225Y-110117789D01*
X235408260Y-110147544D01*
X235477542Y-110171787D01*
X235639996Y-110190091D01*
X235640000Y-110190091D01*
X235640004Y-110190091D01*
X235802457Y-110171787D01*
X235802459Y-110171786D01*
X235802461Y-110171786D01*
X235956775Y-110117789D01*
X235986527Y-110099093D01*
X236053764Y-110080093D01*
X236118472Y-110099093D01*
X236148225Y-110117789D01*
X236148228Y-110117790D01*
X236207220Y-110138432D01*
X236263997Y-110179153D01*
X236289745Y-110244105D01*
X236289488Y-110269355D01*
X236287439Y-110287544D01*
X236284910Y-110309996D01*
X236284909Y-110310001D01*
X236284909Y-110310003D01*
X236303212Y-110472455D01*
X236357210Y-110626774D01*
X236357211Y-110626775D01*
X236444192Y-110765204D01*
X236559796Y-110880808D01*
X236698225Y-110967789D01*
X236852539Y-111021786D01*
X236852542Y-111021786D01*
X236852544Y-111021787D01*
X237014996Y-111040091D01*
X237015000Y-111040091D01*
X237015004Y-111040091D01*
X237177455Y-111021787D01*
X237177456Y-111021786D01*
X237177461Y-111021786D01*
X237331775Y-110967789D01*
X237470204Y-110880808D01*
X237585808Y-110765204D01*
X237672789Y-110626775D01*
X237726786Y-110472461D01*
X237726787Y-110472455D01*
X237745091Y-110310003D01*
X237745091Y-110309996D01*
X237726787Y-110147544D01*
X237726786Y-110147542D01*
X237726786Y-110147539D01*
X237672789Y-109993225D01*
X237585808Y-109854796D01*
X237470204Y-109739192D01*
X237331775Y-109652211D01*
X237331773Y-109652210D01*
X237272776Y-109631566D01*
X237216000Y-109590844D01*
X237190253Y-109525892D01*
X237190510Y-109500646D01*
X237195091Y-109460000D01*
X237192827Y-109439905D01*
X237176787Y-109297544D01*
X237176786Y-109297542D01*
X237176786Y-109297539D01*
X237122789Y-109143225D01*
X237035808Y-109004796D01*
X236920204Y-108889192D01*
X236864999Y-108854504D01*
X236781774Y-108802210D01*
X236639298Y-108752356D01*
X236627461Y-108748214D01*
X236627460Y-108748213D01*
X236627455Y-108748212D01*
X236465004Y-108729909D01*
X236464996Y-108729909D01*
X236302544Y-108748212D01*
X236148223Y-108802211D01*
X236118470Y-108820906D01*
X236051233Y-108839905D01*
X235986530Y-108820906D01*
X235956776Y-108802211D01*
X235814298Y-108752356D01*
X235802461Y-108748214D01*
X235802460Y-108748213D01*
X235802455Y-108748212D01*
X235640004Y-108729909D01*
X235639996Y-108729909D01*
X235477544Y-108748212D01*
X235323223Y-108802211D01*
X235293470Y-108820906D01*
X235226233Y-108839905D01*
X235161530Y-108820906D01*
X235131776Y-108802211D01*
X234989298Y-108752356D01*
X234977461Y-108748214D01*
X234977460Y-108748213D01*
X234977455Y-108748212D01*
X234815004Y-108729909D01*
X234814996Y-108729909D01*
X234652544Y-108748212D01*
X234498223Y-108802211D01*
X234480968Y-108813053D01*
X234413731Y-108832051D01*
X234349032Y-108813053D01*
X234331776Y-108802211D01*
X234189298Y-108752356D01*
X234177461Y-108748214D01*
X234177460Y-108748213D01*
X234177455Y-108748212D01*
X234015004Y-108729909D01*
X234014996Y-108729909D01*
X233852544Y-108748212D01*
X233698223Y-108802211D01*
X233680968Y-108813053D01*
X233613731Y-108832051D01*
X233549032Y-108813053D01*
X233531776Y-108802211D01*
X233389298Y-108752356D01*
X233377461Y-108748214D01*
X233377460Y-108748213D01*
X233377455Y-108748212D01*
X233215004Y-108729909D01*
X233214996Y-108729909D01*
X233052544Y-108748212D01*
X232898223Y-108802211D01*
X232868470Y-108820906D01*
X232801233Y-108839905D01*
X232736530Y-108820906D01*
X232706776Y-108802211D01*
X232564298Y-108752356D01*
X232552461Y-108748214D01*
X232552460Y-108748213D01*
X232552455Y-108748212D01*
X232390004Y-108729909D01*
X232389996Y-108729909D01*
X232227544Y-108748212D01*
X232073225Y-108802210D01*
X231985472Y-108857350D01*
X231918236Y-108876350D01*
X231851400Y-108855982D01*
X231806186Y-108802715D01*
X231795500Y-108752356D01*
X231795500Y-107791411D01*
X231815185Y-107724372D01*
X231867989Y-107678617D01*
X231905618Y-107668191D01*
X231962454Y-107661787D01*
X231962454Y-107661786D01*
X231962461Y-107661786D01*
X232116775Y-107607789D01*
X232246527Y-107526259D01*
X232313764Y-107507259D01*
X232378472Y-107526259D01*
X232508225Y-107607789D01*
X232662539Y-107661786D01*
X232662542Y-107661786D01*
X232662544Y-107661787D01*
X232824996Y-107680091D01*
X232825000Y-107680091D01*
X232825004Y-107680091D01*
X232987455Y-107661787D01*
X232987456Y-107661786D01*
X232987461Y-107661786D01*
X233141775Y-107607789D01*
X233159027Y-107596948D01*
X233226263Y-107577948D01*
X233290972Y-107596948D01*
X233308225Y-107607789D01*
X233462539Y-107661786D01*
X233462542Y-107661786D01*
X233462544Y-107661787D01*
X233624996Y-107680091D01*
X233625000Y-107680091D01*
X233625004Y-107680091D01*
X233787455Y-107661787D01*
X233787456Y-107661786D01*
X233787461Y-107661786D01*
X233941775Y-107607789D01*
X234080204Y-107520808D01*
X234195808Y-107405204D01*
X234282789Y-107266775D01*
X234302034Y-107211773D01*
X234342754Y-107154997D01*
X234405193Y-107129506D01*
X234562455Y-107111787D01*
X234562456Y-107111786D01*
X234562461Y-107111786D01*
X234716775Y-107057789D01*
X234855204Y-106970808D01*
X234970808Y-106855204D01*
X235057789Y-106716775D01*
X235111786Y-106562461D01*
X235111787Y-106562455D01*
X235130091Y-106400003D01*
X235130091Y-106399996D01*
X235111787Y-106237544D01*
X235111786Y-106237542D01*
X235111786Y-106237539D01*
X235057789Y-106083225D01*
X234970808Y-105944796D01*
X234855204Y-105829192D01*
X234804183Y-105797133D01*
X234716774Y-105742210D01*
X234562455Y-105688212D01*
X234400004Y-105669909D01*
X234399996Y-105669909D01*
X234237544Y-105688212D01*
X234083225Y-105742210D01*
X233944795Y-105829192D01*
X233829192Y-105944795D01*
X233742212Y-106083222D01*
X233742211Y-106083223D01*
X233722964Y-106138229D01*
X233682242Y-106195004D01*
X233619807Y-106220493D01*
X233462544Y-106238212D01*
X233308223Y-106292211D01*
X233290968Y-106303053D01*
X233223731Y-106322051D01*
X233159032Y-106303053D01*
X233141776Y-106292211D01*
X233016039Y-106248214D01*
X232987461Y-106238214D01*
X232987460Y-106238213D01*
X232987455Y-106238212D01*
X232825004Y-106219909D01*
X232824996Y-106219909D01*
X232662544Y-106238212D01*
X232508225Y-106292210D01*
X232378472Y-106373740D01*
X232311235Y-106392740D01*
X232246528Y-106373740D01*
X232116774Y-106292210D01*
X231962455Y-106238212D01*
X231905616Y-106231808D01*
X231841202Y-106204741D01*
X231801647Y-106147146D01*
X231795500Y-106108588D01*
X231795500Y-105669233D01*
X231791710Y-105655090D01*
X231791709Y-105655087D01*
X231756282Y-105522869D01*
X231756281Y-105522865D01*
X231742638Y-105499234D01*
X231680515Y-105391635D01*
X231573365Y-105284485D01*
X231275132Y-104986252D01*
X231241687Y-104925003D01*
X232269909Y-104925003D01*
X232288212Y-105087455D01*
X232342210Y-105241774D01*
X232388578Y-105315568D01*
X232429192Y-105380204D01*
X232544796Y-105495808D01*
X232683225Y-105582789D01*
X232837539Y-105636786D01*
X232837542Y-105636786D01*
X232837544Y-105636787D01*
X232999996Y-105655091D01*
X233000000Y-105655091D01*
X233000004Y-105655091D01*
X233162455Y-105636787D01*
X233162456Y-105636786D01*
X233162461Y-105636786D01*
X233316775Y-105582789D01*
X233455204Y-105495808D01*
X233570808Y-105380204D01*
X233657789Y-105241775D01*
X233711786Y-105087461D01*
X233711787Y-105087455D01*
X233730091Y-104925003D01*
X233730091Y-104924996D01*
X233711787Y-104762544D01*
X233711786Y-104762542D01*
X233711786Y-104762539D01*
X233657789Y-104608225D01*
X233570808Y-104469796D01*
X233455204Y-104354192D01*
X233414012Y-104328309D01*
X233316774Y-104267210D01*
X233162455Y-104213212D01*
X233000004Y-104194909D01*
X232999996Y-104194909D01*
X232837544Y-104213212D01*
X232683225Y-104267210D01*
X232544795Y-104354192D01*
X232429192Y-104469795D01*
X232342210Y-104608225D01*
X232288212Y-104762544D01*
X232269909Y-104924996D01*
X232269909Y-104925003D01*
X231241687Y-104925003D01*
X231241647Y-104924929D01*
X231239594Y-104912465D01*
X231236786Y-104887539D01*
X231236785Y-104887536D01*
X231236784Y-104887531D01*
X231182790Y-104733227D01*
X231177970Y-104725556D01*
X231095808Y-104594796D01*
X230980204Y-104479192D01*
X230912717Y-104436787D01*
X230841774Y-104392210D01*
X230687455Y-104338212D01*
X230525004Y-104319909D01*
X230524996Y-104319909D01*
X230362544Y-104338212D01*
X230208225Y-104392210D01*
X230069795Y-104479192D01*
X229954190Y-104594797D01*
X229944572Y-104610105D01*
X229892236Y-104656395D01*
X229823182Y-104667041D01*
X229759334Y-104638664D01*
X229720964Y-104580273D01*
X229720254Y-104510407D01*
X229722531Y-104503199D01*
X229736786Y-104462461D01*
X229736787Y-104462455D01*
X229755091Y-104300003D01*
X229755091Y-104299996D01*
X229736787Y-104137544D01*
X229736786Y-104137542D01*
X229736786Y-104137539D01*
X229682789Y-103983225D01*
X229595808Y-103844796D01*
X229480204Y-103729192D01*
X229473536Y-103725002D01*
X229341774Y-103642210D01*
X229187455Y-103588212D01*
X229025004Y-103569909D01*
X229024996Y-103569909D01*
X228862544Y-103588212D01*
X228708223Y-103642211D01*
X228690470Y-103653366D01*
X228623233Y-103672365D01*
X228556398Y-103651996D01*
X228511185Y-103598727D01*
X228500500Y-103548371D01*
X228500500Y-103450003D01*
X235094909Y-103450003D01*
X235113212Y-103612455D01*
X235167210Y-103766774D01*
X235243043Y-103887461D01*
X235254192Y-103905204D01*
X235369796Y-104020808D01*
X235508225Y-104107789D01*
X235662539Y-104161786D01*
X235662542Y-104161786D01*
X235662544Y-104161787D01*
X235824996Y-104180091D01*
X235825000Y-104180091D01*
X235825004Y-104180091D01*
X235987455Y-104161787D01*
X235987456Y-104161786D01*
X235987461Y-104161786D01*
X236141775Y-104107789D01*
X236280204Y-104020808D01*
X236395808Y-103905204D01*
X236482789Y-103766775D01*
X236497406Y-103725003D01*
X237919909Y-103725003D01*
X237938212Y-103887455D01*
X237992210Y-104041774D01*
X237992211Y-104041775D01*
X238079192Y-104180204D01*
X238194796Y-104295808D01*
X238333225Y-104382789D01*
X238487539Y-104436786D01*
X238487542Y-104436786D01*
X238487544Y-104436787D01*
X238649996Y-104455091D01*
X238650000Y-104455091D01*
X238650004Y-104455091D01*
X238812455Y-104436787D01*
X238812456Y-104436786D01*
X238812461Y-104436786D01*
X238966775Y-104382789D01*
X239105204Y-104295808D01*
X239220808Y-104180204D01*
X239307789Y-104041775D01*
X239361786Y-103887461D01*
X239366594Y-103844795D01*
X239380091Y-103725002D01*
X239380091Y-103722283D01*
X239380588Y-103720589D01*
X239380871Y-103718080D01*
X239381310Y-103718129D01*
X239399776Y-103655244D01*
X239416408Y-103634603D01*
X239445808Y-103605204D01*
X239532789Y-103466775D01*
X239586786Y-103312461D01*
X239589262Y-103290488D01*
X239605091Y-103150003D01*
X239605091Y-103149996D01*
X239586787Y-102987544D01*
X239586786Y-102987542D01*
X239586786Y-102987539D01*
X239532789Y-102833225D01*
X239445808Y-102694796D01*
X239330204Y-102579192D01*
X239191774Y-102492210D01*
X239037455Y-102438212D01*
X238875004Y-102419909D01*
X238874996Y-102419909D01*
X238712544Y-102438212D01*
X238558225Y-102492210D01*
X238419795Y-102579192D01*
X238304192Y-102694795D01*
X238217210Y-102833225D01*
X238163212Y-102987544D01*
X238144909Y-103149996D01*
X238144909Y-103152715D01*
X238144411Y-103154407D01*
X238144129Y-103156919D01*
X238143689Y-103156869D01*
X238125224Y-103219754D01*
X238108592Y-103240395D01*
X238079192Y-103269794D01*
X237992210Y-103408225D01*
X237938212Y-103562544D01*
X237919909Y-103724996D01*
X237919909Y-103725003D01*
X236497406Y-103725003D01*
X236536786Y-103612461D01*
X236538155Y-103600315D01*
X236555091Y-103450003D01*
X236555091Y-103449996D01*
X236536787Y-103287544D01*
X236536786Y-103287542D01*
X236536786Y-103287539D01*
X236482789Y-103133225D01*
X236395808Y-102994796D01*
X236280204Y-102879192D01*
X236245667Y-102857491D01*
X236141774Y-102792210D01*
X235987455Y-102738212D01*
X235825004Y-102719909D01*
X235824996Y-102719909D01*
X235662544Y-102738212D01*
X235508225Y-102792210D01*
X235369795Y-102879192D01*
X235254192Y-102994795D01*
X235167210Y-103133225D01*
X235113212Y-103287544D01*
X235094909Y-103449996D01*
X235094909Y-103450003D01*
X228500500Y-103450003D01*
X228500500Y-102589742D01*
X228520185Y-102522703D01*
X228536819Y-102502061D01*
X229288884Y-101749996D01*
X230285515Y-100753365D01*
X230361281Y-100622135D01*
X230400500Y-100475766D01*
X230400500Y-100333460D01*
X230419507Y-100267487D01*
X230482786Y-100166779D01*
X230482789Y-100166775D01*
X230536786Y-100012461D01*
X230536786Y-100012459D01*
X230536787Y-100012457D01*
X230555091Y-99850003D01*
X230555091Y-99849996D01*
X230536787Y-99687542D01*
X230533157Y-99677168D01*
X230529595Y-99607389D01*
X230564323Y-99546762D01*
X230609241Y-99519172D01*
X230641775Y-99507789D01*
X230780204Y-99420808D01*
X230851009Y-99350003D01*
X237544909Y-99350003D01*
X237563212Y-99512455D01*
X237617210Y-99666774D01*
X237685215Y-99775003D01*
X237704192Y-99805204D01*
X237819796Y-99920808D01*
X237958225Y-100007789D01*
X237971577Y-100012461D01*
X237991864Y-100019560D01*
X238048640Y-100060282D01*
X238074387Y-100125234D01*
X238067951Y-100177555D01*
X238038212Y-100262544D01*
X238019909Y-100424996D01*
X238019909Y-100425003D01*
X238038212Y-100587455D01*
X238092210Y-100741774D01*
X238179192Y-100880204D01*
X238294796Y-100995808D01*
X238433225Y-101082789D01*
X238587539Y-101136786D01*
X238587542Y-101136786D01*
X238587544Y-101136787D01*
X238749996Y-101155091D01*
X238750000Y-101155091D01*
X238750004Y-101155091D01*
X238912455Y-101136787D01*
X238912456Y-101136786D01*
X238912461Y-101136786D01*
X239066775Y-101082789D01*
X239205204Y-100995808D01*
X239320808Y-100880204D01*
X239407789Y-100741775D01*
X239461786Y-100587461D01*
X239474371Y-100475765D01*
X239480091Y-100425003D01*
X239480091Y-100424996D01*
X239461787Y-100262546D01*
X239461786Y-100262545D01*
X239461786Y-100262539D01*
X239419240Y-100140952D01*
X239415680Y-100071176D01*
X239419237Y-100059058D01*
X239461786Y-99937461D01*
X239463662Y-99920808D01*
X239480091Y-99775003D01*
X239480091Y-99774996D01*
X239461787Y-99612544D01*
X239461786Y-99612542D01*
X239461786Y-99612539D01*
X239407789Y-99458225D01*
X239320808Y-99319796D01*
X239205204Y-99204192D01*
X239133942Y-99159415D01*
X239066777Y-99117212D01*
X239066776Y-99117211D01*
X239002756Y-99094809D01*
X238945980Y-99054086D01*
X238936630Y-99039035D01*
X238936494Y-99039121D01*
X238845807Y-98894795D01*
X238730204Y-98779192D01*
X238591774Y-98692210D01*
X238437455Y-98638212D01*
X238275004Y-98619909D01*
X238274996Y-98619909D01*
X238112544Y-98638212D01*
X237958225Y-98692210D01*
X237819795Y-98779192D01*
X237704192Y-98894795D01*
X237617210Y-99033225D01*
X237563212Y-99187544D01*
X237544909Y-99349996D01*
X237544909Y-99350003D01*
X230851009Y-99350003D01*
X230895808Y-99305204D01*
X230895811Y-99305198D01*
X230900151Y-99299758D01*
X230901488Y-99300824D01*
X230947224Y-99260364D01*
X230986010Y-99249403D01*
X231062452Y-99240790D01*
X231062451Y-99240790D01*
X231062461Y-99240789D01*
X231216775Y-99186792D01*
X231355204Y-99099811D01*
X231470808Y-98984207D01*
X231557789Y-98845778D01*
X231611786Y-98691464D01*
X231618701Y-98630091D01*
X231630091Y-98529006D01*
X231630091Y-98528999D01*
X231611787Y-98366547D01*
X231611786Y-98366545D01*
X231611786Y-98366542D01*
X231577287Y-98267952D01*
X231573725Y-98198178D01*
X231577280Y-98186069D01*
X231611786Y-98087461D01*
X231622824Y-97989500D01*
X231630091Y-97925003D01*
X231630091Y-97924996D01*
X231611787Y-97762544D01*
X231611786Y-97762542D01*
X231611786Y-97762539D01*
X231557789Y-97608225D01*
X231470808Y-97469796D01*
X231355204Y-97354192D01*
X231322606Y-97333709D01*
X231216774Y-97267210D01*
X231062455Y-97213212D01*
X230991421Y-97205209D01*
X230927007Y-97178142D01*
X230900309Y-97147957D01*
X230895808Y-97140793D01*
X230780204Y-97025189D01*
X230641774Y-96938207D01*
X230487455Y-96884209D01*
X230325004Y-96865906D01*
X230324996Y-96865906D01*
X230162544Y-96884209D01*
X230008225Y-96938207D01*
X229869797Y-97025188D01*
X229754190Y-97140794D01*
X229754188Y-97140797D01*
X229751586Y-97144938D01*
X229699247Y-97191225D01*
X229660482Y-97202177D01*
X229562544Y-97213212D01*
X229408225Y-97267210D01*
X229269795Y-97354192D01*
X229154192Y-97469795D01*
X229067210Y-97608225D01*
X229013212Y-97762544D01*
X228994909Y-97924996D01*
X228994909Y-97925003D01*
X229013212Y-98087456D01*
X229042636Y-98171547D01*
X229046197Y-98241326D01*
X229042636Y-98253453D01*
X229013212Y-98337543D01*
X228994909Y-98499996D01*
X228994909Y-98500003D01*
X229013212Y-98662455D01*
X229067210Y-98816774D01*
X229067211Y-98816775D01*
X229154192Y-98955204D01*
X229269796Y-99070808D01*
X229327523Y-99107080D01*
X229373814Y-99159415D01*
X229384462Y-99228468D01*
X229356087Y-99292317D01*
X229349233Y-99299755D01*
X229254191Y-99394797D01*
X229167210Y-99533225D01*
X229113212Y-99687544D01*
X229094909Y-99849996D01*
X229094909Y-99850003D01*
X229113212Y-100012455D01*
X229161471Y-100150373D01*
X229165032Y-100220152D01*
X229132110Y-100279008D01*
X227571635Y-101839485D01*
X227464487Y-101946632D01*
X227464485Y-101946635D01*
X227388719Y-102077863D01*
X227349500Y-102224234D01*
X227349500Y-102623371D01*
X227329815Y-102690410D01*
X227277011Y-102736165D01*
X227207853Y-102746109D01*
X227159530Y-102728366D01*
X227141776Y-102717211D01*
X226987455Y-102663212D01*
X226825004Y-102644909D01*
X226824996Y-102644909D01*
X226662544Y-102663212D01*
X226584743Y-102690436D01*
X226514964Y-102693997D01*
X226454337Y-102659268D01*
X226422110Y-102597274D01*
X226420569Y-102559510D01*
X226430091Y-102475002D01*
X226430091Y-102474996D01*
X226411787Y-102312542D01*
X226411786Y-102312539D01*
X226357789Y-102158225D01*
X226357787Y-102158221D01*
X226356119Y-102153455D01*
X226352556Y-102083676D01*
X226356119Y-102071545D01*
X226357787Y-102066778D01*
X226357789Y-102066775D01*
X226411786Y-101912461D01*
X226411786Y-101912459D01*
X226411787Y-101912457D01*
X226430091Y-101750003D01*
X226430091Y-101749996D01*
X226411787Y-101587544D01*
X226411786Y-101587542D01*
X226411786Y-101587539D01*
X226357789Y-101433225D01*
X226270808Y-101294796D01*
X226155204Y-101179192D01*
X226087717Y-101136787D01*
X226016774Y-101092210D01*
X225862455Y-101038212D01*
X225700004Y-101019909D01*
X225699996Y-101019909D01*
X225537544Y-101038212D01*
X225383225Y-101092210D01*
X225244795Y-101179192D01*
X225129192Y-101294795D01*
X225042210Y-101433225D01*
X224988212Y-101587544D01*
X224969909Y-101749996D01*
X224969909Y-101750003D01*
X224988212Y-101912455D01*
X225043880Y-102071546D01*
X225047441Y-102141325D01*
X225043880Y-102153454D01*
X224988212Y-102312544D01*
X224969909Y-102474996D01*
X224969909Y-102475003D01*
X224988212Y-102637455D01*
X225042210Y-102791774D01*
X225042211Y-102791775D01*
X225129192Y-102930204D01*
X225244796Y-103045808D01*
X225383225Y-103132789D01*
X225537539Y-103186786D01*
X225537542Y-103186786D01*
X225537544Y-103186787D01*
X225699996Y-103205091D01*
X225700000Y-103205091D01*
X225700004Y-103205091D01*
X225862457Y-103186787D01*
X225862459Y-103186786D01*
X225862461Y-103186786D01*
X225940257Y-103159563D01*
X226010033Y-103156001D01*
X226070661Y-103190730D01*
X226102888Y-103252723D01*
X226104430Y-103290488D01*
X226094909Y-103374995D01*
X226094909Y-103375003D01*
X226113212Y-103537455D01*
X226167210Y-103691774D01*
X226193622Y-103733808D01*
X226254192Y-103830204D01*
X226369796Y-103945808D01*
X226508225Y-104032789D01*
X226662539Y-104086786D01*
X226662542Y-104086786D01*
X226662544Y-104086787D01*
X226824996Y-104105091D01*
X226825000Y-104105091D01*
X226825004Y-104105091D01*
X226987455Y-104086787D01*
X226987456Y-104086786D01*
X226987461Y-104086786D01*
X227141775Y-104032789D01*
X227154841Y-104024579D01*
X227159527Y-104021635D01*
X227226763Y-104002634D01*
X227293599Y-104023001D01*
X227338813Y-104076269D01*
X227349500Y-104126628D01*
X227349500Y-105285257D01*
X227329815Y-105352296D01*
X227313181Y-105372938D01*
X226933026Y-105753093D01*
X226871703Y-105786578D01*
X226802011Y-105781594D01*
X226746078Y-105739722D01*
X226722125Y-105679295D01*
X226711787Y-105587544D01*
X226711786Y-105587542D01*
X226711786Y-105587539D01*
X226657789Y-105433225D01*
X226570808Y-105294796D01*
X226455204Y-105179192D01*
X226406153Y-105148371D01*
X226316774Y-105092210D01*
X226162455Y-105038212D01*
X226000004Y-105019909D01*
X225999996Y-105019909D01*
X225837544Y-105038212D01*
X225683225Y-105092210D01*
X225544795Y-105179192D01*
X225509267Y-105214720D01*
X225447944Y-105248205D01*
X225378252Y-105243219D01*
X225322319Y-105201347D01*
X225297903Y-105135883D01*
X225307026Y-105079585D01*
X225376570Y-104911689D01*
X225384862Y-104870000D01*
X224581988Y-104870000D01*
X224599205Y-104860060D01*
X224655060Y-104804205D01*
X224694556Y-104735796D01*
X224715000Y-104659496D01*
X224715000Y-104580504D01*
X224694556Y-104504204D01*
X224655060Y-104435795D01*
X224599205Y-104379940D01*
X224581988Y-104370000D01*
X225384862Y-104370000D01*
X225376569Y-104328309D01*
X225376569Y-104328307D01*
X225301192Y-104146328D01*
X225301185Y-104146315D01*
X225191751Y-103982537D01*
X225191748Y-103982533D01*
X225052466Y-103843251D01*
X225052462Y-103843248D01*
X224888684Y-103733814D01*
X224888671Y-103733807D01*
X224706693Y-103658430D01*
X224706681Y-103658427D01*
X224513495Y-103620000D01*
X224000663Y-103620000D01*
X223933624Y-103600315D01*
X223887869Y-103547511D01*
X223877925Y-103478353D01*
X223893275Y-103434001D01*
X223897747Y-103426253D01*
X223905008Y-103413678D01*
X223944500Y-103266293D01*
X223944500Y-103113707D01*
X223905008Y-102966322D01*
X223884155Y-102930204D01*
X223828717Y-102834182D01*
X223828712Y-102834176D01*
X223720823Y-102726287D01*
X223720817Y-102726282D01*
X223588681Y-102649993D01*
X223588682Y-102649993D01*
X223569708Y-102644909D01*
X223441293Y-102610500D01*
X223288707Y-102610500D01*
X223160292Y-102644909D01*
X223141318Y-102649993D01*
X223009182Y-102726282D01*
X223009176Y-102726287D01*
X222901287Y-102834176D01*
X222901282Y-102834182D01*
X222824993Y-102966318D01*
X222824992Y-102966322D01*
X222785500Y-103113707D01*
X222785500Y-103266293D01*
X222814629Y-103375003D01*
X222824993Y-103413681D01*
X222905349Y-103552860D01*
X222902882Y-103554284D01*
X222923101Y-103606603D01*
X222909054Y-103675046D01*
X222860234Y-103725029D01*
X222846991Y-103731462D01*
X222841326Y-103733808D01*
X222841315Y-103733814D01*
X222677537Y-103843248D01*
X222677533Y-103843251D01*
X222538251Y-103982533D01*
X222538248Y-103982537D01*
X222428814Y-104146315D01*
X222428807Y-104146328D01*
X222353430Y-104328307D01*
X222353430Y-104328309D01*
X222345138Y-104370000D01*
X223148012Y-104370000D01*
X223130795Y-104379940D01*
X223074940Y-104435795D01*
X223035444Y-104504204D01*
X223015000Y-104580504D01*
X223015000Y-104659496D01*
X223035444Y-104735796D01*
X223074940Y-104804205D01*
X223130795Y-104860060D01*
X223148012Y-104870000D01*
X222345138Y-104870000D01*
X221054862Y-104870000D01*
X220251988Y-104870000D01*
X220269205Y-104860060D01*
X220325060Y-104804205D01*
X220364556Y-104735796D01*
X220385000Y-104659496D01*
X220385000Y-104580504D01*
X220364556Y-104504204D01*
X220325060Y-104435795D01*
X220269205Y-104379940D01*
X220251988Y-104370000D01*
X221054862Y-104370000D01*
X221046569Y-104328309D01*
X221046569Y-104328307D01*
X220971192Y-104146328D01*
X220971185Y-104146315D01*
X220861751Y-103982537D01*
X220861748Y-103982533D01*
X220722466Y-103843251D01*
X220722462Y-103843248D01*
X220558684Y-103733814D01*
X220558671Y-103733807D01*
X220376693Y-103658430D01*
X220376681Y-103658427D01*
X220183495Y-103620000D01*
X219935000Y-103620000D01*
X219935000Y-104320000D01*
X219435000Y-104320000D01*
X219435000Y-103620000D01*
X219186504Y-103620000D01*
X218993318Y-103658427D01*
X218993306Y-103658430D01*
X218811328Y-103733807D01*
X218811315Y-103733814D01*
X218647537Y-103843248D01*
X218647533Y-103843251D01*
X218508251Y-103982533D01*
X218508248Y-103982537D01*
X218398814Y-104146315D01*
X218398807Y-104146328D01*
X218323430Y-104328307D01*
X218323430Y-104328309D01*
X218315138Y-104370000D01*
X219118012Y-104370000D01*
X219100795Y-104379940D01*
X219044940Y-104435795D01*
X219005444Y-104504204D01*
X218985000Y-104580504D01*
X218985000Y-104659496D01*
X219005444Y-104735796D01*
X219044940Y-104804205D01*
X219100795Y-104860060D01*
X219118012Y-104870000D01*
X218315138Y-104870000D01*
X217725500Y-104870000D01*
X217725500Y-96230000D01*
X218315138Y-96230000D01*
X218323430Y-96271690D01*
X218323430Y-96271692D01*
X218398807Y-96453671D01*
X218398814Y-96453684D01*
X218508248Y-96617462D01*
X218508251Y-96617466D01*
X218647533Y-96756748D01*
X218647537Y-96756751D01*
X218811315Y-96866185D01*
X218811328Y-96866192D01*
X218993306Y-96941569D01*
X218993318Y-96941572D01*
X219186504Y-96979999D01*
X219186508Y-96980000D01*
X219435000Y-96980000D01*
X219435000Y-96280000D01*
X219935000Y-96280000D01*
X219935000Y-96980000D01*
X220183492Y-96980000D01*
X220183495Y-96979999D01*
X220376681Y-96941572D01*
X220376693Y-96941569D01*
X220558671Y-96866192D01*
X220558684Y-96866185D01*
X220722462Y-96756751D01*
X220722466Y-96756748D01*
X220861748Y-96617466D01*
X220861751Y-96617462D01*
X220971185Y-96453684D01*
X220971192Y-96453671D01*
X221046569Y-96271692D01*
X221046569Y-96271690D01*
X221054862Y-96230000D01*
X222345138Y-96230000D01*
X222353430Y-96271690D01*
X222353430Y-96271692D01*
X222428807Y-96453671D01*
X222428814Y-96453684D01*
X222538248Y-96617462D01*
X222538251Y-96617466D01*
X222677533Y-96756748D01*
X222677537Y-96756751D01*
X222841318Y-96866187D01*
X222841321Y-96866188D01*
X222846983Y-96868534D01*
X222901387Y-96912375D01*
X222923452Y-96978669D01*
X222906173Y-97046368D01*
X222903597Y-97050173D01*
X222824993Y-97186318D01*
X222824992Y-97186322D01*
X222785500Y-97333707D01*
X222785500Y-97486293D01*
X222811473Y-97583225D01*
X222824993Y-97633681D01*
X222901282Y-97765817D01*
X222901284Y-97765819D01*
X222901285Y-97765821D01*
X223009179Y-97873715D01*
X223009180Y-97873716D01*
X223009182Y-97873717D01*
X223141318Y-97950006D01*
X223141319Y-97950006D01*
X223141322Y-97950008D01*
X223288707Y-97989500D01*
X223288710Y-97989500D01*
X223441290Y-97989500D01*
X223441293Y-97989500D01*
X223588678Y-97950008D01*
X223675289Y-97900003D01*
X224694909Y-97900003D01*
X224713212Y-98062455D01*
X224767210Y-98216774D01*
X224773636Y-98227001D01*
X224854192Y-98355204D01*
X224969796Y-98470808D01*
X225108225Y-98557789D01*
X225262539Y-98611786D01*
X225262542Y-98611786D01*
X225262544Y-98611787D01*
X225424996Y-98630091D01*
X225425000Y-98630091D01*
X225425004Y-98630091D01*
X225587455Y-98611787D01*
X225587456Y-98611786D01*
X225587461Y-98611786D01*
X225741775Y-98557789D01*
X225880204Y-98470808D01*
X225995808Y-98355204D01*
X226045006Y-98276905D01*
X226097341Y-98230615D01*
X226166395Y-98219967D01*
X226230243Y-98248342D01*
X226254993Y-98276905D01*
X226304192Y-98355204D01*
X226419796Y-98470808D01*
X226558225Y-98557789D01*
X226712539Y-98611786D01*
X226712542Y-98611786D01*
X226712544Y-98611787D01*
X226874996Y-98630091D01*
X226875000Y-98630091D01*
X226875004Y-98630091D01*
X227037455Y-98611787D01*
X227037456Y-98611786D01*
X227037461Y-98611786D01*
X227191775Y-98557789D01*
X227330204Y-98470808D01*
X227445808Y-98355204D01*
X227532789Y-98216775D01*
X227586786Y-98062461D01*
X227595007Y-97989500D01*
X227605091Y-97900003D01*
X227605091Y-97899996D01*
X227586787Y-97737544D01*
X227586786Y-97737542D01*
X227586786Y-97737539D01*
X227532789Y-97583225D01*
X227445808Y-97444796D01*
X227330204Y-97329192D01*
X227191774Y-97242210D01*
X227037455Y-97188212D01*
X226875004Y-97169909D01*
X226874996Y-97169909D01*
X226712544Y-97188212D01*
X226558225Y-97242210D01*
X226419795Y-97329192D01*
X226304192Y-97444795D01*
X226304190Y-97444798D01*
X226254993Y-97523094D01*
X226202658Y-97569385D01*
X226133605Y-97580032D01*
X226069757Y-97551657D01*
X226045007Y-97523094D01*
X225995809Y-97444798D01*
X225995807Y-97444795D01*
X225880204Y-97329192D01*
X225741774Y-97242210D01*
X225587455Y-97188212D01*
X225425004Y-97169909D01*
X225424996Y-97169909D01*
X225262544Y-97188212D01*
X225108225Y-97242210D01*
X224969795Y-97329192D01*
X224854192Y-97444795D01*
X224767210Y-97583225D01*
X224713212Y-97737544D01*
X224694909Y-97899996D01*
X224694909Y-97900003D01*
X223675289Y-97900003D01*
X223720821Y-97873715D01*
X223828715Y-97765821D01*
X223905008Y-97633678D01*
X223944500Y-97486293D01*
X223944500Y-97333707D01*
X223905008Y-97186322D01*
X223895532Y-97169909D01*
X223893275Y-97165999D01*
X223876803Y-97098099D01*
X223899656Y-97032072D01*
X223954578Y-96988882D01*
X224000663Y-96980000D01*
X224513492Y-96980000D01*
X224513495Y-96979999D01*
X224706681Y-96941572D01*
X224706693Y-96941569D01*
X224888671Y-96866192D01*
X224888684Y-96866185D01*
X225052462Y-96756751D01*
X225052466Y-96756748D01*
X225191748Y-96617466D01*
X225191751Y-96617462D01*
X225236826Y-96550003D01*
X227894909Y-96550003D01*
X227913212Y-96712455D01*
X227967210Y-96866774D01*
X228037519Y-96978669D01*
X228054192Y-97005204D01*
X228169796Y-97120808D01*
X228308225Y-97207789D01*
X228462539Y-97261786D01*
X228462542Y-97261786D01*
X228462544Y-97261787D01*
X228624996Y-97280091D01*
X228625000Y-97280091D01*
X228625004Y-97280091D01*
X228787455Y-97261787D01*
X228787456Y-97261786D01*
X228787461Y-97261786D01*
X228941775Y-97207789D01*
X229080204Y-97120808D01*
X229195808Y-97005204D01*
X229282789Y-96866775D01*
X229336786Y-96712461D01*
X229336787Y-96712455D01*
X229355091Y-96550003D01*
X229355091Y-96549996D01*
X229336787Y-96387544D01*
X229336786Y-96387542D01*
X229336786Y-96387539D01*
X229282789Y-96233225D01*
X229195808Y-96094796D01*
X229080204Y-95979192D01*
X229018633Y-95940504D01*
X228941774Y-95892210D01*
X228787455Y-95838212D01*
X228625004Y-95819909D01*
X228624996Y-95819909D01*
X228462544Y-95838212D01*
X228308225Y-95892210D01*
X228169795Y-95979192D01*
X228054192Y-96094795D01*
X227967210Y-96233225D01*
X227913212Y-96387544D01*
X227894909Y-96549996D01*
X227894909Y-96550003D01*
X225236826Y-96550003D01*
X225301185Y-96453684D01*
X225301192Y-96453671D01*
X225376569Y-96271692D01*
X225376569Y-96271690D01*
X225384862Y-96230000D01*
X224581988Y-96230000D01*
X224599205Y-96220060D01*
X224655060Y-96164205D01*
X224694556Y-96095796D01*
X224715000Y-96019496D01*
X224715000Y-95940504D01*
X224694556Y-95864204D01*
X224655060Y-95795795D01*
X224599205Y-95739940D01*
X224581988Y-95730000D01*
X225384862Y-95730000D01*
X225376569Y-95688309D01*
X225376569Y-95688307D01*
X225301192Y-95506328D01*
X225301185Y-95506315D01*
X225191751Y-95342537D01*
X225191748Y-95342533D01*
X225052466Y-95203251D01*
X225052462Y-95203248D01*
X224888684Y-95093814D01*
X224888671Y-95093807D01*
X224706693Y-95018430D01*
X224706681Y-95018427D01*
X224513495Y-94980000D01*
X224115000Y-94980000D01*
X224115000Y-95680000D01*
X223615000Y-95680000D01*
X223615000Y-94980000D01*
X223216504Y-94980000D01*
X223023318Y-95018427D01*
X223023306Y-95018430D01*
X222841328Y-95093807D01*
X222841315Y-95093814D01*
X222677537Y-95203248D01*
X222677533Y-95203251D01*
X222538251Y-95342533D01*
X222538248Y-95342537D01*
X222428814Y-95506315D01*
X222428807Y-95506328D01*
X222353430Y-95688307D01*
X222353430Y-95688309D01*
X222345138Y-95730000D01*
X223148012Y-95730000D01*
X223130795Y-95739940D01*
X223074940Y-95795795D01*
X223035444Y-95864204D01*
X223015000Y-95940504D01*
X223015000Y-96019496D01*
X223035444Y-96095796D01*
X223074940Y-96164205D01*
X223130795Y-96220060D01*
X223148012Y-96230000D01*
X222345138Y-96230000D01*
X221054862Y-96230000D01*
X220251988Y-96230000D01*
X220269205Y-96220060D01*
X220325060Y-96164205D01*
X220364556Y-96095796D01*
X220385000Y-96019496D01*
X220385000Y-95940504D01*
X220364556Y-95864204D01*
X220325060Y-95795795D01*
X220269205Y-95739940D01*
X220251988Y-95730000D01*
X221054862Y-95730000D01*
X221046569Y-95688309D01*
X221046569Y-95688307D01*
X220971192Y-95506328D01*
X220971185Y-95506315D01*
X220861751Y-95342537D01*
X220861748Y-95342533D01*
X220722466Y-95203251D01*
X220722462Y-95203248D01*
X220558684Y-95093814D01*
X220558671Y-95093807D01*
X220376693Y-95018430D01*
X220376681Y-95018427D01*
X220183495Y-94980000D01*
X219935000Y-94980000D01*
X219935000Y-95680000D01*
X219435000Y-95680000D01*
X219435000Y-94980000D01*
X219186504Y-94980000D01*
X218993318Y-95018427D01*
X218993306Y-95018430D01*
X218811328Y-95093807D01*
X218811315Y-95093814D01*
X218647537Y-95203248D01*
X218647533Y-95203251D01*
X218508251Y-95342533D01*
X218508248Y-95342537D01*
X218398814Y-95506315D01*
X218398807Y-95506328D01*
X218323430Y-95688307D01*
X218323430Y-95688309D01*
X218315138Y-95730000D01*
X219118012Y-95730000D01*
X219100795Y-95739940D01*
X219044940Y-95795795D01*
X219005444Y-95864204D01*
X218985000Y-95940504D01*
X218985000Y-96019496D01*
X219005444Y-96095796D01*
X219044940Y-96164205D01*
X219100795Y-96220060D01*
X219118012Y-96230000D01*
X218315138Y-96230000D01*
X217725500Y-96230000D01*
X217725500Y-94724000D01*
X217745185Y-94656961D01*
X217797989Y-94611206D01*
X217849500Y-94600000D01*
X227075000Y-94600000D01*
X227075000Y-94014771D01*
X227094685Y-93947732D01*
X227147489Y-93901977D01*
X227216647Y-93892033D01*
X227262928Y-93908520D01*
X227375202Y-93976074D01*
X227375206Y-93976075D01*
X227375210Y-93976078D01*
X227695088Y-94124070D01*
X227695092Y-94124070D01*
X227695099Y-94124074D01*
X228029122Y-94236619D01*
X228373355Y-94312391D01*
X228723763Y-94350500D01*
X228723769Y-94350500D01*
X229076231Y-94350500D01*
X229076237Y-94350500D01*
X229426645Y-94312391D01*
X229770878Y-94236619D01*
X230104901Y-94124074D01*
X230104908Y-94124070D01*
X230104911Y-94124070D01*
X230424789Y-93976078D01*
X230424798Y-93976074D01*
X230726818Y-93794354D01*
X231007420Y-93581046D01*
X231263314Y-93338650D01*
X231491501Y-93070008D01*
X231689305Y-92778269D01*
X231744053Y-92675003D01*
X234969909Y-92675003D01*
X234988212Y-92837455D01*
X235042210Y-92991774D01*
X235042211Y-92991775D01*
X235129192Y-93130204D01*
X235244796Y-93245808D01*
X235383225Y-93332789D01*
X235537539Y-93386786D01*
X235537542Y-93386786D01*
X235537544Y-93386787D01*
X235699996Y-93405091D01*
X235700000Y-93405091D01*
X235700004Y-93405091D01*
X235862455Y-93386787D01*
X235862456Y-93386786D01*
X235862461Y-93386786D01*
X236016775Y-93332789D01*
X236155204Y-93245808D01*
X236270808Y-93130204D01*
X236357789Y-92991775D01*
X236411786Y-92837461D01*
X236411787Y-92837455D01*
X236430091Y-92675003D01*
X236430091Y-92674996D01*
X236411787Y-92512544D01*
X236411786Y-92512542D01*
X236411786Y-92512539D01*
X236357789Y-92358225D01*
X236270808Y-92219796D01*
X236155204Y-92104192D01*
X236016774Y-92017210D01*
X235862455Y-91963212D01*
X235700004Y-91944909D01*
X235699996Y-91944909D01*
X235537544Y-91963212D01*
X235383225Y-92017210D01*
X235244795Y-92104192D01*
X235129192Y-92219795D01*
X235042210Y-92358225D01*
X234988212Y-92512544D01*
X234969909Y-92674996D01*
X234969909Y-92675003D01*
X231744053Y-92675003D01*
X231854407Y-92466854D01*
X231984871Y-92139414D01*
X231994651Y-92104192D01*
X232038875Y-91944909D01*
X232079168Y-91799788D01*
X232127587Y-91504438D01*
X232157858Y-91441467D01*
X232217369Y-91404858D01*
X232249954Y-91400500D01*
X239852405Y-91400500D01*
X239890244Y-91400500D01*
X239909630Y-91402025D01*
G37*
%TD.AperFunction*%
%TD*%
M02*
