%TF.GenerationSoftware,KiCad,Pcbnew,8.0.1*%
%TF.CreationDate,2024-04-18T13:31:19+02:00*%
%TF.ProjectId,ESP32S3_M.2_Board,45535033-3253-4335-9f4d-2e325f426f61,rev?*%
%TF.SameCoordinates,Original*%
%TF.FileFunction,Legend,Bot*%
%TF.FilePolarity,Positive*%
%FSLAX46Y46*%
G04 Gerber Fmt 4.6, Leading zero omitted, Abs format (unit mm)*
G04 Created by KiCad (PCBNEW 8.0.1) date 2024-04-18 13:31:19*
%MOMM*%
%LPD*%
G01*
G04 APERTURE LIST*
%ADD10C,0.150000*%
%ADD11C,0.100000*%
%ADD12C,0.200000*%
%ADD13C,0.120000*%
G04 APERTURE END LIST*
D10*
X239300000Y-92275000D02*
X239300000Y-105525000D01*
X233500000Y-105500000D01*
X233500000Y-101000000D01*
X231250000Y-101000000D01*
X231250000Y-99250000D01*
X229250000Y-99250000D01*
X229250000Y-95250000D01*
X233500000Y-95250000D01*
X233500000Y-92250000D01*
X239300000Y-92275000D01*
X217450000Y-94950000D02*
X225525000Y-94950000D01*
X225525000Y-105650000D01*
X217450000Y-105650000D01*
X217450000Y-94950000D01*
D11*
X232475000Y-126100000D02*
X233575000Y-126100000D01*
X233975000Y-126100000D02*
X235075000Y-126100000D01*
X235475000Y-126100000D02*
X236575000Y-126100000D01*
X236875000Y-126100000D02*
X237745960Y-126771884D01*
X237750000Y-126775000D02*
X238200000Y-126775000D01*
X238200000Y-126775000D02*
X238200000Y-127875000D01*
X238200000Y-128275000D02*
X238200000Y-129175000D01*
X238200000Y-129175000D02*
X237100000Y-129175000D01*
X237100000Y-129175000D02*
X237100000Y-128200000D01*
X237100000Y-128200000D02*
X237000000Y-128075000D01*
X237000000Y-128075000D02*
X235900000Y-128075000D01*
X235500000Y-128075000D02*
X234400000Y-128075000D01*
X234000000Y-128075000D02*
X232900000Y-128075000D01*
X232500000Y-128075000D02*
X232475000Y-128075000D01*
X232475000Y-128075000D02*
X232475000Y-126975000D01*
X232475000Y-126575000D02*
X232475000Y-126100000D01*
G36*
X234004887Y-127822087D02*
G01*
X233840697Y-127824610D01*
X233800236Y-127806646D01*
X233780486Y-127789269D01*
X233758376Y-127749691D01*
X233756120Y-127687528D01*
X233773370Y-127648675D01*
X233789754Y-127630053D01*
X233851454Y-127607075D01*
X233851502Y-127607085D01*
X234003549Y-127604444D01*
X234004887Y-127822087D01*
G37*
G36*
X234002956Y-127507928D02*
G01*
X233869108Y-127510252D01*
X233828806Y-127492359D01*
X233809057Y-127474983D01*
X233786838Y-127435209D01*
X233785123Y-127400844D01*
X233801942Y-127362960D01*
X233819317Y-127343212D01*
X233858636Y-127321247D01*
X234001793Y-127318760D01*
X234002956Y-127507928D01*
G37*
G36*
X234527630Y-127650775D02*
G01*
X234375587Y-127652673D01*
X234450445Y-127423649D01*
X234527630Y-127650775D01*
G37*
G36*
X234176316Y-126856121D02*
G01*
X234012126Y-126858644D01*
X233971665Y-126840680D01*
X233951915Y-126823303D01*
X233929805Y-126783725D01*
X233927549Y-126721562D01*
X233944799Y-126682709D01*
X233961183Y-126664087D01*
X234022883Y-126641109D01*
X234022931Y-126641119D01*
X234174978Y-126638478D01*
X234176316Y-126856121D01*
G37*
G36*
X234174385Y-126541962D02*
G01*
X234040537Y-126544286D01*
X234000235Y-126526393D01*
X233980486Y-126509017D01*
X233958267Y-126469243D01*
X233956552Y-126434878D01*
X233973371Y-126396994D01*
X233990746Y-126377246D01*
X234030065Y-126355281D01*
X234173222Y-126352794D01*
X234174385Y-126541962D01*
G37*
G36*
X236853884Y-127988038D02*
G01*
X232563408Y-127988038D01*
X232563408Y-127890505D01*
X232633880Y-127890505D01*
X232660940Y-127917565D01*
X232680074Y-127921371D01*
X232984922Y-127917565D01*
X233011982Y-127890505D01*
X233119594Y-127890505D01*
X233146654Y-127917565D01*
X233165788Y-127921371D01*
X233470636Y-127917565D01*
X233497696Y-127890505D01*
X233501502Y-127871371D01*
X233500273Y-127671371D01*
X233658645Y-127671371D01*
X233661579Y-127752204D01*
X233658771Y-127760630D01*
X233662360Y-127773738D01*
X233662451Y-127776219D01*
X233663262Y-127777030D01*
X233663924Y-127779446D01*
X233691023Y-127827953D01*
X233691023Y-127833362D01*
X233701861Y-127849583D01*
X233704309Y-127851737D01*
X233704457Y-127852001D01*
X233704702Y-127852082D01*
X233726617Y-127871364D01*
X233728016Y-127875560D01*
X233743428Y-127887522D01*
X233746563Y-127888913D01*
X233746653Y-127888993D01*
X233746741Y-127888993D01*
X233797967Y-127911735D01*
X233803797Y-127917565D01*
X233817024Y-127920196D01*
X233819387Y-127921245D01*
X233820474Y-127920882D01*
X233822931Y-127921371D01*
X234070636Y-127917565D01*
X234097696Y-127890505D01*
X234100797Y-127874915D01*
X234201629Y-127874915D01*
X234218743Y-127909144D01*
X234255047Y-127921245D01*
X234289276Y-127904131D01*
X234298937Y-127887182D01*
X234343938Y-127749501D01*
X234560263Y-127746800D01*
X234613730Y-127904131D01*
X234647959Y-127921246D01*
X234684263Y-127909144D01*
X234701377Y-127874916D01*
X234698937Y-127855560D01*
X234640554Y-127683762D01*
X234640554Y-127680808D01*
X234639033Y-127679287D01*
X234500409Y-127271371D01*
X234801502Y-127271371D01*
X234805116Y-127859367D01*
X234801901Y-127865065D01*
X234805226Y-127877259D01*
X234805308Y-127890505D01*
X234810162Y-127895359D01*
X234811970Y-127901986D01*
X234823214Y-127908411D01*
X234832368Y-127917565D01*
X234839234Y-127917565D01*
X234845196Y-127920972D01*
X234857689Y-127917565D01*
X234870636Y-127917565D01*
X234875490Y-127912710D01*
X234882117Y-127910903D01*
X234894914Y-127896178D01*
X235145470Y-127452197D01*
X235148165Y-127890505D01*
X235175225Y-127917565D01*
X235213493Y-127917565D01*
X235240553Y-127890505D01*
X235405308Y-127890505D01*
X235432368Y-127917565D01*
X235451502Y-127921371D01*
X235756350Y-127917565D01*
X235783410Y-127890505D01*
X235787216Y-127871371D01*
X235783410Y-127252237D01*
X235756350Y-127225177D01*
X235737216Y-127221371D01*
X235432368Y-127225177D01*
X235405308Y-127252237D01*
X235405308Y-127290505D01*
X235432368Y-127317565D01*
X235451502Y-127321371D01*
X235687505Y-127318424D01*
X235688670Y-127507928D01*
X235518082Y-127510891D01*
X235491022Y-127537951D01*
X235491022Y-127576219D01*
X235518082Y-127603279D01*
X235537216Y-127607085D01*
X235689263Y-127604444D01*
X235690600Y-127821952D01*
X235432368Y-127825177D01*
X235405308Y-127852237D01*
X235405308Y-127890505D01*
X235240553Y-127890505D01*
X235244359Y-127871371D01*
X235240744Y-127283373D01*
X235243960Y-127277676D01*
X235240634Y-127265482D01*
X235240553Y-127252237D01*
X235235698Y-127247382D01*
X235233891Y-127240756D01*
X235222646Y-127234330D01*
X235213493Y-127225177D01*
X235206627Y-127225177D01*
X235200665Y-127221770D01*
X235188173Y-127225177D01*
X235175225Y-127225177D01*
X235170369Y-127230032D01*
X235163745Y-127231839D01*
X235150947Y-127246564D01*
X234900390Y-127690544D01*
X234897696Y-127252237D01*
X234870636Y-127225177D01*
X234832368Y-127225177D01*
X234805308Y-127252237D01*
X234801502Y-127271371D01*
X234500409Y-127271371D01*
X234500311Y-127271084D01*
X234501377Y-127267826D01*
X234494594Y-127254260D01*
X234489276Y-127238611D01*
X234485934Y-127236940D01*
X234484263Y-127233598D01*
X234469220Y-127228583D01*
X234455047Y-127221497D01*
X234451504Y-127222677D01*
X234447959Y-127221496D01*
X234433779Y-127228585D01*
X234418743Y-127233598D01*
X234417072Y-127236939D01*
X234413730Y-127238611D01*
X234404069Y-127255559D01*
X234266347Y-127676912D01*
X234262452Y-127680808D01*
X234262452Y-127688829D01*
X234201629Y-127874915D01*
X234100797Y-127874915D01*
X234101502Y-127871371D01*
X234097696Y-127252237D01*
X234070636Y-127225177D01*
X234051502Y-127221371D01*
X233857679Y-127224737D01*
X233847958Y-127221497D01*
X233834666Y-127225137D01*
X233832368Y-127225177D01*
X233831556Y-127225988D01*
X233829142Y-127226650D01*
X233780635Y-127253748D01*
X233775226Y-127253748D01*
X233759005Y-127264587D01*
X233756852Y-127267033D01*
X233756587Y-127267182D01*
X233756504Y-127267428D01*
X233737224Y-127289342D01*
X233733028Y-127290741D01*
X233721067Y-127306153D01*
X233719675Y-127309287D01*
X233719594Y-127309380D01*
X233719594Y-127309470D01*
X233696852Y-127360693D01*
X233691023Y-127366523D01*
X233688391Y-127379750D01*
X233687343Y-127382113D01*
X233687705Y-127383200D01*
X233687217Y-127385657D01*
X233689867Y-127438771D01*
X233687343Y-127446345D01*
X233690891Y-127459303D01*
X233691023Y-127461934D01*
X233691834Y-127462745D01*
X233692496Y-127465161D01*
X233719594Y-127513667D01*
X233719594Y-127519076D01*
X233730433Y-127535297D01*
X233732879Y-127537449D01*
X233733028Y-127537715D01*
X233733274Y-127537797D01*
X233740125Y-127543824D01*
X233735338Y-127547023D01*
X233733028Y-127547884D01*
X233732514Y-127548910D01*
X233730432Y-127550302D01*
X233708652Y-127575056D01*
X233704457Y-127576455D01*
X233692496Y-127591867D01*
X233691104Y-127595001D01*
X233691023Y-127595094D01*
X233691023Y-127595184D01*
X233668280Y-127646407D01*
X233662451Y-127652237D01*
X233659820Y-127665462D01*
X233658771Y-127667826D01*
X233659133Y-127668914D01*
X233658645Y-127671371D01*
X233500273Y-127671371D01*
X233497696Y-127252237D01*
X233470636Y-127225177D01*
X233432368Y-127225177D01*
X233405308Y-127252237D01*
X233401502Y-127271371D01*
X233404886Y-127821952D01*
X233146654Y-127825177D01*
X233119594Y-127852237D01*
X233119594Y-127890505D01*
X233011982Y-127890505D01*
X233015788Y-127871371D01*
X233011982Y-127252237D01*
X232984922Y-127225177D01*
X232965788Y-127221371D01*
X232660940Y-127225177D01*
X232633880Y-127252237D01*
X232633880Y-127290505D01*
X232660940Y-127317565D01*
X232680074Y-127321371D01*
X232916077Y-127318424D01*
X232917242Y-127507928D01*
X232746654Y-127510891D01*
X232719594Y-127537951D01*
X232719594Y-127576219D01*
X232746654Y-127603279D01*
X232765788Y-127607085D01*
X232917835Y-127604444D01*
X232919172Y-127821952D01*
X232660940Y-127825177D01*
X232633880Y-127852237D01*
X232633880Y-127890505D01*
X232563408Y-127890505D01*
X232563408Y-126733976D01*
X232630075Y-126733976D01*
X232632725Y-126787090D01*
X232630201Y-126794663D01*
X232633749Y-126807623D01*
X232633881Y-126810253D01*
X232634691Y-126811063D01*
X232635353Y-126813479D01*
X232662452Y-126861987D01*
X232662452Y-126867396D01*
X232673291Y-126883617D01*
X232675737Y-126885769D01*
X232675886Y-126886035D01*
X232676132Y-126886117D01*
X232698046Y-126905397D01*
X232699445Y-126909594D01*
X232714857Y-126921555D01*
X232717991Y-126922946D01*
X232718084Y-126923028D01*
X232718175Y-126923028D01*
X232769396Y-126945769D01*
X232775226Y-126951599D01*
X232788453Y-126954230D01*
X232790816Y-126955279D01*
X232791903Y-126954916D01*
X232794360Y-126955405D01*
X232927661Y-126952273D01*
X232933674Y-126955279D01*
X232953029Y-126952839D01*
X233055691Y-126914607D01*
X233072806Y-126880379D01*
X233060705Y-126844074D01*
X233026476Y-126826960D01*
X233007120Y-126829400D01*
X232937265Y-126855414D01*
X232937218Y-126855405D01*
X232811484Y-126858359D01*
X232771664Y-126840679D01*
X232751917Y-126823305D01*
X232729696Y-126783529D01*
X232727981Y-126749162D01*
X232744799Y-126711281D01*
X232762175Y-126691532D01*
X232803702Y-126668333D01*
X232806487Y-126668198D01*
X232908333Y-126639707D01*
X232912190Y-126640993D01*
X232931006Y-126635841D01*
X232979515Y-126608742D01*
X232984924Y-126608742D01*
X233001145Y-126597903D01*
X233003298Y-126595455D01*
X233003562Y-126595308D01*
X233003643Y-126595062D01*
X233022925Y-126573147D01*
X233027120Y-126571749D01*
X233039081Y-126556337D01*
X233040472Y-126553202D01*
X233040554Y-126553110D01*
X233040553Y-126553019D01*
X233063296Y-126501797D01*
X233069126Y-126495968D01*
X233071756Y-126482742D01*
X233072806Y-126480379D01*
X233072443Y-126479290D01*
X233072932Y-126476834D01*
X233070281Y-126423719D01*
X233072806Y-126416146D01*
X233069257Y-126403187D01*
X233069126Y-126400557D01*
X233068314Y-126399745D01*
X233067653Y-126397330D01*
X233040553Y-126348821D01*
X233040554Y-126343414D01*
X233029716Y-126327193D01*
X233027267Y-126325038D01*
X233027120Y-126324775D01*
X233026875Y-126324693D01*
X233004960Y-126305411D01*
X233004958Y-126305405D01*
X233230074Y-126305405D01*
X233233683Y-126784212D01*
X233230200Y-126794664D01*
X233233863Y-126808040D01*
X233233880Y-126810253D01*
X233234691Y-126811064D01*
X233235353Y-126813480D01*
X233262452Y-126861987D01*
X233262452Y-126867396D01*
X233273290Y-126883617D01*
X233275738Y-126885771D01*
X233275886Y-126886035D01*
X233276131Y-126886116D01*
X233298046Y-126905398D01*
X233299445Y-126909594D01*
X233314857Y-126921556D01*
X233317992Y-126922947D01*
X233318082Y-126923027D01*
X233318170Y-126923027D01*
X233369396Y-126945769D01*
X233375226Y-126951599D01*
X233388453Y-126954230D01*
X233390816Y-126955279D01*
X233391903Y-126954916D01*
X233394360Y-126955405D01*
X233503249Y-126952298D01*
X233512190Y-126955279D01*
X233525379Y-126951667D01*
X233527780Y-126951599D01*
X233528590Y-126950788D01*
X233531006Y-126950127D01*
X233579515Y-126923028D01*
X233584924Y-126923028D01*
X233601145Y-126912189D01*
X233603298Y-126909741D01*
X233603562Y-126909594D01*
X233603643Y-126909348D01*
X233622926Y-126887431D01*
X233627120Y-126886034D01*
X233639082Y-126870622D01*
X233640473Y-126867487D01*
X233640554Y-126867396D01*
X233640553Y-126867306D01*
X233663295Y-126816082D01*
X233669125Y-126810253D01*
X233671756Y-126797025D01*
X233672805Y-126794663D01*
X233672442Y-126793575D01*
X233672931Y-126791119D01*
X233672285Y-126705405D01*
X233830074Y-126705405D01*
X233833008Y-126786238D01*
X233830200Y-126794664D01*
X233833789Y-126807772D01*
X233833880Y-126810253D01*
X233834691Y-126811064D01*
X233835353Y-126813480D01*
X233862452Y-126861987D01*
X233862452Y-126867396D01*
X233873290Y-126883617D01*
X233875738Y-126885771D01*
X233875886Y-126886035D01*
X233876131Y-126886116D01*
X233898046Y-126905398D01*
X233899445Y-126909594D01*
X233914857Y-126921556D01*
X233917992Y-126922947D01*
X233918082Y-126923027D01*
X233918170Y-126923027D01*
X233969396Y-126945769D01*
X233975226Y-126951599D01*
X233988453Y-126954230D01*
X233990816Y-126955279D01*
X233991903Y-126954916D01*
X233994360Y-126955405D01*
X234242065Y-126951599D01*
X234269125Y-126924539D01*
X234272931Y-126905405D01*
X234269221Y-126301861D01*
X234373058Y-126301861D01*
X234375498Y-126321216D01*
X234574123Y-126905690D01*
X234573058Y-126908949D01*
X234579840Y-126922513D01*
X234585159Y-126938165D01*
X234588501Y-126939836D01*
X234590172Y-126943178D01*
X234605208Y-126948190D01*
X234619388Y-126955280D01*
X234622933Y-126954098D01*
X234626476Y-126955279D01*
X234640649Y-126948192D01*
X234655692Y-126943178D01*
X234657363Y-126939835D01*
X234660705Y-126938165D01*
X234670366Y-126921216D01*
X234834292Y-126419691D01*
X235401504Y-126419691D01*
X235403947Y-126468655D01*
X235401630Y-126473290D01*
X235404070Y-126492645D01*
X235433881Y-126572694D01*
X235433881Y-126581682D01*
X235441441Y-126592996D01*
X235442302Y-126595307D01*
X235443328Y-126595820D01*
X235444720Y-126597903D01*
X235707284Y-126856531D01*
X235432370Y-126859211D01*
X235405310Y-126886271D01*
X235405310Y-126924539D01*
X235432370Y-126951599D01*
X235451504Y-126955405D01*
X235842066Y-126951599D01*
X235869126Y-126924539D01*
X235869126Y-126895969D01*
X235976738Y-126895969D01*
X235976740Y-126895971D01*
X235987577Y-126912189D01*
X236032368Y-126951599D01*
X236032369Y-126951599D01*
X236070637Y-126951599D01*
X236086858Y-126940761D01*
X236126268Y-126895969D01*
X236126269Y-126895968D01*
X236126269Y-126857700D01*
X236115430Y-126841479D01*
X236070637Y-126802068D01*
X236032369Y-126802068D01*
X236032368Y-126802069D01*
X236016147Y-126812907D01*
X235976738Y-126857700D01*
X235976738Y-126895969D01*
X235869126Y-126895969D01*
X235869126Y-126886271D01*
X235869125Y-126886270D01*
X235858287Y-126870050D01*
X235526034Y-126542777D01*
X235501494Y-126476881D01*
X235501504Y-126476834D01*
X235499410Y-126434878D01*
X235516229Y-126396994D01*
X235533604Y-126377246D01*
X235573005Y-126355235D01*
X235691522Y-126352450D01*
X235731341Y-126370129D01*
X235775227Y-126408742D01*
X235813495Y-126408742D01*
X235840555Y-126381682D01*
X235840555Y-126343414D01*
X235829716Y-126327193D01*
X235804960Y-126305412D01*
X235804958Y-126305405D01*
X236287217Y-126305405D01*
X236291023Y-126924539D01*
X236318083Y-126951599D01*
X236356351Y-126951599D01*
X236383411Y-126924539D01*
X236387217Y-126905405D01*
X236384858Y-126521774D01*
X236495084Y-126753284D01*
X236500343Y-126767745D01*
X236502434Y-126768720D01*
X236503448Y-126770850D01*
X236519520Y-126776694D01*
X236535021Y-126783928D01*
X236537217Y-126783129D01*
X236539413Y-126783928D01*
X236554913Y-126776694D01*
X236570986Y-126770850D01*
X236572833Y-126768331D01*
X236574091Y-126767745D01*
X236574903Y-126765509D01*
X236582526Y-126755120D01*
X236688556Y-126523250D01*
X236691023Y-126924539D01*
X236718083Y-126951599D01*
X236756351Y-126951599D01*
X236783411Y-126924539D01*
X236787217Y-126905405D01*
X236783590Y-126315427D01*
X236787169Y-126307601D01*
X236783479Y-126297455D01*
X236783411Y-126286271D01*
X236777128Y-126279988D01*
X236774091Y-126271636D01*
X236764125Y-126266985D01*
X236756351Y-126259211D01*
X236747466Y-126259211D01*
X236739413Y-126255453D01*
X236729078Y-126259211D01*
X236718083Y-126259211D01*
X236711800Y-126265493D01*
X236703448Y-126268531D01*
X236691908Y-126284261D01*
X236538354Y-126620056D01*
X236383463Y-126294736D01*
X236383411Y-126286271D01*
X236375816Y-126278676D01*
X236370986Y-126268531D01*
X236362633Y-126265493D01*
X236356351Y-126259211D01*
X236345356Y-126259211D01*
X236335021Y-126255453D01*
X236326968Y-126259211D01*
X236318083Y-126259211D01*
X236310308Y-126266985D01*
X236300343Y-126271636D01*
X236297305Y-126279988D01*
X236291023Y-126286271D01*
X236287217Y-126305405D01*
X235804958Y-126305405D01*
X235803562Y-126301216D01*
X235788150Y-126289255D01*
X235785015Y-126287863D01*
X235784923Y-126287782D01*
X235784832Y-126287782D01*
X235733610Y-126265040D01*
X235727781Y-126259211D01*
X235714555Y-126256580D01*
X235712192Y-126255531D01*
X235711103Y-126255893D01*
X235708647Y-126255405D01*
X235571531Y-126258626D01*
X235562245Y-126255531D01*
X235549009Y-126259155D01*
X235546655Y-126259211D01*
X235545843Y-126260022D01*
X235543429Y-126260684D01*
X235494922Y-126287782D01*
X235489513Y-126287782D01*
X235473292Y-126298621D01*
X235471139Y-126301067D01*
X235470874Y-126301216D01*
X235470791Y-126301462D01*
X235451511Y-126323376D01*
X235447315Y-126324775D01*
X235435354Y-126340187D01*
X235433962Y-126343321D01*
X235433881Y-126343414D01*
X235433881Y-126343504D01*
X235411139Y-126394727D01*
X235405310Y-126400557D01*
X235402678Y-126413784D01*
X235401630Y-126416147D01*
X235401992Y-126417234D01*
X235401504Y-126419691D01*
X234834292Y-126419691D01*
X234872806Y-126301860D01*
X234855692Y-126267632D01*
X234819388Y-126255530D01*
X234785159Y-126272645D01*
X234775498Y-126289593D01*
X234623989Y-126753126D01*
X234460705Y-126272645D01*
X234426476Y-126255531D01*
X234390172Y-126267632D01*
X234373058Y-126301861D01*
X234269221Y-126301861D01*
X234269125Y-126286271D01*
X234242065Y-126259211D01*
X234222931Y-126255405D01*
X234029108Y-126258771D01*
X234019387Y-126255531D01*
X234006095Y-126259171D01*
X234003797Y-126259211D01*
X234002985Y-126260022D01*
X234000571Y-126260684D01*
X233952064Y-126287782D01*
X233946655Y-126287782D01*
X233930434Y-126298621D01*
X233928281Y-126301067D01*
X233928016Y-126301216D01*
X233927933Y-126301462D01*
X233908653Y-126323376D01*
X233904457Y-126324775D01*
X233892496Y-126340187D01*
X233891104Y-126343321D01*
X233891023Y-126343414D01*
X233891023Y-126343504D01*
X233868281Y-126394727D01*
X233862452Y-126400557D01*
X233859820Y-126413784D01*
X233858772Y-126416147D01*
X233859134Y-126417234D01*
X233858646Y-126419691D01*
X233861296Y-126472805D01*
X233858772Y-126480379D01*
X233862320Y-126493337D01*
X233862452Y-126495968D01*
X233863263Y-126496779D01*
X233863925Y-126499195D01*
X233891023Y-126547701D01*
X233891023Y-126553110D01*
X233901862Y-126569331D01*
X233904308Y-126571483D01*
X233904457Y-126571749D01*
X233904703Y-126571831D01*
X233911554Y-126577858D01*
X233906767Y-126581057D01*
X233904457Y-126581918D01*
X233903943Y-126582944D01*
X233901861Y-126584336D01*
X233880081Y-126609090D01*
X233875886Y-126610489D01*
X233863925Y-126625901D01*
X233862533Y-126629035D01*
X233862452Y-126629128D01*
X233862452Y-126629218D01*
X233839709Y-126680441D01*
X233833880Y-126686271D01*
X233831249Y-126699496D01*
X233830200Y-126701860D01*
X233830562Y-126702948D01*
X233830074Y-126705405D01*
X233672285Y-126705405D01*
X233669125Y-126286271D01*
X233642065Y-126259211D01*
X233603797Y-126259211D01*
X233576737Y-126286271D01*
X233572931Y-126305405D01*
X233576453Y-126772713D01*
X233558206Y-126813812D01*
X233540829Y-126833563D01*
X233501362Y-126855612D01*
X233411098Y-126858187D01*
X233371665Y-126840680D01*
X233351915Y-126823303D01*
X233330021Y-126784111D01*
X233326268Y-126286271D01*
X233299208Y-126259211D01*
X233260940Y-126259211D01*
X233233880Y-126286271D01*
X233230074Y-126305405D01*
X233004958Y-126305405D01*
X233003562Y-126301216D01*
X232988150Y-126289255D01*
X232985017Y-126287864D01*
X232984924Y-126287782D01*
X232984832Y-126287782D01*
X232933609Y-126265040D01*
X232927780Y-126259211D01*
X232914552Y-126256579D01*
X232912190Y-126255531D01*
X232911102Y-126255893D01*
X232908646Y-126255405D01*
X232775345Y-126258536D01*
X232769333Y-126255531D01*
X232749977Y-126257971D01*
X232647315Y-126296203D01*
X232630201Y-126330432D01*
X232642302Y-126366736D01*
X232676531Y-126383850D01*
X232695886Y-126381410D01*
X232765741Y-126355395D01*
X232765789Y-126355405D01*
X232891520Y-126352450D01*
X232931340Y-126370129D01*
X232951089Y-126387505D01*
X232973310Y-126427282D01*
X232975025Y-126461647D01*
X232958207Y-126499526D01*
X232940829Y-126519277D01*
X232899304Y-126542476D01*
X232896519Y-126542612D01*
X232794672Y-126571102D01*
X232790816Y-126569817D01*
X232772000Y-126574970D01*
X232723493Y-126602068D01*
X232718084Y-126602068D01*
X232701863Y-126612907D01*
X232699710Y-126615353D01*
X232699445Y-126615502D01*
X232699362Y-126615748D01*
X232680082Y-126637662D01*
X232675886Y-126639061D01*
X232663925Y-126654473D01*
X232662533Y-126657607D01*
X232662452Y-126657700D01*
X232662452Y-126657790D01*
X232639710Y-126709012D01*
X232633881Y-126714842D01*
X232631250Y-126728067D01*
X232630201Y-126730431D01*
X232630563Y-126731519D01*
X232630075Y-126733976D01*
X232563408Y-126733976D01*
X232563408Y-126188738D01*
X236853884Y-126188738D01*
X236853884Y-127988038D01*
G37*
D12*
G36*
X221365112Y-124354275D02*
G01*
X221390889Y-124378937D01*
X221421948Y-124438756D01*
X221423259Y-124582086D01*
X221394519Y-124641827D01*
X221369857Y-124667605D01*
X221310037Y-124698664D01*
X221166708Y-124699975D01*
X221106965Y-124671234D01*
X221081191Y-124646575D01*
X221050131Y-124586752D01*
X221048820Y-124443423D01*
X221077560Y-124383682D01*
X221102222Y-124357905D01*
X221162041Y-124326846D01*
X221305371Y-124325535D01*
X221365112Y-124354275D01*
G37*
G36*
X221365112Y-123925704D02*
G01*
X221390889Y-123950366D01*
X221422385Y-124011027D01*
X221422424Y-124012393D01*
X221394518Y-124070401D01*
X221369860Y-124096174D01*
X221310037Y-124127235D01*
X221166708Y-124128546D01*
X221106965Y-124099805D01*
X221081192Y-124075147D01*
X221049694Y-124014482D01*
X221049655Y-124013117D01*
X221077560Y-123955111D01*
X221102222Y-123929334D01*
X221162041Y-123898275D01*
X221305371Y-123896964D01*
X221365112Y-123925704D01*
G37*
G36*
X222746064Y-122315760D02*
G01*
X222771841Y-122340422D01*
X222806917Y-122407977D01*
X222850369Y-122575438D01*
X222851961Y-122788929D01*
X222811562Y-122956862D01*
X222775471Y-123031883D01*
X222750809Y-123057661D01*
X222690669Y-123088886D01*
X222642205Y-123089698D01*
X222583155Y-123061290D01*
X222557381Y-123036631D01*
X222522304Y-122969071D01*
X222478852Y-122801612D01*
X222477260Y-122588122D01*
X222517659Y-122420188D01*
X222553750Y-122345167D01*
X222578412Y-122319390D01*
X222638551Y-122288165D01*
X222687016Y-122287353D01*
X222746064Y-122315760D01*
G37*
G36*
X227256649Y-125009581D02*
G01*
X217834749Y-125009581D01*
X217834749Y-124139487D01*
X217945860Y-124139487D01*
X217947485Y-124145284D01*
X217947485Y-124151312D01*
X217952708Y-124163921D01*
X217956390Y-124177058D01*
X217961408Y-124184926D01*
X217962417Y-124187360D01*
X217963920Y-124188863D01*
X217966932Y-124193585D01*
X218366006Y-124699189D01*
X218026055Y-124700391D01*
X217990007Y-124715323D01*
X217962417Y-124742913D01*
X217947485Y-124778961D01*
X217947485Y-124817979D01*
X217962417Y-124854027D01*
X217990007Y-124881617D01*
X218026055Y-124896549D01*
X218045564Y-124898470D01*
X218564241Y-124896636D01*
X218577057Y-124898174D01*
X218582777Y-124896570D01*
X218588882Y-124896549D01*
X218601491Y-124891325D01*
X218614628Y-124887644D01*
X218619364Y-124883922D01*
X218624930Y-124881617D01*
X218634576Y-124871970D01*
X218645309Y-124863538D01*
X218648261Y-124858285D01*
X218652520Y-124854027D01*
X218657742Y-124841419D01*
X218664428Y-124829526D01*
X218665145Y-124823547D01*
X218667452Y-124817979D01*
X218667452Y-124804327D01*
X218669077Y-124790786D01*
X218667452Y-124784988D01*
X218667452Y-124778961D01*
X218662228Y-124766351D01*
X218658547Y-124753215D01*
X218653528Y-124745346D01*
X218652520Y-124742913D01*
X218651017Y-124741410D01*
X218648005Y-124736688D01*
X218248930Y-124231083D01*
X218588882Y-124229882D01*
X218624930Y-124214950D01*
X218652520Y-124187360D01*
X218667452Y-124151312D01*
X218667452Y-124112294D01*
X218652520Y-124076246D01*
X218624930Y-124048656D01*
X218588882Y-124033724D01*
X218569373Y-124031803D01*
X218050695Y-124033636D01*
X218037880Y-124032099D01*
X218032159Y-124033702D01*
X218026055Y-124033724D01*
X218013445Y-124038947D01*
X218000309Y-124042629D01*
X217995572Y-124046350D01*
X217990007Y-124048656D01*
X217980360Y-124058302D01*
X217969628Y-124066735D01*
X217966675Y-124071987D01*
X217962417Y-124076246D01*
X217957194Y-124088853D01*
X217950509Y-124100747D01*
X217949791Y-124106725D01*
X217947485Y-124112294D01*
X217947485Y-124125945D01*
X217945860Y-124139487D01*
X217834749Y-124139487D01*
X217834749Y-123798470D01*
X218850326Y-123798470D01*
X218852247Y-124817979D01*
X218867179Y-124854027D01*
X218894769Y-124881617D01*
X218930817Y-124896549D01*
X218969835Y-124896549D01*
X219005883Y-124881617D01*
X219033473Y-124854027D01*
X219048405Y-124817979D01*
X219050326Y-124798470D01*
X219049526Y-124374337D01*
X219422836Y-124373123D01*
X219423675Y-124817979D01*
X219438607Y-124854027D01*
X219466197Y-124881617D01*
X219502245Y-124896549D01*
X219541263Y-124896549D01*
X219577311Y-124881617D01*
X219604901Y-124854027D01*
X219619833Y-124817979D01*
X219621754Y-124798470D01*
X219621744Y-124793027D01*
X219850474Y-124793027D01*
X219855992Y-124831653D01*
X219875871Y-124865228D01*
X219907086Y-124888639D01*
X219944883Y-124898322D01*
X219983509Y-124892804D01*
X220017084Y-124872925D01*
X220030326Y-124858470D01*
X220389605Y-124376808D01*
X220422906Y-124409955D01*
X220423675Y-124817979D01*
X220438607Y-124854027D01*
X220466197Y-124881617D01*
X220502245Y-124896549D01*
X220541263Y-124896549D01*
X220577311Y-124881617D01*
X220604901Y-124854027D01*
X220619833Y-124817979D01*
X220621754Y-124798470D01*
X220621036Y-124417517D01*
X220850326Y-124417517D01*
X220851931Y-124593024D01*
X220851111Y-124595486D01*
X220852078Y-124609101D01*
X220852247Y-124627502D01*
X220853622Y-124630822D01*
X220853877Y-124634406D01*
X220860883Y-124652714D01*
X220910220Y-124747738D01*
X220914797Y-124758788D01*
X220917955Y-124762636D01*
X220918945Y-124764542D01*
X220920939Y-124766271D01*
X220927234Y-124773941D01*
X220977334Y-124821874D01*
X220984252Y-124829851D01*
X220988401Y-124832462D01*
X220990006Y-124833998D01*
X220992446Y-124835008D01*
X221000843Y-124840294D01*
X221083860Y-124880232D01*
X221085245Y-124881617D01*
X221095994Y-124886069D01*
X221114389Y-124894919D01*
X221117972Y-124895173D01*
X221121293Y-124896549D01*
X221140802Y-124898470D01*
X221316309Y-124896864D01*
X221318771Y-124897685D01*
X221332386Y-124896717D01*
X221350787Y-124896549D01*
X221354107Y-124895173D01*
X221357691Y-124894919D01*
X221375999Y-124887913D01*
X221471027Y-124838573D01*
X221482074Y-124833998D01*
X221485920Y-124830840D01*
X221487827Y-124829851D01*
X221489557Y-124827856D01*
X221497227Y-124821561D01*
X221545160Y-124771458D01*
X221546426Y-124770360D01*
X221804627Y-124770360D01*
X221811090Y-124785963D01*
X221819559Y-124806409D01*
X221819563Y-124806413D01*
X221831995Y-124821562D01*
X221894767Y-124881617D01*
X221903770Y-124885346D01*
X221930816Y-124896549D01*
X221969834Y-124896549D01*
X222005882Y-124881617D01*
X222021036Y-124869181D01*
X222081091Y-124806409D01*
X222087843Y-124790107D01*
X222096022Y-124770361D01*
X222096023Y-124731343D01*
X222081092Y-124695294D01*
X222068655Y-124680141D01*
X222005883Y-124620084D01*
X221990951Y-124613899D01*
X221969834Y-124605152D01*
X221930816Y-124605152D01*
X221920258Y-124609525D01*
X221894768Y-124620083D01*
X221894767Y-124620084D01*
X221879613Y-124632521D01*
X221819558Y-124695294D01*
X221809545Y-124719470D01*
X221804627Y-124731342D01*
X221804627Y-124770360D01*
X221546426Y-124770360D01*
X221553135Y-124764543D01*
X221555746Y-124760393D01*
X221557283Y-124758788D01*
X221558294Y-124756346D01*
X221563578Y-124747952D01*
X221603516Y-124664934D01*
X221604901Y-124663550D01*
X221609353Y-124652800D01*
X221618203Y-124634406D01*
X221618457Y-124630822D01*
X221619833Y-124627502D01*
X221621754Y-124607993D01*
X221620148Y-124432485D01*
X221620969Y-124430024D01*
X221620001Y-124416408D01*
X221619833Y-124398008D01*
X221618457Y-124394687D01*
X221618203Y-124391104D01*
X221611197Y-124372795D01*
X221561854Y-124277761D01*
X221557282Y-124266721D01*
X221554126Y-124262875D01*
X221553135Y-124260967D01*
X221551137Y-124259234D01*
X221544845Y-124251568D01*
X221519266Y-124227096D01*
X221545160Y-124200030D01*
X221553135Y-124193115D01*
X221555746Y-124188965D01*
X221557282Y-124187361D01*
X221558292Y-124184920D01*
X221563578Y-124176524D01*
X221603516Y-124093506D01*
X221604901Y-124092122D01*
X221609353Y-124081372D01*
X221618203Y-124062978D01*
X221618457Y-124059394D01*
X221619833Y-124056074D01*
X221621754Y-124036565D01*
X221620766Y-124002060D01*
X221620969Y-124001453D01*
X221620601Y-123996275D01*
X221620391Y-123988946D01*
X222278897Y-123988946D01*
X222280506Y-124085088D01*
X222279682Y-124096691D01*
X222280781Y-124101527D01*
X222280818Y-124103693D01*
X222281829Y-124106135D01*
X222284029Y-124115807D01*
X222328437Y-124244181D01*
X222328437Y-124246550D01*
X222333406Y-124258546D01*
X222339639Y-124276564D01*
X222341994Y-124279279D01*
X222343369Y-124282598D01*
X222355805Y-124297752D01*
X222759109Y-124699188D01*
X222359388Y-124700391D01*
X222323340Y-124715323D01*
X222295750Y-124742913D01*
X222280818Y-124778961D01*
X222280818Y-124817979D01*
X222295750Y-124854027D01*
X222323340Y-124881617D01*
X222359388Y-124896549D01*
X222378897Y-124898470D01*
X223017453Y-124896549D01*
X223053501Y-124881617D01*
X223081091Y-124854027D01*
X223096023Y-124817979D01*
X223096023Y-124778961D01*
X223081091Y-124742913D01*
X223081090Y-124742912D01*
X223068655Y-124727759D01*
X222709129Y-124369898D01*
X223231278Y-124369898D01*
X223232940Y-124592853D01*
X223232063Y-124595486D01*
X223233065Y-124609591D01*
X223233199Y-124627502D01*
X223234574Y-124630822D01*
X223234829Y-124634406D01*
X223241835Y-124652714D01*
X223291172Y-124747738D01*
X223295749Y-124758788D01*
X223298907Y-124762636D01*
X223299897Y-124764542D01*
X223301891Y-124766271D01*
X223308186Y-124773941D01*
X223358286Y-124821874D01*
X223365204Y-124829851D01*
X223369353Y-124832462D01*
X223370958Y-124833998D01*
X223373398Y-124835008D01*
X223381795Y-124840294D01*
X223464812Y-124880232D01*
X223466197Y-124881617D01*
X223476946Y-124886069D01*
X223495341Y-124894919D01*
X223498924Y-124895173D01*
X223502245Y-124896549D01*
X223521754Y-124898470D01*
X223792209Y-124896767D01*
X223794961Y-124897685D01*
X223809387Y-124896659D01*
X223826977Y-124896549D01*
X223830297Y-124895173D01*
X223833881Y-124894919D01*
X223852189Y-124887913D01*
X223947217Y-124838573D01*
X223958264Y-124833998D01*
X223962110Y-124830840D01*
X223964017Y-124829851D01*
X223965747Y-124827856D01*
X223973417Y-124821561D01*
X224022402Y-124770360D01*
X224947484Y-124770360D01*
X224953947Y-124785963D01*
X224962416Y-124806409D01*
X224962420Y-124806413D01*
X224974852Y-124821562D01*
X225037624Y-124881617D01*
X225046627Y-124885346D01*
X225073673Y-124896549D01*
X225112691Y-124896549D01*
X225148739Y-124881617D01*
X225163893Y-124869181D01*
X225223948Y-124806409D01*
X225230700Y-124790107D01*
X225238879Y-124770361D01*
X225238880Y-124731343D01*
X225223949Y-124695294D01*
X225211512Y-124680141D01*
X225148740Y-124620084D01*
X225133808Y-124613899D01*
X225112691Y-124605152D01*
X225073673Y-124605152D01*
X225063115Y-124609525D01*
X225037625Y-124620083D01*
X225037624Y-124620084D01*
X225022470Y-124632521D01*
X224962415Y-124695294D01*
X224952402Y-124719470D01*
X224947484Y-124731342D01*
X224947484Y-124770360D01*
X224022402Y-124770360D01*
X224033473Y-124758788D01*
X224048404Y-124722739D01*
X224048403Y-124683721D01*
X224033472Y-124647673D01*
X224005881Y-124620083D01*
X223969833Y-124605152D01*
X223930815Y-124605153D01*
X223894767Y-124620084D01*
X223879613Y-124632521D01*
X223846047Y-124667605D01*
X223786346Y-124698602D01*
X223547926Y-124700103D01*
X223487917Y-124671234D01*
X223462143Y-124646575D01*
X223431120Y-124586823D01*
X223429696Y-124395961D01*
X223458512Y-124336063D01*
X223483174Y-124310286D01*
X223543105Y-124279169D01*
X223664782Y-124277729D01*
X223677553Y-124278581D01*
X223680624Y-124277542D01*
X223684120Y-124277501D01*
X223699123Y-124271286D01*
X223714515Y-124266081D01*
X223717054Y-124263858D01*
X223720168Y-124262569D01*
X223731645Y-124251091D01*
X223736835Y-124246550D01*
X224947484Y-124246550D01*
X224962416Y-124282598D01*
X224974852Y-124297752D01*
X225037624Y-124357807D01*
X225046627Y-124361536D01*
X225073673Y-124372739D01*
X225112691Y-124372739D01*
X225148739Y-124357807D01*
X225163893Y-124345371D01*
X225223948Y-124282599D01*
X225238879Y-124246550D01*
X225238879Y-124207532D01*
X225236019Y-124200628D01*
X225223948Y-124171483D01*
X225211511Y-124156330D01*
X225148739Y-124096275D01*
X225112691Y-124081343D01*
X225073673Y-124081343D01*
X225048182Y-124091901D01*
X225037624Y-124096275D01*
X225022471Y-124108712D01*
X224962417Y-124171483D01*
X224962416Y-124171484D01*
X224947484Y-124207532D01*
X224947484Y-124246550D01*
X223736835Y-124246550D01*
X223743879Y-124240387D01*
X223745374Y-124237362D01*
X223747758Y-124234979D01*
X223753972Y-124219977D01*
X223761175Y-124205412D01*
X223761399Y-124202046D01*
X223762690Y-124198931D01*
X223762690Y-124182682D01*
X223763770Y-124166480D01*
X223762690Y-124163286D01*
X223762690Y-124159913D01*
X223756474Y-124144907D01*
X223751270Y-124129519D01*
X223748488Y-124125628D01*
X223747758Y-124123865D01*
X223745898Y-124122005D01*
X223739869Y-124113572D01*
X223630015Y-123988946D01*
X225421754Y-123988946D01*
X225423363Y-124085088D01*
X225422539Y-124096691D01*
X225423638Y-124101527D01*
X225423675Y-124103693D01*
X225424686Y-124106135D01*
X225426886Y-124115807D01*
X225471294Y-124244181D01*
X225471294Y-124246550D01*
X225476263Y-124258546D01*
X225482496Y-124276564D01*
X225484851Y-124279279D01*
X225486226Y-124282598D01*
X225498662Y-124297752D01*
X225901966Y-124699188D01*
X225502245Y-124700391D01*
X225466197Y-124715323D01*
X225438607Y-124742913D01*
X225423675Y-124778961D01*
X225423675Y-124817979D01*
X225438607Y-124854027D01*
X225466197Y-124881617D01*
X225502245Y-124896549D01*
X225521754Y-124898470D01*
X226160310Y-124896549D01*
X226196358Y-124881617D01*
X226223948Y-124854027D01*
X226238880Y-124817979D01*
X226238880Y-124778961D01*
X226223948Y-124742913D01*
X226223947Y-124742912D01*
X226211512Y-124727759D01*
X225657701Y-124176513D01*
X225621550Y-124072007D01*
X225620581Y-124014159D01*
X225648988Y-123955111D01*
X225673650Y-123929334D01*
X225733398Y-123898312D01*
X225924261Y-123896888D01*
X225984159Y-123925704D01*
X226037624Y-123976855D01*
X226073673Y-123991786D01*
X226112691Y-123991786D01*
X226148739Y-123976855D01*
X226176329Y-123949265D01*
X226191260Y-123913217D01*
X226191260Y-123874199D01*
X226176329Y-123838150D01*
X226163892Y-123822997D01*
X226135922Y-123796238D01*
X226278922Y-123796238D01*
X226285678Y-123834667D01*
X226294531Y-123852158D01*
X226612330Y-124348264D01*
X226614151Y-124817979D01*
X226629083Y-124854027D01*
X226656673Y-124881617D01*
X226692721Y-124896549D01*
X226731739Y-124896549D01*
X226767787Y-124881617D01*
X226795377Y-124854027D01*
X226810309Y-124817979D01*
X226812230Y-124798470D01*
X226810507Y-124353960D01*
X227138782Y-123834667D01*
X227145538Y-123796238D01*
X227137074Y-123758149D01*
X227114678Y-123726198D01*
X227081760Y-123705250D01*
X227043331Y-123698495D01*
X227005242Y-123706959D01*
X226973292Y-123729355D01*
X226961197Y-123744782D01*
X226712780Y-124137749D01*
X226451169Y-123729355D01*
X226419218Y-123706959D01*
X226381129Y-123698495D01*
X226342700Y-123705251D01*
X226309782Y-123726198D01*
X226287386Y-123758149D01*
X226278922Y-123796238D01*
X226135922Y-123796238D01*
X226113791Y-123775065D01*
X226106874Y-123767089D01*
X226102724Y-123764476D01*
X226101120Y-123762942D01*
X226098680Y-123761931D01*
X226090284Y-123756646D01*
X226007266Y-123716707D01*
X226005882Y-123715323D01*
X225995132Y-123710870D01*
X225976738Y-123702021D01*
X225973154Y-123701766D01*
X225969834Y-123700391D01*
X225950325Y-123698470D01*
X225727369Y-123700132D01*
X225724737Y-123699255D01*
X225710631Y-123700257D01*
X225692721Y-123700391D01*
X225689400Y-123701766D01*
X225685817Y-123702021D01*
X225667508Y-123709027D01*
X225572474Y-123758369D01*
X225561434Y-123762942D01*
X225557588Y-123766097D01*
X225555680Y-123767089D01*
X225553947Y-123769086D01*
X225546281Y-123775379D01*
X225498349Y-123825479D01*
X225490373Y-123832397D01*
X225487760Y-123836546D01*
X225486226Y-123838151D01*
X225485215Y-123840590D01*
X225479930Y-123848987D01*
X225439991Y-123932004D01*
X225438607Y-123933389D01*
X225434154Y-123944138D01*
X225425305Y-123962533D01*
X225425050Y-123966116D01*
X225423675Y-123969437D01*
X225421754Y-123988946D01*
X223630015Y-123988946D01*
X223549683Y-123897812D01*
X223969834Y-123896549D01*
X224005882Y-123881617D01*
X224033472Y-123854027D01*
X224048404Y-123817979D01*
X224048404Y-123778961D01*
X224033472Y-123742913D01*
X224005882Y-123715323D01*
X223969834Y-123700391D01*
X223950325Y-123698470D01*
X223333555Y-123700325D01*
X223318336Y-123699311D01*
X223315172Y-123700380D01*
X223311769Y-123700391D01*
X223296763Y-123706606D01*
X223281375Y-123711811D01*
X223278835Y-123714032D01*
X223275721Y-123715323D01*
X223264236Y-123726807D01*
X223252011Y-123737505D01*
X223250515Y-123740528D01*
X223248131Y-123742913D01*
X223241914Y-123757919D01*
X223234714Y-123772480D01*
X223234489Y-123775845D01*
X223233199Y-123778961D01*
X223233199Y-123795209D01*
X223232119Y-123811412D01*
X223233199Y-123814605D01*
X223233199Y-123817979D01*
X223239414Y-123832984D01*
X223244619Y-123848373D01*
X223247400Y-123852263D01*
X223248131Y-123854027D01*
X223249990Y-123855886D01*
X223256020Y-123864320D01*
X223461870Y-124097850D01*
X223381998Y-124139321D01*
X223370958Y-124143894D01*
X223367112Y-124147049D01*
X223365204Y-124148041D01*
X223363471Y-124150038D01*
X223355805Y-124156331D01*
X223307873Y-124206431D01*
X223299897Y-124213349D01*
X223297284Y-124217498D01*
X223295750Y-124219103D01*
X223294739Y-124221542D01*
X223289454Y-124229939D01*
X223249515Y-124312956D01*
X223248131Y-124314341D01*
X223243678Y-124325090D01*
X223234829Y-124343485D01*
X223234574Y-124347068D01*
X223233199Y-124350389D01*
X223231278Y-124369898D01*
X222709129Y-124369898D01*
X222514844Y-124176513D01*
X222478693Y-124072007D01*
X222477724Y-124014159D01*
X222506131Y-123955111D01*
X222530793Y-123929334D01*
X222590541Y-123898312D01*
X222781404Y-123896888D01*
X222841302Y-123925704D01*
X222894767Y-123976855D01*
X222930816Y-123991786D01*
X222969834Y-123991786D01*
X223005882Y-123976855D01*
X223033472Y-123949265D01*
X223048403Y-123913217D01*
X223048403Y-123874199D01*
X223033472Y-123838150D01*
X223021035Y-123822997D01*
X222970934Y-123775065D01*
X222964017Y-123767089D01*
X222959867Y-123764476D01*
X222958263Y-123762942D01*
X222955823Y-123761931D01*
X222947427Y-123756646D01*
X222864409Y-123716707D01*
X222863025Y-123715323D01*
X222852275Y-123710870D01*
X222833881Y-123702021D01*
X222830297Y-123701766D01*
X222826977Y-123700391D01*
X222807468Y-123698470D01*
X222584512Y-123700132D01*
X222581880Y-123699255D01*
X222567774Y-123700257D01*
X222549864Y-123700391D01*
X222546543Y-123701766D01*
X222542960Y-123702021D01*
X222524651Y-123709027D01*
X222429617Y-123758369D01*
X222418577Y-123762942D01*
X222414731Y-123766097D01*
X222412823Y-123767089D01*
X222411090Y-123769086D01*
X222403424Y-123775379D01*
X222355492Y-123825479D01*
X222347516Y-123832397D01*
X222344903Y-123836546D01*
X222343369Y-123838151D01*
X222342358Y-123840590D01*
X222337073Y-123848987D01*
X222297134Y-123932004D01*
X222295750Y-123933389D01*
X222291297Y-123944138D01*
X222282448Y-123962533D01*
X222282193Y-123966116D01*
X222280818Y-123969437D01*
X222278897Y-123988946D01*
X221620391Y-123988946D01*
X221619833Y-123969437D01*
X221618457Y-123966116D01*
X221618203Y-123962533D01*
X221611197Y-123944224D01*
X221561854Y-123849190D01*
X221557282Y-123838150D01*
X221554126Y-123834304D01*
X221553135Y-123832396D01*
X221551137Y-123830663D01*
X221544845Y-123822997D01*
X221494744Y-123775065D01*
X221487827Y-123767089D01*
X221483677Y-123764476D01*
X221482073Y-123762942D01*
X221479633Y-123761931D01*
X221471237Y-123756646D01*
X221388219Y-123716707D01*
X221386835Y-123715323D01*
X221376085Y-123710870D01*
X221357691Y-123702021D01*
X221354107Y-123701766D01*
X221350787Y-123700391D01*
X221331278Y-123698470D01*
X221155770Y-123700075D01*
X221153309Y-123699255D01*
X221139693Y-123700222D01*
X221121293Y-123700391D01*
X221117972Y-123701766D01*
X221114389Y-123702021D01*
X221096080Y-123709027D01*
X221001046Y-123758369D01*
X220990006Y-123762942D01*
X220986160Y-123766097D01*
X220984252Y-123767089D01*
X220982519Y-123769086D01*
X220974853Y-123775379D01*
X220926921Y-123825479D01*
X220918945Y-123832397D01*
X220916332Y-123836546D01*
X220914798Y-123838151D01*
X220913787Y-123840590D01*
X220908502Y-123848987D01*
X220868563Y-123932004D01*
X220867179Y-123933389D01*
X220862726Y-123944138D01*
X220853877Y-123962533D01*
X220853622Y-123966116D01*
X220852247Y-123969437D01*
X220850326Y-123988946D01*
X220851313Y-124023450D01*
X220851111Y-124024058D01*
X220851478Y-124029235D01*
X220852247Y-124056074D01*
X220853622Y-124059394D01*
X220853877Y-124062978D01*
X220860883Y-124081286D01*
X220910223Y-124176315D01*
X220914798Y-124187360D01*
X220917954Y-124191206D01*
X220918945Y-124193114D01*
X220920939Y-124194843D01*
X220927234Y-124202514D01*
X220952813Y-124226986D01*
X220926921Y-124254050D01*
X220918945Y-124260968D01*
X220916332Y-124265117D01*
X220914798Y-124266722D01*
X220913787Y-124269161D01*
X220908502Y-124277558D01*
X220868563Y-124360575D01*
X220867179Y-124361960D01*
X220862726Y-124372709D01*
X220853877Y-124391104D01*
X220853622Y-124394687D01*
X220852247Y-124398008D01*
X220850326Y-124417517D01*
X220621036Y-124417517D01*
X220619833Y-123778961D01*
X220604901Y-123742913D01*
X220577311Y-123715323D01*
X220541263Y-123700391D01*
X220502245Y-123700391D01*
X220466197Y-123715323D01*
X220438607Y-123742913D01*
X220423675Y-123778961D01*
X220421754Y-123798470D01*
X220422378Y-124129888D01*
X220005883Y-123715323D01*
X219969835Y-123700391D01*
X219930817Y-123700391D01*
X219894769Y-123715323D01*
X219867179Y-123742913D01*
X219852247Y-123778961D01*
X219852247Y-123817979D01*
X219867179Y-123854027D01*
X219879615Y-123869181D01*
X220247749Y-124235610D01*
X219860157Y-124755230D01*
X219850474Y-124793027D01*
X219621744Y-124793027D01*
X219619833Y-123778961D01*
X219604901Y-123742913D01*
X219577311Y-123715323D01*
X219541263Y-123700391D01*
X219502245Y-123700391D01*
X219466197Y-123715323D01*
X219438607Y-123742913D01*
X219423675Y-123778961D01*
X219421754Y-123798470D01*
X219422463Y-124174982D01*
X219049153Y-124176196D01*
X219048405Y-123778961D01*
X219033473Y-123742913D01*
X219005883Y-123715323D01*
X218969835Y-123700391D01*
X218930817Y-123700391D01*
X218894769Y-123715323D01*
X218867179Y-123742913D01*
X218852247Y-123778961D01*
X218850326Y-123798470D01*
X217834749Y-123798470D01*
X217834749Y-122529543D01*
X219231574Y-122529543D01*
X219233199Y-122535340D01*
X219233199Y-122541368D01*
X219238422Y-122553977D01*
X219242104Y-122567114D01*
X219247122Y-122574982D01*
X219248131Y-122577416D01*
X219249634Y-122578919D01*
X219252646Y-122583641D01*
X219651720Y-123089245D01*
X219311769Y-123090447D01*
X219275721Y-123105379D01*
X219248131Y-123132969D01*
X219233199Y-123169017D01*
X219233199Y-123208035D01*
X219248131Y-123244083D01*
X219275721Y-123271673D01*
X219311769Y-123286605D01*
X219331278Y-123288526D01*
X219849955Y-123286692D01*
X219862771Y-123288230D01*
X219868491Y-123286626D01*
X219874596Y-123286605D01*
X219887205Y-123281381D01*
X219900342Y-123277700D01*
X219905078Y-123273978D01*
X219910644Y-123271673D01*
X219920290Y-123262026D01*
X219931023Y-123253594D01*
X219933975Y-123248341D01*
X219938234Y-123244083D01*
X219943456Y-123231475D01*
X219950142Y-123219582D01*
X219950859Y-123213603D01*
X219953166Y-123208035D01*
X219953166Y-123194383D01*
X219954791Y-123180842D01*
X219953166Y-123175044D01*
X219953166Y-123169017D01*
X219947942Y-123156407D01*
X219944261Y-123143271D01*
X219939242Y-123135402D01*
X219938234Y-123132969D01*
X219936731Y-123131466D01*
X219933719Y-123126744D01*
X219534644Y-122621139D01*
X219874596Y-122619938D01*
X219910644Y-122605006D01*
X219938234Y-122577416D01*
X219953166Y-122541368D01*
X219953166Y-122502350D01*
X219938234Y-122466302D01*
X219910644Y-122438712D01*
X219874596Y-122423780D01*
X219855087Y-122421859D01*
X219336409Y-122423692D01*
X219323594Y-122422155D01*
X219317873Y-122423758D01*
X219311769Y-122423780D01*
X219299159Y-122429003D01*
X219286023Y-122432685D01*
X219281286Y-122436406D01*
X219275721Y-122438712D01*
X219266074Y-122448358D01*
X219255342Y-122456791D01*
X219252389Y-122462043D01*
X219248131Y-122466302D01*
X219242908Y-122478909D01*
X219236223Y-122490803D01*
X219235505Y-122496781D01*
X219233199Y-122502350D01*
X219233199Y-122516001D01*
X219231574Y-122529543D01*
X217834749Y-122529543D01*
X217834749Y-122188526D01*
X220136040Y-122188526D01*
X220137961Y-123208035D01*
X220152893Y-123244083D01*
X220180483Y-123271673D01*
X220216531Y-123286605D01*
X220255549Y-123286605D01*
X220291597Y-123271673D01*
X220319187Y-123244083D01*
X220334119Y-123208035D01*
X220336040Y-123188526D01*
X220335240Y-122764393D01*
X220708550Y-122763179D01*
X220709389Y-123208035D01*
X220724321Y-123244083D01*
X220751911Y-123271673D01*
X220787959Y-123286605D01*
X220826977Y-123286605D01*
X220863025Y-123271673D01*
X220890615Y-123244083D01*
X220905547Y-123208035D01*
X220907468Y-123188526D01*
X220905584Y-122188526D01*
X221183659Y-122188526D01*
X221185580Y-123208035D01*
X221200512Y-123244083D01*
X221228102Y-123271673D01*
X221264150Y-123286605D01*
X221303168Y-123286605D01*
X221339216Y-123271673D01*
X221366806Y-123244083D01*
X221381738Y-123208035D01*
X221383659Y-123188526D01*
X221382615Y-122634536D01*
X221526507Y-122940974D01*
X221531486Y-122954663D01*
X221534461Y-122957912D01*
X221536365Y-122961966D01*
X221547575Y-122972232D01*
X221557837Y-122983438D01*
X221561862Y-122985316D01*
X221565140Y-122988318D01*
X221579422Y-122993511D01*
X221593195Y-122999939D01*
X221597634Y-123000134D01*
X221601809Y-123001652D01*
X221616992Y-123000984D01*
X221632175Y-123001652D01*
X221636348Y-123000134D01*
X221640790Y-122999939D01*
X221654574Y-122993506D01*
X221668844Y-122988317D01*
X221672117Y-122985319D01*
X221676147Y-122983439D01*
X221686416Y-122972224D01*
X221697619Y-122961966D01*
X221700930Y-122956375D01*
X221702499Y-122954663D01*
X221703379Y-122952241D01*
X221707610Y-122945100D01*
X221851167Y-122635558D01*
X221852246Y-123208035D01*
X221867178Y-123244083D01*
X221894768Y-123271673D01*
X221930816Y-123286605D01*
X221969834Y-123286605D01*
X222005882Y-123271673D01*
X222033472Y-123244083D01*
X222048404Y-123208035D01*
X222050325Y-123188526D01*
X222049158Y-122569478D01*
X222278897Y-122569478D01*
X222280627Y-122801595D01*
X222279015Y-122812434D01*
X222280798Y-122824495D01*
X222280818Y-122827082D01*
X222281382Y-122828445D01*
X222281883Y-122831827D01*
X222329387Y-123014906D01*
X222330067Y-123024462D01*
X222335658Y-123039074D01*
X222336097Y-123040763D01*
X222336527Y-123041343D01*
X222337073Y-123042770D01*
X222386410Y-123137794D01*
X222390987Y-123148844D01*
X222394145Y-123152692D01*
X222395135Y-123154598D01*
X222397129Y-123156327D01*
X222403424Y-123163997D01*
X222453524Y-123211930D01*
X222460442Y-123219907D01*
X222464591Y-123222518D01*
X222466196Y-123224054D01*
X222468636Y-123225064D01*
X222477033Y-123230350D01*
X222560050Y-123270288D01*
X222561435Y-123271673D01*
X222572184Y-123276125D01*
X222590579Y-123284975D01*
X222594162Y-123285229D01*
X222597483Y-123286605D01*
X222616992Y-123288526D01*
X222698009Y-123287169D01*
X222699723Y-123287741D01*
X222710767Y-123286956D01*
X222731739Y-123286605D01*
X222735059Y-123285229D01*
X222738643Y-123284975D01*
X222756951Y-123277969D01*
X222851979Y-123228629D01*
X222863026Y-123224054D01*
X222866872Y-123220896D01*
X222868779Y-123219907D01*
X222870509Y-123217912D01*
X222878179Y-123211617D01*
X222926112Y-123161514D01*
X222934087Y-123154599D01*
X222936698Y-123150449D01*
X222938235Y-123148844D01*
X222939246Y-123146402D01*
X222944530Y-123138008D01*
X222987958Y-123047736D01*
X222993125Y-123040763D01*
X222998353Y-123026128D01*
X222999155Y-123024462D01*
X222999206Y-123023741D01*
X222999720Y-123022303D01*
X223035227Y-122874701D01*
X223185580Y-122874701D01*
X223200512Y-122910749D01*
X223228102Y-122938339D01*
X223264150Y-122953271D01*
X223283659Y-122955192D01*
X223327728Y-122955059D01*
X223328437Y-123208035D01*
X223343369Y-123244083D01*
X223370959Y-123271673D01*
X223407007Y-123286605D01*
X223446025Y-123286605D01*
X223482073Y-123271673D01*
X223509663Y-123244083D01*
X223524595Y-123208035D01*
X223526516Y-123188526D01*
X223526437Y-123160416D01*
X224947484Y-123160416D01*
X224953947Y-123176019D01*
X224962416Y-123196465D01*
X224962420Y-123196469D01*
X224974852Y-123211618D01*
X225037624Y-123271673D01*
X225046627Y-123275402D01*
X225073673Y-123286605D01*
X225112691Y-123286605D01*
X225148739Y-123271673D01*
X225163893Y-123259237D01*
X225212879Y-123208035D01*
X225423675Y-123208035D01*
X225438607Y-123244083D01*
X225466197Y-123271673D01*
X225502245Y-123286605D01*
X225521754Y-123288526D01*
X226112691Y-123286605D01*
X226148739Y-123271673D01*
X226176329Y-123244083D01*
X226191261Y-123208035D01*
X226191261Y-123169017D01*
X226176329Y-123132969D01*
X226148739Y-123105379D01*
X226112691Y-123090447D01*
X226093182Y-123088526D01*
X225907280Y-123089130D01*
X225906122Y-122474396D01*
X225928379Y-122496105D01*
X225936632Y-122505621D01*
X225940870Y-122508288D01*
X225942387Y-122509768D01*
X225944824Y-122510777D01*
X225953223Y-122516064D01*
X226066769Y-122570689D01*
X226105689Y-122573455D01*
X226142705Y-122561116D01*
X226172182Y-122535551D01*
X226189631Y-122500653D01*
X226192396Y-122461733D01*
X226180058Y-122424717D01*
X226154493Y-122395240D01*
X226137903Y-122384797D01*
X226059698Y-122347174D01*
X225984469Y-122273797D01*
X225924855Y-122186294D01*
X226278922Y-122186294D01*
X226285678Y-122224723D01*
X226294531Y-122242214D01*
X226612330Y-122738320D01*
X226614151Y-123208035D01*
X226629083Y-123244083D01*
X226656673Y-123271673D01*
X226692721Y-123286605D01*
X226731739Y-123286605D01*
X226767787Y-123271673D01*
X226795377Y-123244083D01*
X226810309Y-123208035D01*
X226812230Y-123188526D01*
X226810507Y-122744016D01*
X227138782Y-122224723D01*
X227145538Y-122186294D01*
X227137074Y-122148205D01*
X227114678Y-122116254D01*
X227081760Y-122095306D01*
X227043331Y-122088551D01*
X227005242Y-122097015D01*
X226973292Y-122119411D01*
X226961197Y-122134838D01*
X226712780Y-122527805D01*
X226451169Y-122119411D01*
X226419218Y-122097015D01*
X226381129Y-122088551D01*
X226342700Y-122095307D01*
X226309782Y-122116254D01*
X226287386Y-122148205D01*
X226278922Y-122186294D01*
X225924855Y-122186294D01*
X225893854Y-122140789D01*
X225890615Y-122132969D01*
X225884062Y-122126416D01*
X225878253Y-122117889D01*
X225870024Y-122112378D01*
X225863025Y-122105379D01*
X225853973Y-122101629D01*
X225845833Y-122096178D01*
X225836125Y-122094236D01*
X225826977Y-122090447D01*
X225817178Y-122090447D01*
X225807573Y-122088526D01*
X225797862Y-122090447D01*
X225787959Y-122090447D01*
X225778906Y-122094196D01*
X225769296Y-122096098D01*
X225761057Y-122101590D01*
X225751911Y-122105379D01*
X225744984Y-122112305D01*
X225736831Y-122117741D01*
X225731320Y-122125969D01*
X225724321Y-122132969D01*
X225720571Y-122142020D01*
X225715120Y-122150161D01*
X225713178Y-122159868D01*
X225709389Y-122169017D01*
X225707488Y-122188319D01*
X225707468Y-122188421D01*
X225707474Y-122188455D01*
X225707468Y-122188526D01*
X225709166Y-123089774D01*
X225502245Y-123090447D01*
X225466197Y-123105379D01*
X225438607Y-123132969D01*
X225423675Y-123169017D01*
X225423675Y-123208035D01*
X225212879Y-123208035D01*
X225223948Y-123196465D01*
X225230700Y-123180163D01*
X225238879Y-123160417D01*
X225238880Y-123121399D01*
X225223949Y-123085350D01*
X225211512Y-123070197D01*
X225148740Y-123010140D01*
X225128248Y-123001652D01*
X225124112Y-122999939D01*
X225112691Y-122995208D01*
X225073673Y-122995208D01*
X225063115Y-122999581D01*
X225037625Y-123010139D01*
X225037624Y-123010140D01*
X225022470Y-123022577D01*
X224962415Y-123085350D01*
X224952402Y-123109526D01*
X224947484Y-123121398D01*
X224947484Y-123160416D01*
X223526437Y-123160416D01*
X223525860Y-122954463D01*
X223900167Y-122953337D01*
X223915213Y-122954407D01*
X223918588Y-122953281D01*
X223922215Y-122953271D01*
X223937027Y-122947135D01*
X223952229Y-122942068D01*
X223954942Y-122939714D01*
X223958263Y-122938339D01*
X223969601Y-122927000D01*
X223981705Y-122916503D01*
X223983311Y-122913290D01*
X223985853Y-122910749D01*
X223991989Y-122895934D01*
X223999155Y-122881604D01*
X223999409Y-122878021D01*
X224000785Y-122874701D01*
X224000785Y-122858668D01*
X224001921Y-122842684D01*
X224000785Y-122837688D01*
X224000785Y-122835683D01*
X223999773Y-122833241D01*
X223997574Y-122823569D01*
X223934736Y-122636606D01*
X224947484Y-122636606D01*
X224962416Y-122672654D01*
X224974852Y-122687808D01*
X225037624Y-122747863D01*
X225048182Y-122752236D01*
X225073673Y-122762795D01*
X225112691Y-122762795D01*
X225148739Y-122747863D01*
X225163893Y-122735427D01*
X225223948Y-122672655D01*
X225238879Y-122636606D01*
X225238879Y-122597588D01*
X225237282Y-122593732D01*
X225223948Y-122561539D01*
X225211511Y-122546386D01*
X225148739Y-122486331D01*
X225112691Y-122471399D01*
X225073673Y-122471399D01*
X225048182Y-122481957D01*
X225037624Y-122486331D01*
X225022471Y-122498768D01*
X224962417Y-122561539D01*
X224962416Y-122561540D01*
X224947484Y-122597588D01*
X224947484Y-122636606D01*
X223934736Y-122636606D01*
X223751488Y-122091384D01*
X223725923Y-122061908D01*
X223691024Y-122044458D01*
X223652104Y-122041692D01*
X223615088Y-122054030D01*
X223585612Y-122079595D01*
X223568162Y-122114494D01*
X223565396Y-122153414D01*
X223569743Y-122172530D01*
X223765713Y-122755604D01*
X223525306Y-122756327D01*
X223524595Y-122502350D01*
X223509663Y-122466302D01*
X223482073Y-122438712D01*
X223446025Y-122423780D01*
X223407007Y-122423780D01*
X223370959Y-122438712D01*
X223343369Y-122466302D01*
X223328437Y-122502350D01*
X223326516Y-122521859D01*
X223327174Y-122756923D01*
X223264150Y-122757113D01*
X223228102Y-122772045D01*
X223200512Y-122799635D01*
X223185580Y-122835683D01*
X223185580Y-122874701D01*
X223035227Y-122874701D01*
X223044299Y-122836990D01*
X223048404Y-122827082D01*
X223049596Y-122814972D01*
X223050207Y-122812434D01*
X223049989Y-122810975D01*
X223050325Y-122807573D01*
X223048594Y-122575455D01*
X223050207Y-122564617D01*
X223048423Y-122552555D01*
X223048404Y-122549969D01*
X223047839Y-122548605D01*
X223047339Y-122545224D01*
X222999834Y-122362144D01*
X222999155Y-122352589D01*
X222993562Y-122337973D01*
X222993125Y-122336288D01*
X222992695Y-122335708D01*
X222992149Y-122334280D01*
X222942806Y-122239246D01*
X222938234Y-122228206D01*
X222935078Y-122224360D01*
X222934087Y-122222452D01*
X222932089Y-122220719D01*
X222925797Y-122213053D01*
X222875696Y-122165121D01*
X222868779Y-122157145D01*
X222864629Y-122154532D01*
X222863025Y-122152998D01*
X222860585Y-122151987D01*
X222852189Y-122146702D01*
X222769171Y-122106763D01*
X222767787Y-122105379D01*
X222757037Y-122100926D01*
X222738643Y-122092077D01*
X222735059Y-122091822D01*
X222731739Y-122090447D01*
X222712230Y-122088526D01*
X222631212Y-122089882D01*
X222629499Y-122089311D01*
X222618454Y-122090095D01*
X222597483Y-122090447D01*
X222594162Y-122091822D01*
X222590579Y-122092077D01*
X222572270Y-122099083D01*
X222477236Y-122148425D01*
X222466196Y-122152998D01*
X222462350Y-122156153D01*
X222460442Y-122157145D01*
X222458709Y-122159142D01*
X222451043Y-122165435D01*
X222403111Y-122215535D01*
X222395135Y-122222453D01*
X222392522Y-122226602D01*
X222390988Y-122228207D01*
X222389977Y-122230646D01*
X222384692Y-122239043D01*
X222341263Y-122329314D01*
X222336097Y-122336288D01*
X222330869Y-122350920D01*
X222330067Y-122352589D01*
X222330015Y-122353311D01*
X222329502Y-122354749D01*
X222284922Y-122540059D01*
X222280818Y-122549969D01*
X222279625Y-122562078D01*
X222279015Y-122564617D01*
X222279232Y-122566075D01*
X222278897Y-122569478D01*
X222049158Y-122569478D01*
X222048443Y-122189791D01*
X222049166Y-122173343D01*
X222048408Y-122171259D01*
X222048404Y-122169017D01*
X222041763Y-122152986D01*
X222035832Y-122136674D01*
X222034325Y-122135028D01*
X222033472Y-122132969D01*
X222021210Y-122120707D01*
X222009480Y-122107898D01*
X222007456Y-122106953D01*
X222005882Y-122105379D01*
X221989866Y-122098744D01*
X221974123Y-122091398D01*
X221971893Y-122091300D01*
X221969834Y-122090447D01*
X221952482Y-122090447D01*
X221935142Y-122089685D01*
X221933046Y-122090447D01*
X221930816Y-122090447D01*
X221914785Y-122097087D01*
X221898473Y-122103019D01*
X221896827Y-122104525D01*
X221894768Y-122105379D01*
X221882500Y-122117646D01*
X221869698Y-122129371D01*
X221868131Y-122132015D01*
X221867178Y-122132969D01*
X221866274Y-122135150D01*
X221859707Y-122146237D01*
X221617468Y-122668556D01*
X221373022Y-122147976D01*
X221366806Y-122132969D01*
X221365240Y-122131403D01*
X221364286Y-122129371D01*
X221351489Y-122117652D01*
X221339216Y-122105379D01*
X221337154Y-122104525D01*
X221335511Y-122103020D01*
X221319209Y-122097091D01*
X221303168Y-122090447D01*
X221300937Y-122090447D01*
X221298842Y-122089685D01*
X221281502Y-122090447D01*
X221264150Y-122090447D01*
X221262090Y-122091300D01*
X221259862Y-122091398D01*
X221244131Y-122098739D01*
X221228102Y-122105379D01*
X221226525Y-122106955D01*
X221224504Y-122107899D01*
X221212785Y-122120695D01*
X221200512Y-122132969D01*
X221199658Y-122135030D01*
X221198153Y-122136674D01*
X221192224Y-122152975D01*
X221185580Y-122169017D01*
X221185278Y-122172075D01*
X221184818Y-122173343D01*
X221184921Y-122175702D01*
X221183659Y-122188526D01*
X220905584Y-122188526D01*
X220905547Y-122169017D01*
X220890615Y-122132969D01*
X220863025Y-122105379D01*
X220826977Y-122090447D01*
X220787959Y-122090447D01*
X220751911Y-122105379D01*
X220724321Y-122132969D01*
X220709389Y-122169017D01*
X220707468Y-122188526D01*
X220708177Y-122565038D01*
X220334867Y-122566252D01*
X220334119Y-122169017D01*
X220319187Y-122132969D01*
X220291597Y-122105379D01*
X220255549Y-122090447D01*
X220216531Y-122090447D01*
X220180483Y-122105379D01*
X220152893Y-122132969D01*
X220137961Y-122169017D01*
X220136040Y-122188526D01*
X217834749Y-122188526D01*
X217834749Y-121930581D01*
X227256649Y-121930581D01*
X227256649Y-125009581D01*
G37*
G36*
X226207022Y-95992690D02*
G01*
X225950686Y-95993920D01*
X225890537Y-95964983D01*
X225864763Y-95940324D01*
X225833645Y-95880389D01*
X225832511Y-95784543D01*
X225861132Y-95725050D01*
X225881557Y-95703701D01*
X225983765Y-95668344D01*
X226206409Y-95667132D01*
X226207022Y-95992690D01*
G37*
G36*
X226206035Y-95468949D02*
G01*
X225998244Y-95470080D01*
X225938156Y-95441173D01*
X225912383Y-95416515D01*
X225881156Y-95356372D01*
X225880344Y-95307908D01*
X225908751Y-95248860D01*
X225933413Y-95223083D01*
X225993078Y-95192104D01*
X226205512Y-95190947D01*
X226206035Y-95468949D01*
G37*
G36*
X228516437Y-96303330D02*
G01*
X225522787Y-96303330D01*
X225522787Y-95758885D01*
X225633898Y-95758885D01*
X225635414Y-95887041D01*
X225634683Y-95889235D01*
X225635591Y-95902017D01*
X225635819Y-95921251D01*
X225637194Y-95924571D01*
X225637449Y-95928155D01*
X225644455Y-95946463D01*
X225693792Y-96041487D01*
X225698369Y-96052537D01*
X225701527Y-96056385D01*
X225702517Y-96058291D01*
X225704511Y-96060020D01*
X225710806Y-96067690D01*
X225760906Y-96115623D01*
X225767824Y-96123600D01*
X225771973Y-96126211D01*
X225773578Y-96127747D01*
X225776018Y-96128757D01*
X225784415Y-96134043D01*
X225867432Y-96173981D01*
X225868817Y-96175366D01*
X225879566Y-96179818D01*
X225897961Y-96188668D01*
X225901544Y-96188922D01*
X225904865Y-96190298D01*
X225924374Y-96192219D01*
X226324835Y-96190298D01*
X226360883Y-96175366D01*
X226388473Y-96147776D01*
X226403405Y-96111728D01*
X226405326Y-96092219D01*
X226404788Y-95806504D01*
X226633898Y-95806504D01*
X226635254Y-95887521D01*
X226634683Y-95889235D01*
X226635467Y-95900279D01*
X226635819Y-95921251D01*
X226637194Y-95924571D01*
X226637449Y-95928155D01*
X226644455Y-95946463D01*
X226693792Y-96041487D01*
X226698369Y-96052537D01*
X226701527Y-96056385D01*
X226702517Y-96058291D01*
X226704511Y-96060020D01*
X226710806Y-96067690D01*
X226760906Y-96115623D01*
X226767824Y-96123600D01*
X226771973Y-96126211D01*
X226773578Y-96127747D01*
X226776018Y-96128757D01*
X226784415Y-96134043D01*
X226867432Y-96173981D01*
X226868817Y-96175366D01*
X226879566Y-96179818D01*
X226897961Y-96188668D01*
X226901544Y-96188922D01*
X226904865Y-96190298D01*
X226924374Y-96192219D01*
X227161174Y-96190453D01*
X227174976Y-96191434D01*
X227179903Y-96190313D01*
X227181978Y-96190298D01*
X227184420Y-96189286D01*
X227194092Y-96187087D01*
X227354849Y-96131477D01*
X227384325Y-96105912D01*
X227401774Y-96071013D01*
X227404541Y-96032093D01*
X227392202Y-95995077D01*
X227366637Y-95965601D01*
X227331738Y-95948151D01*
X227292818Y-95945385D01*
X227273703Y-95949732D01*
X227150626Y-95992307D01*
X226950437Y-95993800D01*
X226890537Y-95964983D01*
X226864763Y-95940324D01*
X226833537Y-95880181D01*
X226832725Y-95831717D01*
X226861132Y-95772669D01*
X226885794Y-95746892D01*
X226953349Y-95711816D01*
X227131707Y-95665537D01*
X227141263Y-95664858D01*
X227155875Y-95659266D01*
X227157564Y-95658828D01*
X227158144Y-95658397D01*
X227159571Y-95657852D01*
X227254600Y-95608511D01*
X227265645Y-95603937D01*
X227269491Y-95600780D01*
X227271399Y-95599790D01*
X227273128Y-95597795D01*
X227280799Y-95591501D01*
X227328732Y-95541398D01*
X227336707Y-95534483D01*
X227339318Y-95530333D01*
X227340854Y-95528729D01*
X227341864Y-95526288D01*
X227347150Y-95517892D01*
X227387088Y-95434874D01*
X227388473Y-95433490D01*
X227392925Y-95422740D01*
X227401775Y-95404346D01*
X227402029Y-95400762D01*
X227403405Y-95397442D01*
X227405326Y-95377933D01*
X227403969Y-95296915D01*
X227404541Y-95295202D01*
X227403756Y-95284157D01*
X227403405Y-95263186D01*
X227402029Y-95259865D01*
X227401775Y-95256282D01*
X227394769Y-95237973D01*
X227345426Y-95142939D01*
X227340854Y-95131899D01*
X227337698Y-95128053D01*
X227336707Y-95126145D01*
X227334709Y-95124412D01*
X227328417Y-95116746D01*
X227302780Y-95092219D01*
X227633898Y-95092219D01*
X227635737Y-95886071D01*
X227634683Y-95889235D01*
X227635780Y-95904679D01*
X227635819Y-95921251D01*
X227637194Y-95924571D01*
X227637449Y-95928155D01*
X227644455Y-95946463D01*
X227693792Y-96041487D01*
X227698369Y-96052537D01*
X227701527Y-96056385D01*
X227702517Y-96058291D01*
X227704511Y-96060020D01*
X227710806Y-96067690D01*
X227760906Y-96115623D01*
X227767824Y-96123600D01*
X227771973Y-96126211D01*
X227773578Y-96127747D01*
X227776018Y-96128757D01*
X227784415Y-96134043D01*
X227867432Y-96173981D01*
X227868817Y-96175366D01*
X227879566Y-96179818D01*
X227897961Y-96188668D01*
X227901544Y-96188922D01*
X227904865Y-96190298D01*
X227924374Y-96192219D01*
X228099881Y-96190613D01*
X228102343Y-96191434D01*
X228115958Y-96190466D01*
X228134359Y-96190298D01*
X228137679Y-96188922D01*
X228141263Y-96188668D01*
X228159571Y-96181662D01*
X228254599Y-96132322D01*
X228265646Y-96127747D01*
X228269492Y-96124589D01*
X228271399Y-96123600D01*
X228273129Y-96121605D01*
X228280799Y-96115310D01*
X228328732Y-96065207D01*
X228336707Y-96058292D01*
X228339318Y-96054142D01*
X228340855Y-96052537D01*
X228341866Y-96050095D01*
X228347150Y-96041701D01*
X228387088Y-95958683D01*
X228388473Y-95957299D01*
X228392925Y-95946549D01*
X228401775Y-95928155D01*
X228402029Y-95924571D01*
X228403405Y-95921251D01*
X228405326Y-95901742D01*
X228403405Y-95072710D01*
X228388473Y-95036662D01*
X228360883Y-95009072D01*
X228324835Y-94994140D01*
X228285817Y-94994140D01*
X228249769Y-95009072D01*
X228222179Y-95036662D01*
X228207247Y-95072710D01*
X228205326Y-95092219D01*
X228207140Y-95875194D01*
X228178091Y-95935576D01*
X228153429Y-95961354D01*
X228093609Y-95992413D01*
X227950280Y-95993724D01*
X227890537Y-95964983D01*
X227864763Y-95940324D01*
X227833849Y-95880782D01*
X227831977Y-95072710D01*
X227817045Y-95036662D01*
X227789455Y-95009072D01*
X227753407Y-94994140D01*
X227714389Y-94994140D01*
X227678341Y-95009072D01*
X227650751Y-95036662D01*
X227635819Y-95072710D01*
X227633898Y-95092219D01*
X227302780Y-95092219D01*
X227278316Y-95068814D01*
X227271399Y-95060838D01*
X227267249Y-95058225D01*
X227265645Y-95056691D01*
X227263205Y-95055680D01*
X227254809Y-95050395D01*
X227171791Y-95010456D01*
X227170407Y-95009072D01*
X227159657Y-95004619D01*
X227141263Y-94995770D01*
X227137679Y-94995515D01*
X227134359Y-94994140D01*
X227114850Y-94992219D01*
X226878048Y-94993984D01*
X226864247Y-94993004D01*
X226859319Y-94994124D01*
X226857246Y-94994140D01*
X226854804Y-94995151D01*
X226845132Y-94997351D01*
X226684375Y-95052961D01*
X226654899Y-95078526D01*
X226637449Y-95113425D01*
X226634683Y-95152345D01*
X226647021Y-95189361D01*
X226672586Y-95218837D01*
X226707485Y-95236287D01*
X226746405Y-95239053D01*
X226765521Y-95234706D01*
X226888597Y-95192130D01*
X227088786Y-95190637D01*
X227148684Y-95219453D01*
X227174461Y-95244115D01*
X227205686Y-95304254D01*
X227206498Y-95352719D01*
X227178090Y-95411769D01*
X227153432Y-95437542D01*
X227085872Y-95472620D01*
X226907516Y-95518899D01*
X226897961Y-95519579D01*
X226883345Y-95525171D01*
X226881660Y-95525609D01*
X226881080Y-95526038D01*
X226879652Y-95526585D01*
X226784618Y-95575927D01*
X226773578Y-95580500D01*
X226769732Y-95583655D01*
X226767824Y-95584647D01*
X226766091Y-95586644D01*
X226758425Y-95592937D01*
X226710493Y-95643037D01*
X226702517Y-95649955D01*
X226699904Y-95654104D01*
X226698370Y-95655709D01*
X226697359Y-95658148D01*
X226692074Y-95666545D01*
X226652135Y-95749562D01*
X226650751Y-95750947D01*
X226646298Y-95761696D01*
X226637449Y-95780091D01*
X226637194Y-95783674D01*
X226635819Y-95786995D01*
X226633898Y-95806504D01*
X226404788Y-95806504D01*
X226403405Y-95072710D01*
X226388473Y-95036662D01*
X226360883Y-95009072D01*
X226324835Y-94994140D01*
X226305326Y-94992219D01*
X225987338Y-94993950D01*
X225984500Y-94993004D01*
X225969845Y-94994045D01*
X225952484Y-94994140D01*
X225949163Y-94995515D01*
X225945580Y-94995770D01*
X225927271Y-95002776D01*
X225832237Y-95052118D01*
X225821197Y-95056691D01*
X225817351Y-95059846D01*
X225815443Y-95060838D01*
X225813710Y-95062835D01*
X225806044Y-95069128D01*
X225758112Y-95119228D01*
X225750136Y-95126146D01*
X225747523Y-95130295D01*
X225745989Y-95131900D01*
X225744978Y-95134339D01*
X225739693Y-95142736D01*
X225699754Y-95225753D01*
X225698370Y-95227138D01*
X225693917Y-95237887D01*
X225685068Y-95256282D01*
X225684813Y-95259865D01*
X225683438Y-95263186D01*
X225681517Y-95282695D01*
X225682873Y-95363712D01*
X225682302Y-95365426D01*
X225683086Y-95376470D01*
X225683438Y-95397442D01*
X225684813Y-95400762D01*
X225685068Y-95404346D01*
X225692074Y-95422654D01*
X225741414Y-95517683D01*
X225745989Y-95528728D01*
X225749145Y-95532574D01*
X225750136Y-95534482D01*
X225752130Y-95536211D01*
X225758425Y-95543882D01*
X225759232Y-95544654D01*
X225758425Y-95545318D01*
X225710493Y-95595418D01*
X225702517Y-95602336D01*
X225699904Y-95606485D01*
X225698370Y-95608090D01*
X225697359Y-95610529D01*
X225692074Y-95618926D01*
X225652135Y-95701943D01*
X225650751Y-95703328D01*
X225646298Y-95714077D01*
X225637449Y-95732472D01*
X225637194Y-95736055D01*
X225635819Y-95739376D01*
X225633898Y-95758885D01*
X225522787Y-95758885D01*
X225522787Y-94881108D01*
X228516437Y-94881108D01*
X228516437Y-96303330D01*
G37*
G36*
X219828316Y-127721424D02*
G01*
X219850665Y-127764468D01*
X219850895Y-127812442D01*
X219577870Y-127758916D01*
X219595246Y-127722799D01*
X219638470Y-127700357D01*
X219781800Y-127699046D01*
X219828316Y-127721424D01*
G37*
G36*
X222566547Y-128167952D02*
G01*
X222447434Y-128168840D01*
X222339589Y-128134240D01*
X222272450Y-128068752D01*
X222236829Y-128000145D01*
X222193350Y-127832580D01*
X222191944Y-127713773D01*
X222232184Y-127546500D01*
X222268106Y-127471830D01*
X222335413Y-127402824D01*
X222438597Y-127367130D01*
X222565036Y-127366187D01*
X222566547Y-128167952D01*
G37*
G36*
X220803744Y-127691503D02*
G01*
X220671916Y-127692136D01*
X220667018Y-127691051D01*
X220660559Y-127692190D01*
X220548305Y-127692729D01*
X220488156Y-127663792D01*
X220462383Y-127639134D01*
X220431264Y-127579199D01*
X220430130Y-127483353D01*
X220458751Y-127423860D01*
X220483413Y-127398083D01*
X220543052Y-127367117D01*
X220803130Y-127365870D01*
X220803744Y-127691503D01*
G37*
G36*
X224613268Y-127691503D02*
G01*
X224357829Y-127692729D01*
X224297680Y-127663792D01*
X224271907Y-127639134D01*
X224240788Y-127579199D01*
X224239654Y-127483353D01*
X224268275Y-127423860D01*
X224292937Y-127398083D01*
X224352576Y-127367117D01*
X224612654Y-127365870D01*
X224613268Y-127691503D01*
G37*
G36*
X229565649Y-127691503D02*
G01*
X229310210Y-127692729D01*
X229250061Y-127663792D01*
X229224288Y-127639134D01*
X229193169Y-127579199D01*
X229192035Y-127483353D01*
X229220656Y-127423860D01*
X229245318Y-127398083D01*
X229304957Y-127367117D01*
X229565035Y-127365870D01*
X229565649Y-127691503D01*
G37*
G36*
X230875961Y-128857361D02*
G01*
X217834691Y-128857361D01*
X217834691Y-127981609D01*
X217945802Y-127981609D01*
X217947721Y-128000894D01*
X217947723Y-128001013D01*
X217947737Y-128001047D01*
X217947744Y-128001116D01*
X217994588Y-128226731D01*
X217994206Y-128232107D01*
X217998553Y-128251223D01*
X218044183Y-128383130D01*
X218044591Y-128388870D01*
X218051597Y-128407178D01*
X218095360Y-128491467D01*
X218096231Y-128495867D01*
X218105454Y-128513165D01*
X218197510Y-128648288D01*
X218200750Y-128656109D01*
X218213047Y-128671093D01*
X218213112Y-128671189D01*
X218213141Y-128671208D01*
X218213186Y-128671263D01*
X218275958Y-128731318D01*
X218312007Y-128746249D01*
X218351025Y-128746249D01*
X218387073Y-128731318D01*
X218414663Y-128703728D01*
X218429594Y-128667680D01*
X224995343Y-128667680D01*
X225010275Y-128703728D01*
X225037865Y-128731318D01*
X225073913Y-128746250D01*
X225112931Y-128746250D01*
X225148979Y-128731318D01*
X225164133Y-128718882D01*
X225206080Y-128675036D01*
X225211826Y-128671189D01*
X225224090Y-128656212D01*
X225224188Y-128656110D01*
X225224202Y-128656075D01*
X225224246Y-128656022D01*
X225311445Y-128522331D01*
X225315279Y-128519007D01*
X225325722Y-128502416D01*
X225367303Y-128415982D01*
X225370775Y-128411980D01*
X225378766Y-128394080D01*
X225421122Y-128262060D01*
X225421312Y-128261776D01*
X225707856Y-128261776D01*
X225713374Y-128300402D01*
X225733253Y-128333977D01*
X225764468Y-128357388D01*
X225802265Y-128367071D01*
X225840891Y-128361553D01*
X225874466Y-128341674D01*
X225887708Y-128327219D01*
X226246987Y-127845557D01*
X226280288Y-127878704D01*
X226281057Y-128286728D01*
X226295989Y-128322776D01*
X226323579Y-128350366D01*
X226359627Y-128365298D01*
X226398645Y-128365298D01*
X226434693Y-128350366D01*
X226462283Y-128322776D01*
X226477215Y-128286728D01*
X226614391Y-128286728D01*
X226629323Y-128322776D01*
X226656913Y-128350366D01*
X226692961Y-128365298D01*
X226712470Y-128367219D01*
X227208169Y-128365298D01*
X227244217Y-128350366D01*
X227271807Y-128322776D01*
X227286739Y-128286728D01*
X227288660Y-128267219D01*
X227288517Y-128191488D01*
X227519153Y-128191488D01*
X227534084Y-128227537D01*
X227546521Y-128242690D01*
X227585284Y-128279776D01*
X227585852Y-128280912D01*
X227592473Y-128286654D01*
X227609293Y-128302747D01*
X227612612Y-128304122D01*
X227615328Y-128306477D01*
X227633228Y-128314468D01*
X227776312Y-128360374D01*
X227788199Y-128365298D01*
X227793191Y-128365789D01*
X227795200Y-128366434D01*
X227797834Y-128366246D01*
X227807708Y-128367219D01*
X227903850Y-128365609D01*
X227915453Y-128366434D01*
X227920289Y-128365334D01*
X227922455Y-128365298D01*
X227924897Y-128364286D01*
X227934569Y-128362087D01*
X228062946Y-128317678D01*
X228065313Y-128317678D01*
X228077305Y-128312710D01*
X228095326Y-128306477D01*
X228098041Y-128304122D01*
X228101361Y-128302747D01*
X228116514Y-128290310D01*
X228210531Y-128193920D01*
X228220041Y-128185673D01*
X228222707Y-128181437D01*
X228224189Y-128179918D01*
X228225200Y-128177476D01*
X228230484Y-128169082D01*
X228273912Y-128078810D01*
X228279079Y-128071837D01*
X228284307Y-128057202D01*
X228285109Y-128055536D01*
X228285160Y-128054815D01*
X228285674Y-128053377D01*
X228330253Y-127868064D01*
X228334358Y-127858156D01*
X228335550Y-127846046D01*
X228336161Y-127843508D01*
X228335943Y-127842049D01*
X228336279Y-127838647D01*
X228334651Y-127701073D01*
X228336161Y-127690929D01*
X228334389Y-127678950D01*
X228334358Y-127676281D01*
X228333793Y-127674917D01*
X228333293Y-127671536D01*
X228285788Y-127488456D01*
X228285109Y-127478901D01*
X228279516Y-127464285D01*
X228279079Y-127462600D01*
X228278649Y-127462020D01*
X228278103Y-127460592D01*
X228228760Y-127365558D01*
X228224188Y-127354519D01*
X228221032Y-127350674D01*
X228220041Y-127348764D01*
X228218043Y-127347031D01*
X228211752Y-127339365D01*
X228137785Y-127267219D01*
X228564850Y-127267219D01*
X228566771Y-128286728D01*
X228581703Y-128322776D01*
X228609293Y-128350366D01*
X228645341Y-128365298D01*
X228684359Y-128365298D01*
X228720407Y-128350366D01*
X228747997Y-128322776D01*
X228762929Y-128286728D01*
X228764850Y-128267219D01*
X228763325Y-127457695D01*
X228993422Y-127457695D01*
X228994938Y-127585851D01*
X228994207Y-127588045D01*
X228995115Y-127600827D01*
X228995343Y-127620061D01*
X228996718Y-127623381D01*
X228996973Y-127626965D01*
X229003979Y-127645273D01*
X229053319Y-127740302D01*
X229057894Y-127751347D01*
X229061050Y-127755193D01*
X229062041Y-127757101D01*
X229064035Y-127758830D01*
X229070330Y-127766501D01*
X229120432Y-127814434D01*
X229127348Y-127822409D01*
X229131497Y-127825020D01*
X229133102Y-127826556D01*
X229135542Y-127827566D01*
X229143939Y-127832852D01*
X229226956Y-127872790D01*
X229228341Y-127874175D01*
X229239090Y-127878627D01*
X229257485Y-127887477D01*
X229261068Y-127887731D01*
X229264389Y-127889107D01*
X229283898Y-127891028D01*
X229566022Y-127889674D01*
X229566771Y-128286728D01*
X229581703Y-128322776D01*
X229609293Y-128350366D01*
X229645341Y-128365298D01*
X229684359Y-128365298D01*
X229720407Y-128350366D01*
X229747997Y-128322776D01*
X229762929Y-128286728D01*
X229764850Y-128267219D01*
X229764312Y-127981504D01*
X229993422Y-127981504D01*
X229994778Y-128062521D01*
X229994207Y-128064235D01*
X229994991Y-128075279D01*
X229995343Y-128096251D01*
X229996718Y-128099571D01*
X229996973Y-128103155D01*
X230003979Y-128121463D01*
X230053316Y-128216487D01*
X230057893Y-128227537D01*
X230061051Y-128231385D01*
X230062041Y-128233291D01*
X230064035Y-128235020D01*
X230070330Y-128242690D01*
X230120430Y-128290623D01*
X230127348Y-128298600D01*
X230131497Y-128301211D01*
X230133102Y-128302747D01*
X230135542Y-128303757D01*
X230143939Y-128309043D01*
X230226956Y-128348981D01*
X230228341Y-128350366D01*
X230239090Y-128354818D01*
X230257485Y-128363668D01*
X230261068Y-128363922D01*
X230264389Y-128365298D01*
X230283898Y-128367219D01*
X230520698Y-128365453D01*
X230534500Y-128366434D01*
X230539427Y-128365313D01*
X230541502Y-128365298D01*
X230543944Y-128364286D01*
X230553616Y-128362087D01*
X230714373Y-128306477D01*
X230743849Y-128280912D01*
X230761298Y-128246013D01*
X230764065Y-128207093D01*
X230751726Y-128170077D01*
X230726161Y-128140601D01*
X230691262Y-128123151D01*
X230652342Y-128120385D01*
X230633227Y-128124732D01*
X230510150Y-128167307D01*
X230309961Y-128168800D01*
X230250061Y-128139983D01*
X230224287Y-128115324D01*
X230193061Y-128055181D01*
X230192249Y-128006717D01*
X230220656Y-127947669D01*
X230245318Y-127921892D01*
X230312873Y-127886816D01*
X230491231Y-127840537D01*
X230500787Y-127839858D01*
X230515399Y-127834266D01*
X230517088Y-127833828D01*
X230517668Y-127833397D01*
X230519095Y-127832852D01*
X230614124Y-127783511D01*
X230625169Y-127778937D01*
X230629015Y-127775780D01*
X230630923Y-127774790D01*
X230632652Y-127772795D01*
X230640323Y-127766501D01*
X230688256Y-127716398D01*
X230696231Y-127709483D01*
X230698842Y-127705333D01*
X230700378Y-127703729D01*
X230701388Y-127701288D01*
X230706674Y-127692892D01*
X230746612Y-127609874D01*
X230747997Y-127608490D01*
X230752449Y-127597740D01*
X230761299Y-127579346D01*
X230761553Y-127575762D01*
X230762929Y-127572442D01*
X230764850Y-127552933D01*
X230763493Y-127471915D01*
X230764065Y-127470202D01*
X230763280Y-127459157D01*
X230762929Y-127438186D01*
X230761553Y-127434865D01*
X230761299Y-127431282D01*
X230754293Y-127412973D01*
X230704950Y-127317939D01*
X230700378Y-127306899D01*
X230697222Y-127303053D01*
X230696231Y-127301145D01*
X230694233Y-127299412D01*
X230687941Y-127291746D01*
X230637840Y-127243814D01*
X230630923Y-127235838D01*
X230626773Y-127233225D01*
X230625169Y-127231691D01*
X230622729Y-127230680D01*
X230614333Y-127225395D01*
X230531315Y-127185456D01*
X230529931Y-127184072D01*
X230519181Y-127179619D01*
X230500787Y-127170770D01*
X230497203Y-127170515D01*
X230493883Y-127169140D01*
X230474374Y-127167219D01*
X230237572Y-127168984D01*
X230223771Y-127168004D01*
X230218843Y-127169124D01*
X230216770Y-127169140D01*
X230214328Y-127170151D01*
X230204656Y-127172351D01*
X230043899Y-127227961D01*
X230014423Y-127253526D01*
X229996973Y-127288425D01*
X229994207Y-127327345D01*
X230006545Y-127364361D01*
X230032110Y-127393837D01*
X230067009Y-127411287D01*
X230105929Y-127414053D01*
X230125045Y-127409706D01*
X230248121Y-127367130D01*
X230448310Y-127365637D01*
X230508208Y-127394453D01*
X230533985Y-127419115D01*
X230565210Y-127479254D01*
X230566022Y-127527719D01*
X230537614Y-127586769D01*
X230512956Y-127612542D01*
X230445396Y-127647620D01*
X230267040Y-127693899D01*
X230257485Y-127694579D01*
X230242869Y-127700171D01*
X230241184Y-127700609D01*
X230240604Y-127701038D01*
X230239176Y-127701585D01*
X230144142Y-127750927D01*
X230133102Y-127755500D01*
X230129256Y-127758655D01*
X230127348Y-127759647D01*
X230125615Y-127761644D01*
X230117949Y-127767937D01*
X230070017Y-127818037D01*
X230062041Y-127824955D01*
X230059428Y-127829104D01*
X230057894Y-127830709D01*
X230056883Y-127833148D01*
X230051598Y-127841545D01*
X230011659Y-127924562D01*
X230010275Y-127925947D01*
X230005822Y-127936696D01*
X229996973Y-127955091D01*
X229996718Y-127958674D01*
X229995343Y-127961995D01*
X229993422Y-127981504D01*
X229764312Y-127981504D01*
X229762929Y-127247710D01*
X229747997Y-127211662D01*
X229720407Y-127184072D01*
X229684359Y-127169140D01*
X229664850Y-127167219D01*
X229299310Y-127168972D01*
X229296405Y-127168004D01*
X229281580Y-127169057D01*
X229264389Y-127169140D01*
X229261068Y-127170515D01*
X229257485Y-127170770D01*
X229239176Y-127177776D01*
X229144142Y-127227118D01*
X229133102Y-127231691D01*
X229129256Y-127234846D01*
X229127348Y-127235838D01*
X229125615Y-127237835D01*
X229117949Y-127244128D01*
X229070017Y-127294228D01*
X229062041Y-127301146D01*
X229059428Y-127305295D01*
X229057894Y-127306900D01*
X229056883Y-127309339D01*
X229051598Y-127317736D01*
X229011659Y-127400753D01*
X229010275Y-127402138D01*
X229005822Y-127412887D01*
X228996973Y-127431282D01*
X228996718Y-127434865D01*
X228995343Y-127438186D01*
X228993422Y-127457695D01*
X228763325Y-127457695D01*
X228762929Y-127247710D01*
X228747997Y-127211662D01*
X228720407Y-127184072D01*
X228684359Y-127169140D01*
X228645341Y-127169140D01*
X228609293Y-127184072D01*
X228581703Y-127211662D01*
X228566771Y-127247710D01*
X228564850Y-127267219D01*
X228137785Y-127267219D01*
X228125807Y-127255536D01*
X228124802Y-127253526D01*
X228115272Y-127245260D01*
X228101360Y-127231691D01*
X228098041Y-127230316D01*
X228095326Y-127227961D01*
X228077425Y-127219970D01*
X227934345Y-127174065D01*
X227922455Y-127169140D01*
X227917461Y-127168648D01*
X227915453Y-127168004D01*
X227912819Y-127168191D01*
X227902946Y-127167219D01*
X227806802Y-127168828D01*
X227795200Y-127168004D01*
X227790364Y-127169103D01*
X227788199Y-127169140D01*
X227785757Y-127170151D01*
X227776085Y-127172351D01*
X227647708Y-127216760D01*
X227645342Y-127216760D01*
X227633352Y-127221725D01*
X227615328Y-127227961D01*
X227612612Y-127230316D01*
X227609293Y-127231691D01*
X227594140Y-127244128D01*
X227534085Y-127306900D01*
X227519153Y-127342948D01*
X227519153Y-127381966D01*
X227534085Y-127418014D01*
X227561675Y-127445604D01*
X227597723Y-127460536D01*
X227636741Y-127460536D01*
X227672789Y-127445604D01*
X227687943Y-127433168D01*
X227717272Y-127402511D01*
X227819884Y-127367015D01*
X227883370Y-127365952D01*
X227990110Y-127400198D01*
X228057251Y-127465685D01*
X228092871Y-127534289D01*
X228136350Y-127701856D01*
X228137756Y-127820664D01*
X228097516Y-127987936D01*
X228061594Y-128062606D01*
X227994285Y-128131614D01*
X227890769Y-128167422D01*
X227827282Y-128168485D01*
X227720102Y-128134098D01*
X227672790Y-128088833D01*
X227636742Y-128073902D01*
X227597724Y-128073901D01*
X227561675Y-128088832D01*
X227534085Y-128116422D01*
X227519154Y-128152470D01*
X227519153Y-128191488D01*
X227288517Y-128191488D01*
X227286739Y-127247710D01*
X227271807Y-127211662D01*
X227244217Y-127184072D01*
X227208169Y-127169140D01*
X227169151Y-127169140D01*
X227133103Y-127184072D01*
X227105513Y-127211662D01*
X227090581Y-127247710D01*
X227088660Y-127267219D01*
X227090356Y-128167599D01*
X226692961Y-128169140D01*
X226656913Y-128184072D01*
X226629323Y-128211662D01*
X226614391Y-128247710D01*
X226614391Y-128286728D01*
X226477215Y-128286728D01*
X226479136Y-128267219D01*
X226477215Y-127247710D01*
X226462283Y-127211662D01*
X226434693Y-127184072D01*
X226398645Y-127169140D01*
X226359627Y-127169140D01*
X226323579Y-127184072D01*
X226295989Y-127211662D01*
X226281057Y-127247710D01*
X226279136Y-127267219D01*
X226279760Y-127598637D01*
X225863265Y-127184072D01*
X225827217Y-127169140D01*
X225788199Y-127169140D01*
X225752151Y-127184072D01*
X225724561Y-127211662D01*
X225709629Y-127247710D01*
X225709629Y-127286728D01*
X225724561Y-127322776D01*
X225736997Y-127337930D01*
X226105131Y-127704359D01*
X225717539Y-128223979D01*
X225707856Y-128261776D01*
X225421312Y-128261776D01*
X225423865Y-128257965D01*
X225429575Y-128239212D01*
X225473831Y-128009182D01*
X225477215Y-128001013D01*
X225479114Y-127981719D01*
X225479136Y-127981609D01*
X225479129Y-127981574D01*
X225479136Y-127981504D01*
X225477469Y-127799346D01*
X225479136Y-127790923D01*
X225477216Y-127771637D01*
X225477215Y-127771519D01*
X225477200Y-127771484D01*
X225477194Y-127771416D01*
X225430349Y-127545801D01*
X225430732Y-127540425D01*
X225426385Y-127521310D01*
X225380754Y-127389402D01*
X225380347Y-127383663D01*
X225373341Y-127365354D01*
X225329578Y-127281066D01*
X225328708Y-127276667D01*
X225319484Y-127259369D01*
X225227427Y-127124244D01*
X225224188Y-127116422D01*
X225211895Y-127101445D01*
X225211826Y-127101343D01*
X225211794Y-127101321D01*
X225211751Y-127101269D01*
X225148979Y-127041214D01*
X225112931Y-127026282D01*
X225073913Y-127026282D01*
X225037865Y-127041214D01*
X225010275Y-127068804D01*
X224995343Y-127104852D01*
X224995343Y-127143870D01*
X225010275Y-127179918D01*
X225022711Y-127195072D01*
X225060235Y-127230972D01*
X225145551Y-127356202D01*
X225146836Y-127359559D01*
X225188676Y-127440144D01*
X225189030Y-127441699D01*
X225233121Y-127569159D01*
X225233459Y-127572545D01*
X225279150Y-127792608D01*
X225280716Y-127963772D01*
X225238286Y-128184310D01*
X225236649Y-128187978D01*
X225195603Y-128315910D01*
X225194455Y-128317736D01*
X225154855Y-128400049D01*
X225153074Y-128402225D01*
X225068777Y-128531464D01*
X225010275Y-128592614D01*
X224995343Y-128628662D01*
X224995343Y-128667680D01*
X218429594Y-128667680D01*
X218429594Y-128628662D01*
X218414663Y-128592613D01*
X218402226Y-128577460D01*
X218364703Y-128541561D01*
X218279386Y-128416330D01*
X218278102Y-128412973D01*
X218236261Y-128332387D01*
X218235908Y-128330834D01*
X218191816Y-128203373D01*
X218191479Y-128199988D01*
X218165889Y-128076742D01*
X218564850Y-128076742D01*
X218565837Y-128111245D01*
X218565635Y-128111853D01*
X218566002Y-128117029D01*
X218566771Y-128143870D01*
X218568146Y-128147190D01*
X218568401Y-128150773D01*
X218575407Y-128169082D01*
X218622444Y-128259677D01*
X218625593Y-128269123D01*
X218629967Y-128274167D01*
X218633469Y-128280911D01*
X218642940Y-128289125D01*
X218651157Y-128298600D01*
X218661027Y-128304812D01*
X218662945Y-128306476D01*
X218664485Y-128306989D01*
X218667748Y-128309043D01*
X218750765Y-128348981D01*
X218752150Y-128350366D01*
X218762899Y-128354818D01*
X218781294Y-128363668D01*
X218784877Y-128363922D01*
X218788198Y-128365298D01*
X218807707Y-128367219D01*
X218983214Y-128365613D01*
X218985676Y-128366434D01*
X218999291Y-128365466D01*
X219017692Y-128365298D01*
X219021012Y-128363922D01*
X219024596Y-128363668D01*
X219042904Y-128356662D01*
X219154732Y-128298600D01*
X219180297Y-128269123D01*
X219192635Y-128232107D01*
X219189870Y-128193187D01*
X219172421Y-128158289D01*
X219142944Y-128132724D01*
X219105928Y-128120385D01*
X219067008Y-128123151D01*
X219048699Y-128130157D01*
X218976942Y-128167413D01*
X218833613Y-128168724D01*
X218787098Y-128146346D01*
X218764218Y-128102279D01*
X218764179Y-128100913D01*
X218785722Y-128056132D01*
X218829058Y-128033632D01*
X218935863Y-128032368D01*
X218938057Y-128033100D01*
X218950839Y-128032191D01*
X218970073Y-128031964D01*
X218973393Y-128030588D01*
X218976977Y-128030334D01*
X218995285Y-128023328D01*
X219085879Y-127976290D01*
X219095325Y-127973142D01*
X219100369Y-127968767D01*
X219107113Y-127965266D01*
X219115326Y-127955795D01*
X219124802Y-127947578D01*
X219131016Y-127937704D01*
X219132678Y-127935789D01*
X219133190Y-127934250D01*
X219135245Y-127930987D01*
X219175183Y-127847969D01*
X219176568Y-127846585D01*
X219179899Y-127838542D01*
X219374374Y-127838542D01*
X219376113Y-127847337D01*
X219376295Y-127858156D01*
X219380044Y-127867208D01*
X219381946Y-127876819D01*
X219387437Y-127885055D01*
X219391227Y-127894204D01*
X219398153Y-127901130D01*
X219403589Y-127909284D01*
X219411817Y-127914794D01*
X219418817Y-127921794D01*
X219427868Y-127925543D01*
X219436009Y-127930995D01*
X219454762Y-127936705D01*
X219454861Y-127936724D01*
X219454865Y-127936726D01*
X219454869Y-127936726D01*
X219851864Y-128014555D01*
X219852265Y-128098048D01*
X219829692Y-128144970D01*
X219786466Y-128167413D01*
X219643137Y-128168724D01*
X219548406Y-128123151D01*
X219509486Y-128120385D01*
X219472470Y-128132724D01*
X219442993Y-128158288D01*
X219425544Y-128193187D01*
X219422778Y-128232107D01*
X219435117Y-128269123D01*
X219460681Y-128298600D01*
X219477272Y-128309043D01*
X219560289Y-128348981D01*
X219561674Y-128350366D01*
X219572423Y-128354818D01*
X219590818Y-128363668D01*
X219594401Y-128363922D01*
X219597722Y-128365298D01*
X219617231Y-128367219D01*
X219792738Y-128365613D01*
X219795200Y-128366434D01*
X219808815Y-128365466D01*
X219827216Y-128365298D01*
X219830536Y-128363922D01*
X219834120Y-128363668D01*
X219852428Y-128356662D01*
X219943022Y-128309624D01*
X219952468Y-128306476D01*
X219957511Y-128302101D01*
X219964256Y-128298600D01*
X219972471Y-128289126D01*
X219981945Y-128280911D01*
X219988158Y-128271039D01*
X219989821Y-128269123D01*
X219990333Y-128267584D01*
X219992388Y-128264321D01*
X220032326Y-128181302D01*
X220033711Y-128179918D01*
X220038163Y-128169169D01*
X220047013Y-128150774D01*
X220047267Y-128147190D01*
X220048643Y-128143870D01*
X220050564Y-128124361D01*
X220049672Y-127938449D01*
X220050564Y-127933990D01*
X220049628Y-127929258D01*
X220048810Y-127758821D01*
X220049779Y-127755916D01*
X220048725Y-127741091D01*
X220048643Y-127723900D01*
X220047267Y-127720579D01*
X220047013Y-127716996D01*
X220040007Y-127698687D01*
X219992967Y-127608089D01*
X219989821Y-127598648D01*
X219985448Y-127593605D01*
X219981945Y-127586859D01*
X219972469Y-127578641D01*
X219964256Y-127569171D01*
X219954384Y-127562957D01*
X219952468Y-127561295D01*
X219950929Y-127560781D01*
X219947666Y-127558728D01*
X219864648Y-127518789D01*
X219863264Y-127517405D01*
X219852514Y-127512952D01*
X219834120Y-127504103D01*
X219830536Y-127503848D01*
X219827216Y-127502473D01*
X219807707Y-127500552D01*
X219632199Y-127502157D01*
X219629738Y-127501337D01*
X219616122Y-127502304D01*
X219597722Y-127502473D01*
X219594401Y-127503848D01*
X219590818Y-127504103D01*
X219572509Y-127511109D01*
X219481911Y-127558148D01*
X219472470Y-127561295D01*
X219467427Y-127565667D01*
X219460681Y-127569171D01*
X219452463Y-127578646D01*
X219442993Y-127586860D01*
X219436779Y-127596731D01*
X219435117Y-127598648D01*
X219434603Y-127600186D01*
X219432550Y-127603450D01*
X219392611Y-127686467D01*
X219391227Y-127687852D01*
X219386774Y-127698601D01*
X219377925Y-127716996D01*
X219377670Y-127720579D01*
X219376295Y-127723900D01*
X219374374Y-127743409D01*
X219375843Y-127831193D01*
X219374374Y-127838542D01*
X219179899Y-127838542D01*
X219181020Y-127835835D01*
X219189870Y-127817441D01*
X219190124Y-127813857D01*
X219191500Y-127810537D01*
X219193421Y-127791028D01*
X219192433Y-127756523D01*
X219192636Y-127755916D01*
X219192268Y-127750738D01*
X219191500Y-127723900D01*
X219190124Y-127720579D01*
X219189870Y-127716996D01*
X219182864Y-127698687D01*
X219135824Y-127608089D01*
X219132678Y-127598648D01*
X219128305Y-127593605D01*
X219124802Y-127586859D01*
X219115326Y-127578641D01*
X219107113Y-127569171D01*
X219097241Y-127562957D01*
X219095325Y-127561295D01*
X219093786Y-127560781D01*
X219090523Y-127558728D01*
X219007505Y-127518789D01*
X219006121Y-127517405D01*
X218995371Y-127512952D01*
X218976977Y-127504103D01*
X218973393Y-127503848D01*
X218970073Y-127502473D01*
X218950564Y-127500552D01*
X218822407Y-127502068D01*
X218820214Y-127501337D01*
X218807431Y-127502245D01*
X218788198Y-127502473D01*
X218784877Y-127503848D01*
X218781294Y-127504103D01*
X218762985Y-127511109D01*
X218651157Y-127569171D01*
X218625593Y-127598648D01*
X218613254Y-127635664D01*
X218616020Y-127674584D01*
X218633469Y-127709483D01*
X218662946Y-127735047D01*
X218699962Y-127747386D01*
X218738882Y-127744620D01*
X218757190Y-127737614D01*
X218829058Y-127700299D01*
X218924905Y-127699165D01*
X218971173Y-127721424D01*
X218994052Y-127765490D01*
X218994091Y-127766856D01*
X218972549Y-127811636D01*
X218929211Y-127834137D01*
X218822407Y-127835401D01*
X218820214Y-127834670D01*
X218807431Y-127835578D01*
X218788198Y-127835806D01*
X218784877Y-127837181D01*
X218781294Y-127837436D01*
X218762985Y-127844442D01*
X218672387Y-127891481D01*
X218662946Y-127894628D01*
X218657903Y-127899000D01*
X218651157Y-127902504D01*
X218642939Y-127911979D01*
X218633469Y-127920193D01*
X218627255Y-127930064D01*
X218625593Y-127931981D01*
X218625079Y-127933519D01*
X218623026Y-127936783D01*
X218583087Y-128019800D01*
X218581703Y-128021185D01*
X218577250Y-128031934D01*
X218568401Y-128050329D01*
X218568146Y-128053912D01*
X218566771Y-128057233D01*
X218564850Y-128076742D01*
X218165889Y-128076742D01*
X218145787Y-127979923D01*
X218144221Y-127808760D01*
X218186651Y-127588224D01*
X218188289Y-127584556D01*
X218228989Y-127457695D01*
X220231517Y-127457695D01*
X220233033Y-127585851D01*
X220232302Y-127588045D01*
X220233210Y-127600827D01*
X220233438Y-127620061D01*
X220234813Y-127623381D01*
X220235068Y-127626965D01*
X220242074Y-127645273D01*
X220291414Y-127740302D01*
X220295989Y-127751347D01*
X220299145Y-127755193D01*
X220300136Y-127757101D01*
X220302130Y-127758830D01*
X220308425Y-127766501D01*
X220358527Y-127814434D01*
X220365443Y-127822409D01*
X220369592Y-127825020D01*
X220371197Y-127826556D01*
X220373637Y-127827566D01*
X220382034Y-127832852D01*
X220465051Y-127872790D01*
X220466436Y-127874175D01*
X220477185Y-127878627D01*
X220480908Y-127880418D01*
X220239980Y-128226957D01*
X220231540Y-128265051D01*
X220238321Y-128303476D01*
X220259290Y-128336381D01*
X220291255Y-128358756D01*
X220329349Y-128367196D01*
X220367774Y-128360415D01*
X220400679Y-128339446D01*
X220413440Y-128324565D01*
X220715499Y-127890099D01*
X220804117Y-127889674D01*
X220804866Y-128286728D01*
X220819798Y-128322776D01*
X220847388Y-128350366D01*
X220883436Y-128365298D01*
X220922454Y-128365298D01*
X220958502Y-128350366D01*
X220986092Y-128322776D01*
X221001024Y-128286728D01*
X221002945Y-128267219D01*
X221001868Y-127695790D01*
X221993422Y-127695790D01*
X221995049Y-127833363D01*
X221993540Y-127843508D01*
X221995311Y-127855486D01*
X221995343Y-127858156D01*
X221995907Y-127859519D01*
X221996408Y-127862901D01*
X222043912Y-128045980D01*
X222044592Y-128055536D01*
X222050183Y-128070148D01*
X222050622Y-128071837D01*
X222051052Y-128072417D01*
X222051598Y-128073844D01*
X222100934Y-128168866D01*
X222105512Y-128179918D01*
X222108670Y-128183766D01*
X222109660Y-128185672D01*
X222111654Y-128187401D01*
X222117949Y-128195071D01*
X222203894Y-128278902D01*
X222204899Y-128280912D01*
X222214423Y-128289172D01*
X222228340Y-128302747D01*
X222231659Y-128304122D01*
X222234375Y-128306477D01*
X222252275Y-128314468D01*
X222395359Y-128360374D01*
X222407246Y-128365298D01*
X222412238Y-128365789D01*
X222414247Y-128366434D01*
X222416881Y-128366246D01*
X222426755Y-128367219D01*
X222684359Y-128365298D01*
X222720407Y-128350366D01*
X222747997Y-128322776D01*
X222762929Y-128286728D01*
X222764850Y-128267219D01*
X222762929Y-127247710D01*
X222751242Y-127219495D01*
X222898184Y-127219495D01*
X222905756Y-127257772D01*
X222914979Y-127275070D01*
X223784541Y-128575951D01*
X223816961Y-128597662D01*
X223855222Y-128605314D01*
X223893498Y-128597743D01*
X223925963Y-128576099D01*
X223947674Y-128543679D01*
X223955326Y-128505419D01*
X223947755Y-128467142D01*
X223938531Y-128449844D01*
X223275338Y-127457695D01*
X224041041Y-127457695D01*
X224042557Y-127585851D01*
X224041826Y-127588045D01*
X224042734Y-127600827D01*
X224042962Y-127620061D01*
X224044337Y-127623381D01*
X224044592Y-127626965D01*
X224051598Y-127645273D01*
X224100938Y-127740302D01*
X224105513Y-127751347D01*
X224108669Y-127755193D01*
X224109660Y-127757101D01*
X224111654Y-127758830D01*
X224117949Y-127766501D01*
X224168051Y-127814434D01*
X224174967Y-127822409D01*
X224179116Y-127825020D01*
X224180721Y-127826556D01*
X224183161Y-127827566D01*
X224191558Y-127832852D01*
X224274575Y-127872790D01*
X224275960Y-127874175D01*
X224286709Y-127878627D01*
X224305104Y-127887477D01*
X224308687Y-127887731D01*
X224312008Y-127889107D01*
X224331517Y-127891028D01*
X224613641Y-127889674D01*
X224614390Y-128286728D01*
X224629322Y-128322776D01*
X224656912Y-128350366D01*
X224692960Y-128365298D01*
X224731978Y-128365298D01*
X224768026Y-128350366D01*
X224795616Y-128322776D01*
X224810548Y-128286728D01*
X224812469Y-128267219D01*
X224810548Y-127247710D01*
X224795616Y-127211662D01*
X224768026Y-127184072D01*
X224731978Y-127169140D01*
X224712469Y-127167219D01*
X224346929Y-127168972D01*
X224344024Y-127168004D01*
X224329199Y-127169057D01*
X224312008Y-127169140D01*
X224308687Y-127170515D01*
X224305104Y-127170770D01*
X224286795Y-127177776D01*
X224191761Y-127227118D01*
X224180721Y-127231691D01*
X224176875Y-127234846D01*
X224174967Y-127235838D01*
X224173234Y-127237835D01*
X224165568Y-127244128D01*
X224117636Y-127294228D01*
X224109660Y-127301146D01*
X224107047Y-127305295D01*
X224105513Y-127306900D01*
X224104502Y-127309339D01*
X224099217Y-127317736D01*
X224059278Y-127400753D01*
X224057894Y-127402138D01*
X224053441Y-127412887D01*
X224044592Y-127431282D01*
X224044337Y-127434865D01*
X224042962Y-127438186D01*
X224041041Y-127457695D01*
X223275338Y-127457695D01*
X223068969Y-127148963D01*
X223036549Y-127127252D01*
X222998289Y-127119600D01*
X222960012Y-127127172D01*
X222927547Y-127148815D01*
X222905836Y-127181235D01*
X222898184Y-127219495D01*
X222751242Y-127219495D01*
X222747997Y-127211662D01*
X222720407Y-127184072D01*
X222684359Y-127169140D01*
X222664850Y-127167219D01*
X222428048Y-127168984D01*
X222414247Y-127168004D01*
X222409319Y-127169124D01*
X222407246Y-127169140D01*
X222404804Y-127170151D01*
X222395132Y-127172351D01*
X222266758Y-127216759D01*
X222264389Y-127216759D01*
X222252392Y-127221728D01*
X222234375Y-127227961D01*
X222231659Y-127230316D01*
X222228341Y-127231691D01*
X222213187Y-127244127D01*
X222119170Y-127340516D01*
X222109660Y-127348765D01*
X222106993Y-127353001D01*
X222105513Y-127354519D01*
X222104502Y-127356958D01*
X222099217Y-127365355D01*
X222055788Y-127455626D01*
X222050622Y-127462600D01*
X222045394Y-127477232D01*
X222044592Y-127478901D01*
X222044540Y-127479623D01*
X222044027Y-127481061D01*
X221999447Y-127666371D01*
X221995343Y-127676281D01*
X221994150Y-127688390D01*
X221993540Y-127690929D01*
X221993757Y-127692387D01*
X221993422Y-127695790D01*
X221001868Y-127695790D01*
X221001024Y-127247710D01*
X220986092Y-127211662D01*
X220958502Y-127184072D01*
X220922454Y-127169140D01*
X220902945Y-127167219D01*
X220537405Y-127168972D01*
X220534500Y-127168004D01*
X220519675Y-127169057D01*
X220502484Y-127169140D01*
X220499163Y-127170515D01*
X220495580Y-127170770D01*
X220477271Y-127177776D01*
X220382237Y-127227118D01*
X220371197Y-127231691D01*
X220367351Y-127234846D01*
X220365443Y-127235838D01*
X220363710Y-127237835D01*
X220356044Y-127244128D01*
X220308112Y-127294228D01*
X220300136Y-127301146D01*
X220297523Y-127305295D01*
X220295989Y-127306900D01*
X220294978Y-127309339D01*
X220289693Y-127317736D01*
X220249754Y-127400753D01*
X220248370Y-127402138D01*
X220243917Y-127412887D01*
X220235068Y-127431282D01*
X220234813Y-127434865D01*
X220233438Y-127438186D01*
X220231517Y-127457695D01*
X218228989Y-127457695D01*
X218229334Y-127456621D01*
X218230483Y-127454797D01*
X218270082Y-127372483D01*
X218271864Y-127370308D01*
X218356159Y-127241068D01*
X218414663Y-127179919D01*
X218429594Y-127143870D01*
X218429594Y-127104852D01*
X218414663Y-127068804D01*
X218387073Y-127041214D01*
X218351025Y-127026283D01*
X218312007Y-127026283D01*
X218275958Y-127041214D01*
X218260805Y-127053651D01*
X218218859Y-127097493D01*
X218213112Y-127101343D01*
X218200841Y-127116326D01*
X218200750Y-127116423D01*
X218200736Y-127116455D01*
X218200692Y-127116510D01*
X218113491Y-127250203D01*
X218109659Y-127253527D01*
X218099216Y-127270117D01*
X218057634Y-127356550D01*
X218054163Y-127360553D01*
X218046172Y-127378454D01*
X218003816Y-127510471D01*
X218001073Y-127514568D01*
X217995363Y-127533322D01*
X217951106Y-127763349D01*
X217947723Y-127771519D01*
X217945823Y-127790812D01*
X217945802Y-127790923D01*
X217945808Y-127790957D01*
X217945802Y-127791028D01*
X217947468Y-127973185D01*
X217945802Y-127981609D01*
X217834691Y-127981609D01*
X217834691Y-126915171D01*
X230875961Y-126915171D01*
X230875961Y-128857361D01*
G37*
G36*
X238049879Y-106607746D02*
G01*
X237793543Y-106608976D01*
X237733394Y-106580039D01*
X237707620Y-106555380D01*
X237676502Y-106495445D01*
X237675368Y-106399599D01*
X237703989Y-106340106D01*
X237724414Y-106318757D01*
X237826622Y-106283400D01*
X238049266Y-106282188D01*
X238049879Y-106607746D01*
G37*
G36*
X238048892Y-106084005D02*
G01*
X237841101Y-106085136D01*
X237781013Y-106056229D01*
X237755240Y-106031571D01*
X237724013Y-105971428D01*
X237723201Y-105922964D01*
X237751608Y-105863916D01*
X237776270Y-105838139D01*
X237835935Y-105807160D01*
X238048369Y-105806003D01*
X238048892Y-106084005D01*
G37*
G36*
X239358509Y-108528330D02*
G01*
X235365644Y-108528330D01*
X235365644Y-107888647D01*
X236571993Y-107888647D01*
X236573655Y-108111602D01*
X236572778Y-108114235D01*
X236573780Y-108128340D01*
X236573914Y-108146251D01*
X236575289Y-108149571D01*
X236575544Y-108153155D01*
X236582550Y-108171463D01*
X236631887Y-108266487D01*
X236636464Y-108277537D01*
X236639622Y-108281385D01*
X236640612Y-108283291D01*
X236642606Y-108285020D01*
X236648901Y-108292690D01*
X236699001Y-108340623D01*
X236705919Y-108348600D01*
X236710068Y-108351211D01*
X236711673Y-108352747D01*
X236714113Y-108353757D01*
X236722510Y-108359043D01*
X236805527Y-108398981D01*
X236806912Y-108400366D01*
X236817661Y-108404818D01*
X236836056Y-108413668D01*
X236839639Y-108413922D01*
X236842960Y-108415298D01*
X236862469Y-108417219D01*
X237132924Y-108415516D01*
X237135676Y-108416434D01*
X237150102Y-108415408D01*
X237167692Y-108415298D01*
X237171012Y-108413922D01*
X237174596Y-108413668D01*
X237192904Y-108406662D01*
X237287932Y-108357322D01*
X237298979Y-108352747D01*
X237302825Y-108349589D01*
X237304732Y-108348600D01*
X237306462Y-108346605D01*
X237314132Y-108340310D01*
X237374188Y-108277537D01*
X237389119Y-108241488D01*
X237389118Y-108202470D01*
X237374187Y-108166422D01*
X237346596Y-108138832D01*
X237310548Y-108123901D01*
X237271530Y-108123902D01*
X237235482Y-108138833D01*
X237220328Y-108151270D01*
X237186762Y-108186354D01*
X237127061Y-108217351D01*
X236888641Y-108218852D01*
X236828632Y-108189983D01*
X236802858Y-108165324D01*
X236771835Y-108105572D01*
X236770411Y-107914710D01*
X236799227Y-107854812D01*
X236823889Y-107829035D01*
X236883820Y-107797918D01*
X237005497Y-107796478D01*
X237018268Y-107797330D01*
X237021339Y-107796291D01*
X237024835Y-107796250D01*
X237039838Y-107790035D01*
X237055230Y-107784830D01*
X237057769Y-107782607D01*
X237060883Y-107781318D01*
X237072360Y-107769840D01*
X237084594Y-107759136D01*
X237086089Y-107756111D01*
X237088473Y-107753728D01*
X237094687Y-107738726D01*
X237101890Y-107724161D01*
X237102114Y-107720795D01*
X237103405Y-107717680D01*
X237103405Y-107701431D01*
X237104485Y-107685229D01*
X237103405Y-107682035D01*
X237103405Y-107678662D01*
X237097189Y-107663656D01*
X237091985Y-107648268D01*
X237089203Y-107644377D01*
X237088473Y-107642614D01*
X237086613Y-107640754D01*
X237080584Y-107632321D01*
X236890398Y-107416561D01*
X237310549Y-107415298D01*
X237346597Y-107400366D01*
X237374187Y-107372776D01*
X237389119Y-107336728D01*
X237389119Y-107329726D01*
X237429921Y-107329726D01*
X237434268Y-107348842D01*
X237765529Y-108336734D01*
X237766020Y-108343632D01*
X237771553Y-108354699D01*
X237775592Y-108366742D01*
X237780275Y-108372141D01*
X237783470Y-108378531D01*
X237792941Y-108386746D01*
X237801157Y-108396218D01*
X237807545Y-108399412D01*
X237812946Y-108404096D01*
X237824847Y-108408063D01*
X237836056Y-108413667D01*
X237843180Y-108414173D01*
X237849962Y-108416434D01*
X237862471Y-108415544D01*
X237874976Y-108416434D01*
X237881754Y-108414174D01*
X237888882Y-108413668D01*
X237900098Y-108408059D01*
X237911992Y-108404095D01*
X237917389Y-108399414D01*
X237923781Y-108396218D01*
X237931999Y-108386742D01*
X237941468Y-108378530D01*
X237944661Y-108372143D01*
X237949346Y-108366742D01*
X237957337Y-108348842D01*
X238109821Y-107888647D01*
X238381517Y-107888647D01*
X238383179Y-108111602D01*
X238382302Y-108114235D01*
X238383304Y-108128340D01*
X238383438Y-108146251D01*
X238384813Y-108149571D01*
X238385068Y-108153155D01*
X238392074Y-108171463D01*
X238441411Y-108266487D01*
X238445988Y-108277537D01*
X238449146Y-108281385D01*
X238450136Y-108283291D01*
X238452130Y-108285020D01*
X238458425Y-108292690D01*
X238508525Y-108340623D01*
X238515443Y-108348600D01*
X238519592Y-108351211D01*
X238521197Y-108352747D01*
X238523637Y-108353757D01*
X238532034Y-108359043D01*
X238615051Y-108398981D01*
X238616436Y-108400366D01*
X238627185Y-108404818D01*
X238645580Y-108413668D01*
X238649163Y-108413922D01*
X238652484Y-108415298D01*
X238671993Y-108417219D01*
X238942448Y-108415516D01*
X238945200Y-108416434D01*
X238959626Y-108415408D01*
X238977216Y-108415298D01*
X238980536Y-108413922D01*
X238984120Y-108413668D01*
X239002428Y-108406662D01*
X239097456Y-108357322D01*
X239108503Y-108352747D01*
X239112349Y-108349589D01*
X239114256Y-108348600D01*
X239115986Y-108346605D01*
X239123656Y-108340310D01*
X239183712Y-108277537D01*
X239198643Y-108241488D01*
X239198642Y-108202470D01*
X239183711Y-108166422D01*
X239156120Y-108138832D01*
X239120072Y-108123901D01*
X239081054Y-108123902D01*
X239045006Y-108138833D01*
X239029852Y-108151270D01*
X238996286Y-108186354D01*
X238936585Y-108217351D01*
X238698165Y-108218852D01*
X238638156Y-108189983D01*
X238612382Y-108165324D01*
X238581359Y-108105572D01*
X238579935Y-107914710D01*
X238608751Y-107854812D01*
X238633413Y-107829035D01*
X238693344Y-107797918D01*
X238815021Y-107796478D01*
X238827792Y-107797330D01*
X238830863Y-107796291D01*
X238834359Y-107796250D01*
X238849362Y-107790035D01*
X238864754Y-107784830D01*
X238867293Y-107782607D01*
X238870407Y-107781318D01*
X238881884Y-107769840D01*
X238894118Y-107759136D01*
X238895613Y-107756111D01*
X238897997Y-107753728D01*
X238904211Y-107738726D01*
X238911414Y-107724161D01*
X238911638Y-107720795D01*
X238912929Y-107717680D01*
X238912929Y-107701431D01*
X238914009Y-107685229D01*
X238912929Y-107682035D01*
X238912929Y-107678662D01*
X238906713Y-107663656D01*
X238901509Y-107648268D01*
X238898727Y-107644377D01*
X238897997Y-107642614D01*
X238896137Y-107640754D01*
X238890108Y-107632321D01*
X238699922Y-107416561D01*
X239120073Y-107415298D01*
X239156121Y-107400366D01*
X239183711Y-107372776D01*
X239198643Y-107336728D01*
X239198643Y-107297710D01*
X239183711Y-107261662D01*
X239156121Y-107234072D01*
X239120073Y-107219140D01*
X239100564Y-107217219D01*
X238483794Y-107219074D01*
X238468575Y-107218060D01*
X238465411Y-107219129D01*
X238462008Y-107219140D01*
X238447002Y-107225355D01*
X238431614Y-107230560D01*
X238429074Y-107232781D01*
X238425960Y-107234072D01*
X238414475Y-107245556D01*
X238402250Y-107256254D01*
X238400754Y-107259277D01*
X238398370Y-107261662D01*
X238392153Y-107276668D01*
X238384953Y-107291229D01*
X238384728Y-107294594D01*
X238383438Y-107297710D01*
X238383438Y-107313958D01*
X238382358Y-107330161D01*
X238383438Y-107333354D01*
X238383438Y-107336728D01*
X238389653Y-107351733D01*
X238394858Y-107367122D01*
X238397639Y-107371012D01*
X238398370Y-107372776D01*
X238400229Y-107374635D01*
X238406259Y-107383069D01*
X238612109Y-107616599D01*
X238532237Y-107658070D01*
X238521197Y-107662643D01*
X238517351Y-107665798D01*
X238515443Y-107666790D01*
X238513710Y-107668787D01*
X238506044Y-107675080D01*
X238458112Y-107725180D01*
X238450136Y-107732098D01*
X238447523Y-107736247D01*
X238445989Y-107737852D01*
X238444978Y-107740291D01*
X238439693Y-107748688D01*
X238399754Y-107831705D01*
X238398370Y-107833090D01*
X238393917Y-107843839D01*
X238385068Y-107862234D01*
X238384813Y-107865817D01*
X238383438Y-107869138D01*
X238381517Y-107888647D01*
X238109821Y-107888647D01*
X238295017Y-107329727D01*
X238292251Y-107290807D01*
X238274801Y-107255908D01*
X238245325Y-107230343D01*
X238208309Y-107218004D01*
X238169389Y-107220771D01*
X238134490Y-107238220D01*
X238108925Y-107267696D01*
X238100934Y-107285597D01*
X237862902Y-108003973D01*
X237616013Y-107267696D01*
X237590448Y-107238220D01*
X237555549Y-107220770D01*
X237516629Y-107218004D01*
X237479613Y-107230342D01*
X237450137Y-107255907D01*
X237432687Y-107290806D01*
X237429921Y-107329726D01*
X237389119Y-107329726D01*
X237389119Y-107297710D01*
X237374187Y-107261662D01*
X237346597Y-107234072D01*
X237310549Y-107219140D01*
X237291040Y-107217219D01*
X236674270Y-107219074D01*
X236659051Y-107218060D01*
X236655887Y-107219129D01*
X236652484Y-107219140D01*
X236637478Y-107225355D01*
X236622090Y-107230560D01*
X236619550Y-107232781D01*
X236616436Y-107234072D01*
X236604951Y-107245556D01*
X236592726Y-107256254D01*
X236591230Y-107259277D01*
X236588846Y-107261662D01*
X236582629Y-107276668D01*
X236575429Y-107291229D01*
X236575204Y-107294594D01*
X236573914Y-107297710D01*
X236573914Y-107313958D01*
X236572834Y-107330161D01*
X236573914Y-107333354D01*
X236573914Y-107336728D01*
X236580129Y-107351733D01*
X236585334Y-107367122D01*
X236588115Y-107371012D01*
X236588846Y-107372776D01*
X236590705Y-107374635D01*
X236596735Y-107383069D01*
X236802585Y-107616599D01*
X236722713Y-107658070D01*
X236711673Y-107662643D01*
X236707827Y-107665798D01*
X236705919Y-107666790D01*
X236704186Y-107668787D01*
X236696520Y-107675080D01*
X236648588Y-107725180D01*
X236640612Y-107732098D01*
X236637999Y-107736247D01*
X236636465Y-107737852D01*
X236635454Y-107740291D01*
X236630169Y-107748688D01*
X236590230Y-107831705D01*
X236588846Y-107833090D01*
X236584393Y-107843839D01*
X236575544Y-107862234D01*
X236575289Y-107865817D01*
X236573914Y-107869138D01*
X236571993Y-107888647D01*
X235365644Y-107888647D01*
X235365644Y-106421560D01*
X235476755Y-106421560D01*
X235478111Y-106502577D01*
X235477540Y-106504291D01*
X235478324Y-106515335D01*
X235478676Y-106536307D01*
X235480051Y-106539627D01*
X235480306Y-106543211D01*
X235487312Y-106561519D01*
X235536649Y-106656543D01*
X235541226Y-106667593D01*
X235544384Y-106671441D01*
X235545374Y-106673347D01*
X235547368Y-106675076D01*
X235553663Y-106682746D01*
X235603763Y-106730679D01*
X235610681Y-106738656D01*
X235614830Y-106741267D01*
X235616435Y-106742803D01*
X235618875Y-106743813D01*
X235627272Y-106749099D01*
X235710289Y-106789037D01*
X235711674Y-106790422D01*
X235722423Y-106794874D01*
X235740818Y-106803724D01*
X235744401Y-106803978D01*
X235747722Y-106805354D01*
X235767231Y-106807275D01*
X236004031Y-106805509D01*
X236017833Y-106806490D01*
X236022760Y-106805369D01*
X236024835Y-106805354D01*
X236027277Y-106804342D01*
X236036949Y-106802143D01*
X236197706Y-106746533D01*
X236227182Y-106720968D01*
X236244631Y-106686069D01*
X236247398Y-106647149D01*
X236235059Y-106610133D01*
X236209494Y-106580657D01*
X236174595Y-106563207D01*
X236135675Y-106560441D01*
X236116560Y-106564788D01*
X235993483Y-106607363D01*
X235793294Y-106608856D01*
X235733394Y-106580039D01*
X235707620Y-106555380D01*
X235676394Y-106495237D01*
X235675582Y-106446773D01*
X235703989Y-106387725D01*
X235728651Y-106361948D01*
X235796206Y-106326872D01*
X235974564Y-106280593D01*
X235984120Y-106279914D01*
X235998732Y-106274322D01*
X236000421Y-106273884D01*
X236001001Y-106273453D01*
X236002428Y-106272908D01*
X236097457Y-106223567D01*
X236108502Y-106218993D01*
X236112348Y-106215836D01*
X236114256Y-106214846D01*
X236115985Y-106212851D01*
X236123656Y-106206557D01*
X236171589Y-106156454D01*
X236179564Y-106149539D01*
X236182175Y-106145389D01*
X236183711Y-106143785D01*
X236184721Y-106141344D01*
X236190007Y-106132948D01*
X236229945Y-106049930D01*
X236231330Y-106048546D01*
X236235782Y-106037796D01*
X236244632Y-106019402D01*
X236244886Y-106015818D01*
X236246262Y-106012498D01*
X236248183Y-105992989D01*
X236246826Y-105911971D01*
X236247398Y-105910258D01*
X236246613Y-105899213D01*
X236246262Y-105878242D01*
X236244886Y-105874921D01*
X236244632Y-105871338D01*
X236237626Y-105853029D01*
X236188283Y-105757995D01*
X236183711Y-105746955D01*
X236180555Y-105743109D01*
X236179564Y-105741201D01*
X236177566Y-105739468D01*
X236171274Y-105731802D01*
X236145637Y-105707275D01*
X236476755Y-105707275D01*
X236478594Y-106501127D01*
X236477540Y-106504291D01*
X236478637Y-106519735D01*
X236478676Y-106536307D01*
X236480051Y-106539627D01*
X236480306Y-106543211D01*
X236487312Y-106561519D01*
X236536649Y-106656543D01*
X236541226Y-106667593D01*
X236544384Y-106671441D01*
X236545374Y-106673347D01*
X236547368Y-106675076D01*
X236553663Y-106682746D01*
X236603763Y-106730679D01*
X236610681Y-106738656D01*
X236614830Y-106741267D01*
X236616435Y-106742803D01*
X236618875Y-106743813D01*
X236627272Y-106749099D01*
X236710289Y-106789037D01*
X236711674Y-106790422D01*
X236722423Y-106794874D01*
X236740818Y-106803724D01*
X236744401Y-106803978D01*
X236747722Y-106805354D01*
X236767231Y-106807275D01*
X236942738Y-106805669D01*
X236945200Y-106806490D01*
X236958815Y-106805522D01*
X236977216Y-106805354D01*
X236980536Y-106803978D01*
X236984120Y-106803724D01*
X237002428Y-106796718D01*
X237097456Y-106747378D01*
X237108503Y-106742803D01*
X237112349Y-106739645D01*
X237114256Y-106738656D01*
X237115986Y-106736661D01*
X237123656Y-106730366D01*
X237171589Y-106680263D01*
X237179564Y-106673348D01*
X237182175Y-106669198D01*
X237183712Y-106667593D01*
X237184723Y-106665151D01*
X237190007Y-106656757D01*
X237229945Y-106573739D01*
X237231330Y-106572355D01*
X237235782Y-106561605D01*
X237244632Y-106543211D01*
X237244886Y-106539627D01*
X237246262Y-106536307D01*
X237248183Y-106516798D01*
X237247852Y-106373941D01*
X237476755Y-106373941D01*
X237478271Y-106502097D01*
X237477540Y-106504291D01*
X237478448Y-106517073D01*
X237478676Y-106536307D01*
X237480051Y-106539627D01*
X237480306Y-106543211D01*
X237487312Y-106561519D01*
X237536649Y-106656543D01*
X237541226Y-106667593D01*
X237544384Y-106671441D01*
X237545374Y-106673347D01*
X237547368Y-106675076D01*
X237553663Y-106682746D01*
X237603763Y-106730679D01*
X237610681Y-106738656D01*
X237614830Y-106741267D01*
X237616435Y-106742803D01*
X237618875Y-106743813D01*
X237627272Y-106749099D01*
X237710289Y-106789037D01*
X237711674Y-106790422D01*
X237722423Y-106794874D01*
X237740818Y-106803724D01*
X237744401Y-106803978D01*
X237747722Y-106805354D01*
X237767231Y-106807275D01*
X238167692Y-106805354D01*
X238203740Y-106790422D01*
X238231330Y-106762832D01*
X238246262Y-106726784D01*
X238248183Y-106707275D01*
X238246322Y-105719782D01*
X238382302Y-105719782D01*
X238386649Y-105738898D01*
X238717910Y-106726790D01*
X238718401Y-106733688D01*
X238723934Y-106744755D01*
X238727973Y-106756798D01*
X238732656Y-106762197D01*
X238735851Y-106768587D01*
X238745322Y-106776802D01*
X238753538Y-106786274D01*
X238759926Y-106789468D01*
X238765327Y-106794152D01*
X238777228Y-106798119D01*
X238788437Y-106803723D01*
X238795561Y-106804229D01*
X238802343Y-106806490D01*
X238814852Y-106805600D01*
X238827357Y-106806490D01*
X238834135Y-106804230D01*
X238841263Y-106803724D01*
X238852479Y-106798115D01*
X238864373Y-106794151D01*
X238869770Y-106789470D01*
X238876162Y-106786274D01*
X238884380Y-106776798D01*
X238893849Y-106768586D01*
X238897042Y-106762199D01*
X238901727Y-106756798D01*
X238909718Y-106738898D01*
X239247398Y-105719783D01*
X239244632Y-105680863D01*
X239227182Y-105645964D01*
X239197706Y-105620399D01*
X239160690Y-105608060D01*
X239121770Y-105610827D01*
X239086871Y-105628276D01*
X239061306Y-105657752D01*
X239053315Y-105675653D01*
X238815283Y-106394029D01*
X238568394Y-105657752D01*
X238542829Y-105628276D01*
X238507930Y-105610826D01*
X238469010Y-105608060D01*
X238431994Y-105620398D01*
X238402518Y-105645963D01*
X238385068Y-105680862D01*
X238382302Y-105719782D01*
X238246322Y-105719782D01*
X238246262Y-105687766D01*
X238231330Y-105651718D01*
X238203740Y-105624128D01*
X238167692Y-105609196D01*
X238148183Y-105607275D01*
X237830195Y-105609006D01*
X237827357Y-105608060D01*
X237812702Y-105609101D01*
X237795341Y-105609196D01*
X237792020Y-105610571D01*
X237788437Y-105610826D01*
X237770128Y-105617832D01*
X237675094Y-105667174D01*
X237664054Y-105671747D01*
X237660208Y-105674902D01*
X237658300Y-105675894D01*
X237656567Y-105677891D01*
X237648901Y-105684184D01*
X237600969Y-105734284D01*
X237592993Y-105741202D01*
X237590380Y-105745351D01*
X237588846Y-105746956D01*
X237587835Y-105749395D01*
X237582550Y-105757792D01*
X237542611Y-105840809D01*
X237541227Y-105842194D01*
X237536774Y-105852943D01*
X237527925Y-105871338D01*
X237527670Y-105874921D01*
X237526295Y-105878242D01*
X237524374Y-105897751D01*
X237525730Y-105978768D01*
X237525159Y-105980482D01*
X237525943Y-105991526D01*
X237526295Y-106012498D01*
X237527670Y-106015818D01*
X237527925Y-106019402D01*
X237534931Y-106037710D01*
X237584271Y-106132739D01*
X237588846Y-106143784D01*
X237592002Y-106147630D01*
X237592993Y-106149538D01*
X237594987Y-106151267D01*
X237601282Y-106158938D01*
X237602089Y-106159710D01*
X237601282Y-106160374D01*
X237553350Y-106210474D01*
X237545374Y-106217392D01*
X237542761Y-106221541D01*
X237541227Y-106223146D01*
X237540216Y-106225585D01*
X237534931Y-106233982D01*
X237494992Y-106316999D01*
X237493608Y-106318384D01*
X237489155Y-106329133D01*
X237480306Y-106347528D01*
X237480051Y-106351111D01*
X237478676Y-106354432D01*
X237476755Y-106373941D01*
X237247852Y-106373941D01*
X237246262Y-105687766D01*
X237231330Y-105651718D01*
X237203740Y-105624128D01*
X237167692Y-105609196D01*
X237128674Y-105609196D01*
X237092626Y-105624128D01*
X237065036Y-105651718D01*
X237050104Y-105687766D01*
X237048183Y-105707275D01*
X237049997Y-106490250D01*
X237020948Y-106550632D01*
X236996286Y-106576410D01*
X236936466Y-106607469D01*
X236793137Y-106608780D01*
X236733394Y-106580039D01*
X236707620Y-106555380D01*
X236676706Y-106495838D01*
X236674834Y-105687766D01*
X236659902Y-105651718D01*
X236632312Y-105624128D01*
X236596264Y-105609196D01*
X236557246Y-105609196D01*
X236521198Y-105624128D01*
X236493608Y-105651718D01*
X236478676Y-105687766D01*
X236476755Y-105707275D01*
X236145637Y-105707275D01*
X236121173Y-105683870D01*
X236114256Y-105675894D01*
X236110106Y-105673281D01*
X236108502Y-105671747D01*
X236106062Y-105670736D01*
X236097666Y-105665451D01*
X236014648Y-105625512D01*
X236013264Y-105624128D01*
X236002514Y-105619675D01*
X235984120Y-105610826D01*
X235980536Y-105610571D01*
X235977216Y-105609196D01*
X235957707Y-105607275D01*
X235720905Y-105609040D01*
X235707104Y-105608060D01*
X235702176Y-105609180D01*
X235700103Y-105609196D01*
X235697661Y-105610207D01*
X235687989Y-105612407D01*
X235527232Y-105668017D01*
X235497756Y-105693582D01*
X235480306Y-105728481D01*
X235477540Y-105767401D01*
X235489878Y-105804417D01*
X235515443Y-105833893D01*
X235550342Y-105851343D01*
X235589262Y-105854109D01*
X235608378Y-105849762D01*
X235731454Y-105807186D01*
X235931643Y-105805693D01*
X235991541Y-105834509D01*
X236017318Y-105859171D01*
X236048543Y-105919310D01*
X236049355Y-105967775D01*
X236020947Y-106026825D01*
X235996289Y-106052598D01*
X235928729Y-106087676D01*
X235750373Y-106133955D01*
X235740818Y-106134635D01*
X235726202Y-106140227D01*
X235724517Y-106140665D01*
X235723937Y-106141094D01*
X235722509Y-106141641D01*
X235627475Y-106190983D01*
X235616435Y-106195556D01*
X235612589Y-106198711D01*
X235610681Y-106199703D01*
X235608948Y-106201700D01*
X235601282Y-106207993D01*
X235553350Y-106258093D01*
X235545374Y-106265011D01*
X235542761Y-106269160D01*
X235541227Y-106270765D01*
X235540216Y-106273204D01*
X235534931Y-106281601D01*
X235494992Y-106364618D01*
X235493608Y-106366003D01*
X235489155Y-106376752D01*
X235480306Y-106395147D01*
X235480051Y-106398730D01*
X235478676Y-106402051D01*
X235476755Y-106421560D01*
X235365644Y-106421560D01*
X235365644Y-105496164D01*
X239358509Y-105496164D01*
X239358509Y-108528330D01*
G37*
G36*
X219828316Y-125796424D02*
G01*
X219850665Y-125839468D01*
X219850895Y-125887442D01*
X219577870Y-125833916D01*
X219595246Y-125797799D01*
X219638470Y-125775357D01*
X219781800Y-125774046D01*
X219828316Y-125796424D01*
G37*
G36*
X220803744Y-125766503D02*
G01*
X220671916Y-125767136D01*
X220667018Y-125766051D01*
X220660559Y-125767190D01*
X220548305Y-125767729D01*
X220488156Y-125738792D01*
X220462383Y-125714134D01*
X220431264Y-125654199D01*
X220430130Y-125558353D01*
X220458751Y-125498860D01*
X220483413Y-125473083D01*
X220543052Y-125442117D01*
X220803130Y-125440870D01*
X220803744Y-125766503D01*
G37*
G36*
X224660887Y-125766503D02*
G01*
X224405448Y-125767729D01*
X224345299Y-125738792D01*
X224319526Y-125714134D01*
X224288407Y-125654199D01*
X224287273Y-125558353D01*
X224315894Y-125498860D01*
X224340556Y-125473083D01*
X224400195Y-125442117D01*
X224660273Y-125440870D01*
X224660887Y-125766503D01*
G37*
G36*
X228066437Y-126932361D02*
G01*
X217834691Y-126932361D01*
X217834691Y-126056609D01*
X217945802Y-126056609D01*
X217947721Y-126075894D01*
X217947723Y-126076013D01*
X217947737Y-126076047D01*
X217947744Y-126076116D01*
X217994588Y-126301731D01*
X217994206Y-126307107D01*
X217998553Y-126326223D01*
X218044183Y-126458130D01*
X218044591Y-126463870D01*
X218051597Y-126482178D01*
X218095360Y-126566467D01*
X218096231Y-126570867D01*
X218105454Y-126588165D01*
X218197510Y-126723288D01*
X218200750Y-126731109D01*
X218213047Y-126746093D01*
X218213112Y-126746189D01*
X218213141Y-126746208D01*
X218213186Y-126746263D01*
X218275958Y-126806318D01*
X218312007Y-126821249D01*
X218351025Y-126821249D01*
X218387073Y-126806318D01*
X218414663Y-126778728D01*
X218429594Y-126742680D01*
X225042962Y-126742680D01*
X225057894Y-126778728D01*
X225085484Y-126806318D01*
X225121532Y-126821250D01*
X225160550Y-126821250D01*
X225196598Y-126806318D01*
X225211752Y-126793882D01*
X225253699Y-126750036D01*
X225259445Y-126746189D01*
X225271709Y-126731212D01*
X225271807Y-126731110D01*
X225271821Y-126731075D01*
X225271865Y-126731022D01*
X225359064Y-126597331D01*
X225362898Y-126594007D01*
X225373341Y-126577416D01*
X225414922Y-126490982D01*
X225418394Y-126486980D01*
X225426385Y-126469080D01*
X225468741Y-126337060D01*
X225471484Y-126332965D01*
X225477194Y-126314212D01*
X225486376Y-126266488D01*
X225757248Y-126266488D01*
X225772179Y-126302537D01*
X225784616Y-126317690D01*
X225823379Y-126354776D01*
X225823947Y-126355912D01*
X225830568Y-126361654D01*
X225847388Y-126377747D01*
X225850707Y-126379122D01*
X225853423Y-126381477D01*
X225871323Y-126389468D01*
X226014407Y-126435374D01*
X226026294Y-126440298D01*
X226031286Y-126440789D01*
X226033295Y-126441434D01*
X226035929Y-126441246D01*
X226045803Y-126442219D01*
X226141945Y-126440609D01*
X226153548Y-126441434D01*
X226158384Y-126440334D01*
X226160550Y-126440298D01*
X226162992Y-126439286D01*
X226172664Y-126437087D01*
X226301041Y-126392678D01*
X226303408Y-126392678D01*
X226315400Y-126387710D01*
X226333421Y-126381477D01*
X226336136Y-126379122D01*
X226339456Y-126377747D01*
X226354609Y-126365310D01*
X226448626Y-126268920D01*
X226458136Y-126260673D01*
X226460802Y-126256437D01*
X226462284Y-126254918D01*
X226463295Y-126252476D01*
X226468579Y-126244082D01*
X226512007Y-126153810D01*
X226517174Y-126146837D01*
X226522402Y-126132202D01*
X226523204Y-126130536D01*
X226523255Y-126129815D01*
X226523769Y-126128377D01*
X226568348Y-125943064D01*
X226572453Y-125933156D01*
X226573645Y-125921046D01*
X226574256Y-125918508D01*
X226574038Y-125917049D01*
X226574374Y-125913647D01*
X226572746Y-125776073D01*
X226574256Y-125765929D01*
X226572484Y-125753950D01*
X226572453Y-125751281D01*
X226571888Y-125749917D01*
X226571388Y-125746536D01*
X226523883Y-125563456D01*
X226523204Y-125553901D01*
X226517611Y-125539285D01*
X226517174Y-125537600D01*
X226516744Y-125537020D01*
X226516198Y-125535592D01*
X226514694Y-125532695D01*
X226755327Y-125532695D01*
X226756936Y-125628837D01*
X226756112Y-125640440D01*
X226757211Y-125645276D01*
X226757248Y-125647442D01*
X226758259Y-125649884D01*
X226760459Y-125659556D01*
X226804867Y-125787930D01*
X226804867Y-125790299D01*
X226809836Y-125802295D01*
X226816069Y-125820313D01*
X226818424Y-125823028D01*
X226819799Y-125826347D01*
X226832235Y-125841501D01*
X227235539Y-126242937D01*
X226835818Y-126244140D01*
X226799770Y-126259072D01*
X226772180Y-126286662D01*
X226757248Y-126322710D01*
X226757248Y-126361728D01*
X226772180Y-126397776D01*
X226799770Y-126425366D01*
X226835818Y-126440298D01*
X226855327Y-126442219D01*
X227493883Y-126440298D01*
X227529931Y-126425366D01*
X227557521Y-126397776D01*
X227572453Y-126361728D01*
X227572453Y-126322710D01*
X227557521Y-126286662D01*
X227545085Y-126271508D01*
X226991274Y-125720262D01*
X226955123Y-125615756D01*
X226954154Y-125557908D01*
X226982561Y-125498860D01*
X227007223Y-125473083D01*
X227066971Y-125442061D01*
X227257834Y-125440637D01*
X227317732Y-125469453D01*
X227371197Y-125520604D01*
X227407246Y-125535535D01*
X227446264Y-125535535D01*
X227482312Y-125520604D01*
X227509902Y-125493014D01*
X227524833Y-125456966D01*
X227524833Y-125417948D01*
X227509902Y-125381899D01*
X227497465Y-125366746D01*
X227471828Y-125342219D01*
X227755326Y-125342219D01*
X227757247Y-126361728D01*
X227772179Y-126397776D01*
X227799769Y-126425366D01*
X227835817Y-126440298D01*
X227874835Y-126440298D01*
X227910883Y-126425366D01*
X227938473Y-126397776D01*
X227953405Y-126361728D01*
X227955326Y-126342219D01*
X227953405Y-125322710D01*
X227938473Y-125286662D01*
X227910883Y-125259072D01*
X227874835Y-125244140D01*
X227835817Y-125244140D01*
X227799769Y-125259072D01*
X227772179Y-125286662D01*
X227757247Y-125322710D01*
X227755326Y-125342219D01*
X227471828Y-125342219D01*
X227447364Y-125318814D01*
X227440447Y-125310838D01*
X227436297Y-125308225D01*
X227434693Y-125306691D01*
X227432253Y-125305680D01*
X227423857Y-125300395D01*
X227340839Y-125260456D01*
X227339455Y-125259072D01*
X227328705Y-125254619D01*
X227310311Y-125245770D01*
X227306727Y-125245515D01*
X227303407Y-125244140D01*
X227283898Y-125242219D01*
X227060942Y-125243881D01*
X227058310Y-125243004D01*
X227044204Y-125244006D01*
X227026294Y-125244140D01*
X227022973Y-125245515D01*
X227019390Y-125245770D01*
X227001081Y-125252776D01*
X226906047Y-125302118D01*
X226895007Y-125306691D01*
X226891161Y-125309846D01*
X226889253Y-125310838D01*
X226887520Y-125312835D01*
X226879854Y-125319128D01*
X226831922Y-125369228D01*
X226823946Y-125376146D01*
X226821333Y-125380295D01*
X226819799Y-125381900D01*
X226818788Y-125384339D01*
X226813503Y-125392736D01*
X226773564Y-125475753D01*
X226772180Y-125477138D01*
X226767727Y-125487887D01*
X226758878Y-125506282D01*
X226758623Y-125509865D01*
X226757248Y-125513186D01*
X226755327Y-125532695D01*
X226514694Y-125532695D01*
X226466855Y-125440558D01*
X226462283Y-125429519D01*
X226459127Y-125425674D01*
X226458136Y-125423764D01*
X226456138Y-125422031D01*
X226449847Y-125414365D01*
X226363902Y-125330536D01*
X226362897Y-125328526D01*
X226353367Y-125320260D01*
X226339455Y-125306691D01*
X226336136Y-125305316D01*
X226333421Y-125302961D01*
X226315520Y-125294970D01*
X226172440Y-125249065D01*
X226160550Y-125244140D01*
X226155556Y-125243648D01*
X226153548Y-125243004D01*
X226150914Y-125243191D01*
X226141041Y-125242219D01*
X226044897Y-125243828D01*
X226033295Y-125243004D01*
X226028459Y-125244103D01*
X226026294Y-125244140D01*
X226023852Y-125245151D01*
X226014180Y-125247351D01*
X225885803Y-125291760D01*
X225883437Y-125291760D01*
X225871447Y-125296725D01*
X225853423Y-125302961D01*
X225850707Y-125305316D01*
X225847388Y-125306691D01*
X225832235Y-125319128D01*
X225772180Y-125381900D01*
X225757248Y-125417948D01*
X225757248Y-125456966D01*
X225772180Y-125493014D01*
X225799770Y-125520604D01*
X225835818Y-125535536D01*
X225874836Y-125535536D01*
X225910884Y-125520604D01*
X225926038Y-125508168D01*
X225955367Y-125477511D01*
X226057979Y-125442015D01*
X226121465Y-125440952D01*
X226228205Y-125475198D01*
X226295346Y-125540685D01*
X226330966Y-125609289D01*
X226374445Y-125776856D01*
X226375851Y-125895664D01*
X226335611Y-126062936D01*
X226299689Y-126137606D01*
X226232380Y-126206614D01*
X226128864Y-126242422D01*
X226065377Y-126243485D01*
X225958197Y-126209098D01*
X225910885Y-126163833D01*
X225874837Y-126148902D01*
X225835819Y-126148901D01*
X225799770Y-126163832D01*
X225772180Y-126191422D01*
X225757249Y-126227470D01*
X225757248Y-126266488D01*
X225486376Y-126266488D01*
X225521450Y-126084182D01*
X225524834Y-126076013D01*
X225526733Y-126056719D01*
X225526755Y-126056609D01*
X225526748Y-126056574D01*
X225526755Y-126056504D01*
X225525088Y-125874346D01*
X225526755Y-125865923D01*
X225524835Y-125846637D01*
X225524834Y-125846519D01*
X225524819Y-125846484D01*
X225524813Y-125846416D01*
X225477968Y-125620801D01*
X225478351Y-125615425D01*
X225474004Y-125596310D01*
X225428373Y-125464402D01*
X225427966Y-125458663D01*
X225420960Y-125440354D01*
X225377197Y-125356066D01*
X225376327Y-125351667D01*
X225367103Y-125334369D01*
X225275046Y-125199244D01*
X225271807Y-125191422D01*
X225259514Y-125176445D01*
X225259445Y-125176343D01*
X225259413Y-125176321D01*
X225259370Y-125176269D01*
X225196598Y-125116214D01*
X225160550Y-125101282D01*
X225121532Y-125101282D01*
X225085484Y-125116214D01*
X225057894Y-125143804D01*
X225042962Y-125179852D01*
X225042962Y-125218870D01*
X225057894Y-125254918D01*
X225070330Y-125270072D01*
X225107854Y-125305972D01*
X225193170Y-125431202D01*
X225194455Y-125434559D01*
X225236295Y-125515144D01*
X225236649Y-125516699D01*
X225280740Y-125644159D01*
X225281078Y-125647545D01*
X225326769Y-125867608D01*
X225328335Y-126038772D01*
X225285905Y-126259310D01*
X225284268Y-126262978D01*
X225243222Y-126390910D01*
X225242074Y-126392736D01*
X225202474Y-126475049D01*
X225200693Y-126477225D01*
X225116396Y-126606464D01*
X225057894Y-126667614D01*
X225042962Y-126703662D01*
X225042962Y-126742680D01*
X218429594Y-126742680D01*
X218429594Y-126703662D01*
X218414663Y-126667613D01*
X218402226Y-126652460D01*
X218364703Y-126616561D01*
X218279386Y-126491330D01*
X218278102Y-126487973D01*
X218236261Y-126407387D01*
X218235908Y-126405834D01*
X218191816Y-126278373D01*
X218191479Y-126274988D01*
X218165889Y-126151742D01*
X218564850Y-126151742D01*
X218565837Y-126186245D01*
X218565635Y-126186853D01*
X218566002Y-126192029D01*
X218566771Y-126218870D01*
X218568146Y-126222190D01*
X218568401Y-126225773D01*
X218575407Y-126244082D01*
X218622444Y-126334677D01*
X218625593Y-126344123D01*
X218629967Y-126349167D01*
X218633469Y-126355911D01*
X218642940Y-126364125D01*
X218651157Y-126373600D01*
X218661027Y-126379812D01*
X218662945Y-126381476D01*
X218664485Y-126381989D01*
X218667748Y-126384043D01*
X218750765Y-126423981D01*
X218752150Y-126425366D01*
X218762899Y-126429818D01*
X218781294Y-126438668D01*
X218784877Y-126438922D01*
X218788198Y-126440298D01*
X218807707Y-126442219D01*
X218983214Y-126440613D01*
X218985676Y-126441434D01*
X218999291Y-126440466D01*
X219017692Y-126440298D01*
X219021012Y-126438922D01*
X219024596Y-126438668D01*
X219042904Y-126431662D01*
X219154732Y-126373600D01*
X219180297Y-126344123D01*
X219192635Y-126307107D01*
X219189870Y-126268187D01*
X219172421Y-126233289D01*
X219142944Y-126207724D01*
X219105928Y-126195385D01*
X219067008Y-126198151D01*
X219048699Y-126205157D01*
X218976942Y-126242413D01*
X218833613Y-126243724D01*
X218787098Y-126221346D01*
X218764218Y-126177279D01*
X218764179Y-126175913D01*
X218785722Y-126131132D01*
X218829058Y-126108632D01*
X218935863Y-126107368D01*
X218938057Y-126108100D01*
X218950839Y-126107191D01*
X218970073Y-126106964D01*
X218973393Y-126105588D01*
X218976977Y-126105334D01*
X218995285Y-126098328D01*
X219085879Y-126051290D01*
X219095325Y-126048142D01*
X219100369Y-126043767D01*
X219107113Y-126040266D01*
X219115326Y-126030795D01*
X219124802Y-126022578D01*
X219131016Y-126012704D01*
X219132678Y-126010789D01*
X219133190Y-126009250D01*
X219135245Y-126005987D01*
X219175183Y-125922969D01*
X219176568Y-125921585D01*
X219179899Y-125913542D01*
X219374374Y-125913542D01*
X219376113Y-125922337D01*
X219376295Y-125933156D01*
X219380044Y-125942208D01*
X219381946Y-125951819D01*
X219387437Y-125960055D01*
X219391227Y-125969204D01*
X219398153Y-125976130D01*
X219403589Y-125984284D01*
X219411817Y-125989794D01*
X219418817Y-125996794D01*
X219427868Y-126000543D01*
X219436009Y-126005995D01*
X219454762Y-126011705D01*
X219454861Y-126011724D01*
X219454865Y-126011726D01*
X219454869Y-126011726D01*
X219851864Y-126089555D01*
X219852265Y-126173048D01*
X219829692Y-126219970D01*
X219786466Y-126242413D01*
X219643137Y-126243724D01*
X219548406Y-126198151D01*
X219509486Y-126195385D01*
X219472470Y-126207724D01*
X219442993Y-126233288D01*
X219425544Y-126268187D01*
X219422778Y-126307107D01*
X219435117Y-126344123D01*
X219460681Y-126373600D01*
X219477272Y-126384043D01*
X219560289Y-126423981D01*
X219561674Y-126425366D01*
X219572423Y-126429818D01*
X219590818Y-126438668D01*
X219594401Y-126438922D01*
X219597722Y-126440298D01*
X219617231Y-126442219D01*
X219792738Y-126440613D01*
X219795200Y-126441434D01*
X219808815Y-126440466D01*
X219827216Y-126440298D01*
X219830536Y-126438922D01*
X219834120Y-126438668D01*
X219852428Y-126431662D01*
X219943022Y-126384624D01*
X219952468Y-126381476D01*
X219957511Y-126377101D01*
X219964256Y-126373600D01*
X219972471Y-126364126D01*
X219981945Y-126355911D01*
X219988158Y-126346039D01*
X219989821Y-126344123D01*
X219990333Y-126342584D01*
X219992388Y-126339321D01*
X220032326Y-126256302D01*
X220033711Y-126254918D01*
X220038163Y-126244169D01*
X220047013Y-126225774D01*
X220047267Y-126222190D01*
X220048643Y-126218870D01*
X220050564Y-126199361D01*
X220049672Y-126013449D01*
X220050564Y-126008990D01*
X220049628Y-126004258D01*
X220048810Y-125833821D01*
X220049779Y-125830916D01*
X220048725Y-125816091D01*
X220048643Y-125798900D01*
X220047267Y-125795579D01*
X220047013Y-125791996D01*
X220040007Y-125773687D01*
X219992967Y-125683089D01*
X219989821Y-125673648D01*
X219985448Y-125668605D01*
X219981945Y-125661859D01*
X219972469Y-125653641D01*
X219964256Y-125644171D01*
X219954384Y-125637957D01*
X219952468Y-125636295D01*
X219950929Y-125635781D01*
X219947666Y-125633728D01*
X219864648Y-125593789D01*
X219863264Y-125592405D01*
X219852514Y-125587952D01*
X219834120Y-125579103D01*
X219830536Y-125578848D01*
X219827216Y-125577473D01*
X219807707Y-125575552D01*
X219632199Y-125577157D01*
X219629738Y-125576337D01*
X219616122Y-125577304D01*
X219597722Y-125577473D01*
X219594401Y-125578848D01*
X219590818Y-125579103D01*
X219572509Y-125586109D01*
X219481911Y-125633148D01*
X219472470Y-125636295D01*
X219467427Y-125640667D01*
X219460681Y-125644171D01*
X219452463Y-125653646D01*
X219442993Y-125661860D01*
X219436779Y-125671731D01*
X219435117Y-125673648D01*
X219434603Y-125675186D01*
X219432550Y-125678450D01*
X219392611Y-125761467D01*
X219391227Y-125762852D01*
X219386774Y-125773601D01*
X219377925Y-125791996D01*
X219377670Y-125795579D01*
X219376295Y-125798900D01*
X219374374Y-125818409D01*
X219375843Y-125906193D01*
X219374374Y-125913542D01*
X219179899Y-125913542D01*
X219181020Y-125910835D01*
X219189870Y-125892441D01*
X219190124Y-125888857D01*
X219191500Y-125885537D01*
X219193421Y-125866028D01*
X219192433Y-125831523D01*
X219192636Y-125830916D01*
X219192268Y-125825738D01*
X219191500Y-125798900D01*
X219190124Y-125795579D01*
X219189870Y-125791996D01*
X219182864Y-125773687D01*
X219135824Y-125683089D01*
X219132678Y-125673648D01*
X219128305Y-125668605D01*
X219124802Y-125661859D01*
X219115326Y-125653641D01*
X219107113Y-125644171D01*
X219097241Y-125637957D01*
X219095325Y-125636295D01*
X219093786Y-125635781D01*
X219090523Y-125633728D01*
X219007505Y-125593789D01*
X219006121Y-125592405D01*
X218995371Y-125587952D01*
X218976977Y-125579103D01*
X218973393Y-125578848D01*
X218970073Y-125577473D01*
X218950564Y-125575552D01*
X218822407Y-125577068D01*
X218820214Y-125576337D01*
X218807431Y-125577245D01*
X218788198Y-125577473D01*
X218784877Y-125578848D01*
X218781294Y-125579103D01*
X218762985Y-125586109D01*
X218651157Y-125644171D01*
X218625593Y-125673648D01*
X218613254Y-125710664D01*
X218616020Y-125749584D01*
X218633469Y-125784483D01*
X218662946Y-125810047D01*
X218699962Y-125822386D01*
X218738882Y-125819620D01*
X218757190Y-125812614D01*
X218829058Y-125775299D01*
X218924905Y-125774165D01*
X218971173Y-125796424D01*
X218994052Y-125840490D01*
X218994091Y-125841856D01*
X218972549Y-125886636D01*
X218929211Y-125909137D01*
X218822407Y-125910401D01*
X218820214Y-125909670D01*
X218807431Y-125910578D01*
X218788198Y-125910806D01*
X218784877Y-125912181D01*
X218781294Y-125912436D01*
X218762985Y-125919442D01*
X218672387Y-125966481D01*
X218662946Y-125969628D01*
X218657903Y-125974000D01*
X218651157Y-125977504D01*
X218642939Y-125986979D01*
X218633469Y-125995193D01*
X218627255Y-126005064D01*
X218625593Y-126006981D01*
X218625079Y-126008519D01*
X218623026Y-126011783D01*
X218583087Y-126094800D01*
X218581703Y-126096185D01*
X218577250Y-126106934D01*
X218568401Y-126125329D01*
X218568146Y-126128912D01*
X218566771Y-126132233D01*
X218564850Y-126151742D01*
X218165889Y-126151742D01*
X218145787Y-126054923D01*
X218144221Y-125883760D01*
X218186651Y-125663224D01*
X218188289Y-125659556D01*
X218228989Y-125532695D01*
X220231517Y-125532695D01*
X220233033Y-125660851D01*
X220232302Y-125663045D01*
X220233210Y-125675827D01*
X220233438Y-125695061D01*
X220234813Y-125698381D01*
X220235068Y-125701965D01*
X220242074Y-125720273D01*
X220291414Y-125815302D01*
X220295989Y-125826347D01*
X220299145Y-125830193D01*
X220300136Y-125832101D01*
X220302130Y-125833830D01*
X220308425Y-125841501D01*
X220358527Y-125889434D01*
X220365443Y-125897409D01*
X220369592Y-125900020D01*
X220371197Y-125901556D01*
X220373637Y-125902566D01*
X220382034Y-125907852D01*
X220465051Y-125947790D01*
X220466436Y-125949175D01*
X220477185Y-125953627D01*
X220480908Y-125955418D01*
X220239980Y-126301957D01*
X220231540Y-126340051D01*
X220238321Y-126378476D01*
X220259290Y-126411381D01*
X220291255Y-126433756D01*
X220329349Y-126442196D01*
X220367774Y-126435415D01*
X220400679Y-126414446D01*
X220413440Y-126399565D01*
X220715499Y-125965099D01*
X220804117Y-125964674D01*
X220804866Y-126361728D01*
X220819798Y-126397776D01*
X220847388Y-126425366D01*
X220883436Y-126440298D01*
X220922454Y-126440298D01*
X220958502Y-126425366D01*
X220986092Y-126397776D01*
X221001024Y-126361728D01*
X221002945Y-126342219D01*
X221001061Y-125342219D01*
X222041041Y-125342219D01*
X222042880Y-126136071D01*
X222041826Y-126139235D01*
X222042923Y-126154679D01*
X222042962Y-126171251D01*
X222044337Y-126174571D01*
X222044592Y-126178155D01*
X222051598Y-126196463D01*
X222100935Y-126291487D01*
X222105512Y-126302537D01*
X222108670Y-126306385D01*
X222109660Y-126308291D01*
X222111654Y-126310020D01*
X222117949Y-126317690D01*
X222168049Y-126365623D01*
X222174967Y-126373600D01*
X222179116Y-126376211D01*
X222180721Y-126377747D01*
X222183161Y-126378757D01*
X222191558Y-126384043D01*
X222274575Y-126423981D01*
X222275960Y-126425366D01*
X222286709Y-126429818D01*
X222305104Y-126438668D01*
X222308687Y-126438922D01*
X222312008Y-126440298D01*
X222331517Y-126442219D01*
X222507024Y-126440613D01*
X222509486Y-126441434D01*
X222523101Y-126440466D01*
X222541502Y-126440298D01*
X222544822Y-126438922D01*
X222548406Y-126438668D01*
X222566714Y-126431662D01*
X222661742Y-126382322D01*
X222672789Y-126377747D01*
X222676635Y-126374589D01*
X222678542Y-126373600D01*
X222680272Y-126371605D01*
X222687942Y-126365310D01*
X222735875Y-126315207D01*
X222743850Y-126308292D01*
X222746461Y-126304142D01*
X222747998Y-126302537D01*
X222749009Y-126300095D01*
X222754293Y-126291701D01*
X222794231Y-126208683D01*
X222795616Y-126207299D01*
X222800068Y-126196549D01*
X222808918Y-126178155D01*
X222809172Y-126174571D01*
X222810548Y-126171251D01*
X222812469Y-126151742D01*
X222810548Y-125322710D01*
X222798861Y-125294495D01*
X222945803Y-125294495D01*
X222953375Y-125332772D01*
X222962598Y-125350070D01*
X223832160Y-126650951D01*
X223864580Y-126672662D01*
X223902841Y-126680314D01*
X223941117Y-126672743D01*
X223973582Y-126651099D01*
X223995293Y-126618679D01*
X224002945Y-126580419D01*
X223995374Y-126542142D01*
X223986150Y-126524844D01*
X223322957Y-125532695D01*
X224088660Y-125532695D01*
X224090176Y-125660851D01*
X224089445Y-125663045D01*
X224090353Y-125675827D01*
X224090581Y-125695061D01*
X224091956Y-125698381D01*
X224092211Y-125701965D01*
X224099217Y-125720273D01*
X224148557Y-125815302D01*
X224153132Y-125826347D01*
X224156288Y-125830193D01*
X224157279Y-125832101D01*
X224159273Y-125833830D01*
X224165568Y-125841501D01*
X224215670Y-125889434D01*
X224222586Y-125897409D01*
X224226735Y-125900020D01*
X224228340Y-125901556D01*
X224230780Y-125902566D01*
X224239177Y-125907852D01*
X224322194Y-125947790D01*
X224323579Y-125949175D01*
X224334328Y-125953627D01*
X224352723Y-125962477D01*
X224356306Y-125962731D01*
X224359627Y-125964107D01*
X224379136Y-125966028D01*
X224661260Y-125964674D01*
X224662009Y-126361728D01*
X224676941Y-126397776D01*
X224704531Y-126425366D01*
X224740579Y-126440298D01*
X224779597Y-126440298D01*
X224815645Y-126425366D01*
X224843235Y-126397776D01*
X224858167Y-126361728D01*
X224860088Y-126342219D01*
X224858167Y-125322710D01*
X224843235Y-125286662D01*
X224815645Y-125259072D01*
X224779597Y-125244140D01*
X224760088Y-125242219D01*
X224394548Y-125243972D01*
X224391643Y-125243004D01*
X224376818Y-125244057D01*
X224359627Y-125244140D01*
X224356306Y-125245515D01*
X224352723Y-125245770D01*
X224334414Y-125252776D01*
X224239380Y-125302118D01*
X224228340Y-125306691D01*
X224224494Y-125309846D01*
X224222586Y-125310838D01*
X224220853Y-125312835D01*
X224213187Y-125319128D01*
X224165255Y-125369228D01*
X224157279Y-125376146D01*
X224154666Y-125380295D01*
X224153132Y-125381900D01*
X224152121Y-125384339D01*
X224146836Y-125392736D01*
X224106897Y-125475753D01*
X224105513Y-125477138D01*
X224101060Y-125487887D01*
X224092211Y-125506282D01*
X224091956Y-125509865D01*
X224090581Y-125513186D01*
X224088660Y-125532695D01*
X223322957Y-125532695D01*
X223116588Y-125223963D01*
X223084168Y-125202252D01*
X223045908Y-125194600D01*
X223007631Y-125202172D01*
X222975166Y-125223815D01*
X222953455Y-125256235D01*
X222945803Y-125294495D01*
X222798861Y-125294495D01*
X222795616Y-125286662D01*
X222768026Y-125259072D01*
X222731978Y-125244140D01*
X222692960Y-125244140D01*
X222656912Y-125259072D01*
X222629322Y-125286662D01*
X222614390Y-125322710D01*
X222612469Y-125342219D01*
X222614283Y-126125194D01*
X222585234Y-126185576D01*
X222560572Y-126211354D01*
X222500752Y-126242413D01*
X222357423Y-126243724D01*
X222297680Y-126214983D01*
X222271906Y-126190324D01*
X222240992Y-126130782D01*
X222239120Y-125322710D01*
X222224188Y-125286662D01*
X222196598Y-125259072D01*
X222160550Y-125244140D01*
X222121532Y-125244140D01*
X222085484Y-125259072D01*
X222057894Y-125286662D01*
X222042962Y-125322710D01*
X222041041Y-125342219D01*
X221001061Y-125342219D01*
X221001024Y-125322710D01*
X220986092Y-125286662D01*
X220958502Y-125259072D01*
X220922454Y-125244140D01*
X220902945Y-125242219D01*
X220537405Y-125243972D01*
X220534500Y-125243004D01*
X220519675Y-125244057D01*
X220502484Y-125244140D01*
X220499163Y-125245515D01*
X220495580Y-125245770D01*
X220477271Y-125252776D01*
X220382237Y-125302118D01*
X220371197Y-125306691D01*
X220367351Y-125309846D01*
X220365443Y-125310838D01*
X220363710Y-125312835D01*
X220356044Y-125319128D01*
X220308112Y-125369228D01*
X220300136Y-125376146D01*
X220297523Y-125380295D01*
X220295989Y-125381900D01*
X220294978Y-125384339D01*
X220289693Y-125392736D01*
X220249754Y-125475753D01*
X220248370Y-125477138D01*
X220243917Y-125487887D01*
X220235068Y-125506282D01*
X220234813Y-125509865D01*
X220233438Y-125513186D01*
X220231517Y-125532695D01*
X218228989Y-125532695D01*
X218229334Y-125531621D01*
X218230483Y-125529797D01*
X218270082Y-125447483D01*
X218271864Y-125445308D01*
X218356159Y-125316068D01*
X218414663Y-125254919D01*
X218429594Y-125218870D01*
X218429594Y-125179852D01*
X218414663Y-125143804D01*
X218387073Y-125116214D01*
X218351025Y-125101283D01*
X218312007Y-125101283D01*
X218275958Y-125116214D01*
X218260805Y-125128651D01*
X218218859Y-125172493D01*
X218213112Y-125176343D01*
X218200841Y-125191326D01*
X218200750Y-125191423D01*
X218200736Y-125191455D01*
X218200692Y-125191510D01*
X218113491Y-125325203D01*
X218109659Y-125328527D01*
X218099216Y-125345117D01*
X218057634Y-125431550D01*
X218054163Y-125435553D01*
X218046172Y-125453454D01*
X218003816Y-125585471D01*
X218001073Y-125589568D01*
X217995363Y-125608322D01*
X217951106Y-125838349D01*
X217947723Y-125846519D01*
X217945823Y-125865812D01*
X217945802Y-125865923D01*
X217945808Y-125865957D01*
X217945802Y-125866028D01*
X217947468Y-126048185D01*
X217945802Y-126056609D01*
X217834691Y-126056609D01*
X217834691Y-124990171D01*
X228066437Y-124990171D01*
X228066437Y-126932361D01*
G37*
D10*
X233486904Y-99367319D02*
X233486904Y-100176842D01*
X233486904Y-100176842D02*
X233439285Y-100272080D01*
X233439285Y-100272080D02*
X233391666Y-100319700D01*
X233391666Y-100319700D02*
X233296428Y-100367319D01*
X233296428Y-100367319D02*
X233105952Y-100367319D01*
X233105952Y-100367319D02*
X233010714Y-100319700D01*
X233010714Y-100319700D02*
X232963095Y-100272080D01*
X232963095Y-100272080D02*
X232915476Y-100176842D01*
X232915476Y-100176842D02*
X232915476Y-99367319D01*
X231915476Y-100367319D02*
X232486904Y-100367319D01*
X232201190Y-100367319D02*
X232201190Y-99367319D01*
X232201190Y-99367319D02*
X232296428Y-99510176D01*
X232296428Y-99510176D02*
X232391666Y-99605414D01*
X232391666Y-99605414D02*
X232486904Y-99653033D01*
X233301190Y-122603628D02*
X233301190Y-123079819D01*
X233634523Y-122079819D02*
X233301190Y-122603628D01*
X233301190Y-122603628D02*
X232967857Y-122079819D01*
X232682142Y-122175057D02*
X232634523Y-122127438D01*
X232634523Y-122127438D02*
X232539285Y-122079819D01*
X232539285Y-122079819D02*
X232301190Y-122079819D01*
X232301190Y-122079819D02*
X232205952Y-122127438D01*
X232205952Y-122127438D02*
X232158333Y-122175057D01*
X232158333Y-122175057D02*
X232110714Y-122270295D01*
X232110714Y-122270295D02*
X232110714Y-122365533D01*
X232110714Y-122365533D02*
X232158333Y-122508390D01*
X232158333Y-122508390D02*
X232729761Y-123079819D01*
X232729761Y-123079819D02*
X232110714Y-123079819D01*
X237616666Y-95154819D02*
X237949999Y-94678628D01*
X238188094Y-95154819D02*
X238188094Y-94154819D01*
X238188094Y-94154819D02*
X237807142Y-94154819D01*
X237807142Y-94154819D02*
X237711904Y-94202438D01*
X237711904Y-94202438D02*
X237664285Y-94250057D01*
X237664285Y-94250057D02*
X237616666Y-94345295D01*
X237616666Y-94345295D02*
X237616666Y-94488152D01*
X237616666Y-94488152D02*
X237664285Y-94583390D01*
X237664285Y-94583390D02*
X237711904Y-94631009D01*
X237711904Y-94631009D02*
X237807142Y-94678628D01*
X237807142Y-94678628D02*
X238188094Y-94678628D01*
X236759523Y-94154819D02*
X236949999Y-94154819D01*
X236949999Y-94154819D02*
X237045237Y-94202438D01*
X237045237Y-94202438D02*
X237092856Y-94250057D01*
X237092856Y-94250057D02*
X237188094Y-94392914D01*
X237188094Y-94392914D02*
X237235713Y-94583390D01*
X237235713Y-94583390D02*
X237235713Y-94964342D01*
X237235713Y-94964342D02*
X237188094Y-95059580D01*
X237188094Y-95059580D02*
X237140475Y-95107200D01*
X237140475Y-95107200D02*
X237045237Y-95154819D01*
X237045237Y-95154819D02*
X236854761Y-95154819D01*
X236854761Y-95154819D02*
X236759523Y-95107200D01*
X236759523Y-95107200D02*
X236711904Y-95059580D01*
X236711904Y-95059580D02*
X236664285Y-94964342D01*
X236664285Y-94964342D02*
X236664285Y-94726247D01*
X236664285Y-94726247D02*
X236711904Y-94631009D01*
X236711904Y-94631009D02*
X236759523Y-94583390D01*
X236759523Y-94583390D02*
X236854761Y-94535771D01*
X236854761Y-94535771D02*
X237045237Y-94535771D01*
X237045237Y-94535771D02*
X237140475Y-94583390D01*
X237140475Y-94583390D02*
X237188094Y-94631009D01*
X237188094Y-94631009D02*
X237235713Y-94726247D01*
X221391666Y-119784580D02*
X221439285Y-119832200D01*
X221439285Y-119832200D02*
X221582142Y-119879819D01*
X221582142Y-119879819D02*
X221677380Y-119879819D01*
X221677380Y-119879819D02*
X221820237Y-119832200D01*
X221820237Y-119832200D02*
X221915475Y-119736961D01*
X221915475Y-119736961D02*
X221963094Y-119641723D01*
X221963094Y-119641723D02*
X222010713Y-119451247D01*
X222010713Y-119451247D02*
X222010713Y-119308390D01*
X222010713Y-119308390D02*
X221963094Y-119117914D01*
X221963094Y-119117914D02*
X221915475Y-119022676D01*
X221915475Y-119022676D02*
X221820237Y-118927438D01*
X221820237Y-118927438D02*
X221677380Y-118879819D01*
X221677380Y-118879819D02*
X221582142Y-118879819D01*
X221582142Y-118879819D02*
X221439285Y-118927438D01*
X221439285Y-118927438D02*
X221391666Y-118975057D01*
X221010713Y-118975057D02*
X220963094Y-118927438D01*
X220963094Y-118927438D02*
X220867856Y-118879819D01*
X220867856Y-118879819D02*
X220629761Y-118879819D01*
X220629761Y-118879819D02*
X220534523Y-118927438D01*
X220534523Y-118927438D02*
X220486904Y-118975057D01*
X220486904Y-118975057D02*
X220439285Y-119070295D01*
X220439285Y-119070295D02*
X220439285Y-119165533D01*
X220439285Y-119165533D02*
X220486904Y-119308390D01*
X220486904Y-119308390D02*
X221058332Y-119879819D01*
X221058332Y-119879819D02*
X220439285Y-119879819D01*
X233277857Y-118132080D02*
X233325476Y-118179700D01*
X233325476Y-118179700D02*
X233468333Y-118227319D01*
X233468333Y-118227319D02*
X233563571Y-118227319D01*
X233563571Y-118227319D02*
X233706428Y-118179700D01*
X233706428Y-118179700D02*
X233801666Y-118084461D01*
X233801666Y-118084461D02*
X233849285Y-117989223D01*
X233849285Y-117989223D02*
X233896904Y-117798747D01*
X233896904Y-117798747D02*
X233896904Y-117655890D01*
X233896904Y-117655890D02*
X233849285Y-117465414D01*
X233849285Y-117465414D02*
X233801666Y-117370176D01*
X233801666Y-117370176D02*
X233706428Y-117274938D01*
X233706428Y-117274938D02*
X233563571Y-117227319D01*
X233563571Y-117227319D02*
X233468333Y-117227319D01*
X233468333Y-117227319D02*
X233325476Y-117274938D01*
X233325476Y-117274938D02*
X233277857Y-117322557D01*
X232896904Y-117322557D02*
X232849285Y-117274938D01*
X232849285Y-117274938D02*
X232754047Y-117227319D01*
X232754047Y-117227319D02*
X232515952Y-117227319D01*
X232515952Y-117227319D02*
X232420714Y-117274938D01*
X232420714Y-117274938D02*
X232373095Y-117322557D01*
X232373095Y-117322557D02*
X232325476Y-117417795D01*
X232325476Y-117417795D02*
X232325476Y-117513033D01*
X232325476Y-117513033D02*
X232373095Y-117655890D01*
X232373095Y-117655890D02*
X232944523Y-118227319D01*
X232944523Y-118227319D02*
X232325476Y-118227319D01*
X231944523Y-117322557D02*
X231896904Y-117274938D01*
X231896904Y-117274938D02*
X231801666Y-117227319D01*
X231801666Y-117227319D02*
X231563571Y-117227319D01*
X231563571Y-117227319D02*
X231468333Y-117274938D01*
X231468333Y-117274938D02*
X231420714Y-117322557D01*
X231420714Y-117322557D02*
X231373095Y-117417795D01*
X231373095Y-117417795D02*
X231373095Y-117513033D01*
X231373095Y-117513033D02*
X231420714Y-117655890D01*
X231420714Y-117655890D02*
X231992142Y-118227319D01*
X231992142Y-118227319D02*
X231373095Y-118227319D01*
X221341666Y-117454819D02*
X221817856Y-117454819D01*
X221817856Y-117454819D02*
X221817856Y-116454819D01*
X220484523Y-117454819D02*
X221055951Y-117454819D01*
X220770237Y-117454819D02*
X220770237Y-116454819D01*
X220770237Y-116454819D02*
X220865475Y-116597676D01*
X220865475Y-116597676D02*
X220960713Y-116692914D01*
X220960713Y-116692914D02*
X221055951Y-116740533D01*
X228267857Y-109584580D02*
X228315476Y-109632200D01*
X228315476Y-109632200D02*
X228458333Y-109679819D01*
X228458333Y-109679819D02*
X228553571Y-109679819D01*
X228553571Y-109679819D02*
X228696428Y-109632200D01*
X228696428Y-109632200D02*
X228791666Y-109536961D01*
X228791666Y-109536961D02*
X228839285Y-109441723D01*
X228839285Y-109441723D02*
X228886904Y-109251247D01*
X228886904Y-109251247D02*
X228886904Y-109108390D01*
X228886904Y-109108390D02*
X228839285Y-108917914D01*
X228839285Y-108917914D02*
X228791666Y-108822676D01*
X228791666Y-108822676D02*
X228696428Y-108727438D01*
X228696428Y-108727438D02*
X228553571Y-108679819D01*
X228553571Y-108679819D02*
X228458333Y-108679819D01*
X228458333Y-108679819D02*
X228315476Y-108727438D01*
X228315476Y-108727438D02*
X228267857Y-108775057D01*
X227315476Y-109679819D02*
X227886904Y-109679819D01*
X227601190Y-109679819D02*
X227601190Y-108679819D01*
X227601190Y-108679819D02*
X227696428Y-108822676D01*
X227696428Y-108822676D02*
X227791666Y-108917914D01*
X227791666Y-108917914D02*
X227886904Y-108965533D01*
X226934523Y-108775057D02*
X226886904Y-108727438D01*
X226886904Y-108727438D02*
X226791666Y-108679819D01*
X226791666Y-108679819D02*
X226553571Y-108679819D01*
X226553571Y-108679819D02*
X226458333Y-108727438D01*
X226458333Y-108727438D02*
X226410714Y-108775057D01*
X226410714Y-108775057D02*
X226363095Y-108870295D01*
X226363095Y-108870295D02*
X226363095Y-108965533D01*
X226363095Y-108965533D02*
X226410714Y-109108390D01*
X226410714Y-109108390D02*
X226982142Y-109679819D01*
X226982142Y-109679819D02*
X226363095Y-109679819D01*
X236417857Y-123734580D02*
X236465476Y-123782200D01*
X236465476Y-123782200D02*
X236608333Y-123829819D01*
X236608333Y-123829819D02*
X236703571Y-123829819D01*
X236703571Y-123829819D02*
X236846428Y-123782200D01*
X236846428Y-123782200D02*
X236941666Y-123686961D01*
X236941666Y-123686961D02*
X236989285Y-123591723D01*
X236989285Y-123591723D02*
X237036904Y-123401247D01*
X237036904Y-123401247D02*
X237036904Y-123258390D01*
X237036904Y-123258390D02*
X236989285Y-123067914D01*
X236989285Y-123067914D02*
X236941666Y-122972676D01*
X236941666Y-122972676D02*
X236846428Y-122877438D01*
X236846428Y-122877438D02*
X236703571Y-122829819D01*
X236703571Y-122829819D02*
X236608333Y-122829819D01*
X236608333Y-122829819D02*
X236465476Y-122877438D01*
X236465476Y-122877438D02*
X236417857Y-122925057D01*
X236036904Y-122925057D02*
X235989285Y-122877438D01*
X235989285Y-122877438D02*
X235894047Y-122829819D01*
X235894047Y-122829819D02*
X235655952Y-122829819D01*
X235655952Y-122829819D02*
X235560714Y-122877438D01*
X235560714Y-122877438D02*
X235513095Y-122925057D01*
X235513095Y-122925057D02*
X235465476Y-123020295D01*
X235465476Y-123020295D02*
X235465476Y-123115533D01*
X235465476Y-123115533D02*
X235513095Y-123258390D01*
X235513095Y-123258390D02*
X236084523Y-123829819D01*
X236084523Y-123829819D02*
X235465476Y-123829819D01*
X234846428Y-122829819D02*
X234751190Y-122829819D01*
X234751190Y-122829819D02*
X234655952Y-122877438D01*
X234655952Y-122877438D02*
X234608333Y-122925057D01*
X234608333Y-122925057D02*
X234560714Y-123020295D01*
X234560714Y-123020295D02*
X234513095Y-123210771D01*
X234513095Y-123210771D02*
X234513095Y-123448866D01*
X234513095Y-123448866D02*
X234560714Y-123639342D01*
X234560714Y-123639342D02*
X234608333Y-123734580D01*
X234608333Y-123734580D02*
X234655952Y-123782200D01*
X234655952Y-123782200D02*
X234751190Y-123829819D01*
X234751190Y-123829819D02*
X234846428Y-123829819D01*
X234846428Y-123829819D02*
X234941666Y-123782200D01*
X234941666Y-123782200D02*
X234989285Y-123734580D01*
X234989285Y-123734580D02*
X235036904Y-123639342D01*
X235036904Y-123639342D02*
X235084523Y-123448866D01*
X235084523Y-123448866D02*
X235084523Y-123210771D01*
X235084523Y-123210771D02*
X235036904Y-123020295D01*
X235036904Y-123020295D02*
X234989285Y-122925057D01*
X234989285Y-122925057D02*
X234941666Y-122877438D01*
X234941666Y-122877438D02*
X234846428Y-122829819D01*
X219926190Y-106353628D02*
X219926190Y-106829819D01*
X220259523Y-105829819D02*
X219926190Y-106353628D01*
X219926190Y-106353628D02*
X219592857Y-105829819D01*
X218735714Y-106829819D02*
X219307142Y-106829819D01*
X219021428Y-106829819D02*
X219021428Y-105829819D01*
X219021428Y-105829819D02*
X219116666Y-105972676D01*
X219116666Y-105972676D02*
X219211904Y-106067914D01*
X219211904Y-106067914D02*
X219307142Y-106115533D01*
X238041666Y-96509580D02*
X238089285Y-96557200D01*
X238089285Y-96557200D02*
X238232142Y-96604819D01*
X238232142Y-96604819D02*
X238327380Y-96604819D01*
X238327380Y-96604819D02*
X238470237Y-96557200D01*
X238470237Y-96557200D02*
X238565475Y-96461961D01*
X238565475Y-96461961D02*
X238613094Y-96366723D01*
X238613094Y-96366723D02*
X238660713Y-96176247D01*
X238660713Y-96176247D02*
X238660713Y-96033390D01*
X238660713Y-96033390D02*
X238613094Y-95842914D01*
X238613094Y-95842914D02*
X238565475Y-95747676D01*
X238565475Y-95747676D02*
X238470237Y-95652438D01*
X238470237Y-95652438D02*
X238327380Y-95604819D01*
X238327380Y-95604819D02*
X238232142Y-95604819D01*
X238232142Y-95604819D02*
X238089285Y-95652438D01*
X238089285Y-95652438D02*
X238041666Y-95700057D01*
X237136904Y-95604819D02*
X237613094Y-95604819D01*
X237613094Y-95604819D02*
X237660713Y-96081009D01*
X237660713Y-96081009D02*
X237613094Y-96033390D01*
X237613094Y-96033390D02*
X237517856Y-95985771D01*
X237517856Y-95985771D02*
X237279761Y-95985771D01*
X237279761Y-95985771D02*
X237184523Y-96033390D01*
X237184523Y-96033390D02*
X237136904Y-96081009D01*
X237136904Y-96081009D02*
X237089285Y-96176247D01*
X237089285Y-96176247D02*
X237089285Y-96414342D01*
X237089285Y-96414342D02*
X237136904Y-96509580D01*
X237136904Y-96509580D02*
X237184523Y-96557200D01*
X237184523Y-96557200D02*
X237279761Y-96604819D01*
X237279761Y-96604819D02*
X237517856Y-96604819D01*
X237517856Y-96604819D02*
X237613094Y-96557200D01*
X237613094Y-96557200D02*
X237660713Y-96509580D01*
X223916666Y-106834580D02*
X223964285Y-106882200D01*
X223964285Y-106882200D02*
X224107142Y-106929819D01*
X224107142Y-106929819D02*
X224202380Y-106929819D01*
X224202380Y-106929819D02*
X224345237Y-106882200D01*
X224345237Y-106882200D02*
X224440475Y-106786961D01*
X224440475Y-106786961D02*
X224488094Y-106691723D01*
X224488094Y-106691723D02*
X224535713Y-106501247D01*
X224535713Y-106501247D02*
X224535713Y-106358390D01*
X224535713Y-106358390D02*
X224488094Y-106167914D01*
X224488094Y-106167914D02*
X224440475Y-106072676D01*
X224440475Y-106072676D02*
X224345237Y-105977438D01*
X224345237Y-105977438D02*
X224202380Y-105929819D01*
X224202380Y-105929819D02*
X224107142Y-105929819D01*
X224107142Y-105929819D02*
X223964285Y-105977438D01*
X223964285Y-105977438D02*
X223916666Y-106025057D01*
X223583332Y-105929819D02*
X222916666Y-105929819D01*
X222916666Y-105929819D02*
X223345237Y-106929819D01*
X230666666Y-97359580D02*
X230714285Y-97407200D01*
X230714285Y-97407200D02*
X230857142Y-97454819D01*
X230857142Y-97454819D02*
X230952380Y-97454819D01*
X230952380Y-97454819D02*
X231095237Y-97407200D01*
X231095237Y-97407200D02*
X231190475Y-97311961D01*
X231190475Y-97311961D02*
X231238094Y-97216723D01*
X231238094Y-97216723D02*
X231285713Y-97026247D01*
X231285713Y-97026247D02*
X231285713Y-96883390D01*
X231285713Y-96883390D02*
X231238094Y-96692914D01*
X231238094Y-96692914D02*
X231190475Y-96597676D01*
X231190475Y-96597676D02*
X231095237Y-96502438D01*
X231095237Y-96502438D02*
X230952380Y-96454819D01*
X230952380Y-96454819D02*
X230857142Y-96454819D01*
X230857142Y-96454819D02*
X230714285Y-96502438D01*
X230714285Y-96502438D02*
X230666666Y-96550057D01*
X229809523Y-96788152D02*
X229809523Y-97454819D01*
X230047618Y-96407200D02*
X230285713Y-97121485D01*
X230285713Y-97121485D02*
X229666666Y-97121485D01*
X220341666Y-93729819D02*
X220674999Y-93253628D01*
X220913094Y-93729819D02*
X220913094Y-92729819D01*
X220913094Y-92729819D02*
X220532142Y-92729819D01*
X220532142Y-92729819D02*
X220436904Y-92777438D01*
X220436904Y-92777438D02*
X220389285Y-92825057D01*
X220389285Y-92825057D02*
X220341666Y-92920295D01*
X220341666Y-92920295D02*
X220341666Y-93063152D01*
X220341666Y-93063152D02*
X220389285Y-93158390D01*
X220389285Y-93158390D02*
X220436904Y-93206009D01*
X220436904Y-93206009D02*
X220532142Y-93253628D01*
X220532142Y-93253628D02*
X220913094Y-93253628D01*
X219770237Y-93158390D02*
X219865475Y-93110771D01*
X219865475Y-93110771D02*
X219913094Y-93063152D01*
X219913094Y-93063152D02*
X219960713Y-92967914D01*
X219960713Y-92967914D02*
X219960713Y-92920295D01*
X219960713Y-92920295D02*
X219913094Y-92825057D01*
X219913094Y-92825057D02*
X219865475Y-92777438D01*
X219865475Y-92777438D02*
X219770237Y-92729819D01*
X219770237Y-92729819D02*
X219579761Y-92729819D01*
X219579761Y-92729819D02*
X219484523Y-92777438D01*
X219484523Y-92777438D02*
X219436904Y-92825057D01*
X219436904Y-92825057D02*
X219389285Y-92920295D01*
X219389285Y-92920295D02*
X219389285Y-92967914D01*
X219389285Y-92967914D02*
X219436904Y-93063152D01*
X219436904Y-93063152D02*
X219484523Y-93110771D01*
X219484523Y-93110771D02*
X219579761Y-93158390D01*
X219579761Y-93158390D02*
X219770237Y-93158390D01*
X219770237Y-93158390D02*
X219865475Y-93206009D01*
X219865475Y-93206009D02*
X219913094Y-93253628D01*
X219913094Y-93253628D02*
X219960713Y-93348866D01*
X219960713Y-93348866D02*
X219960713Y-93539342D01*
X219960713Y-93539342D02*
X219913094Y-93634580D01*
X219913094Y-93634580D02*
X219865475Y-93682200D01*
X219865475Y-93682200D02*
X219770237Y-93729819D01*
X219770237Y-93729819D02*
X219579761Y-93729819D01*
X219579761Y-93729819D02*
X219484523Y-93682200D01*
X219484523Y-93682200D02*
X219436904Y-93634580D01*
X219436904Y-93634580D02*
X219389285Y-93539342D01*
X219389285Y-93539342D02*
X219389285Y-93348866D01*
X219389285Y-93348866D02*
X219436904Y-93253628D01*
X219436904Y-93253628D02*
X219484523Y-93206009D01*
X219484523Y-93206009D02*
X219579761Y-93158390D01*
X237641666Y-93754819D02*
X237974999Y-93278628D01*
X238213094Y-93754819D02*
X238213094Y-92754819D01*
X238213094Y-92754819D02*
X237832142Y-92754819D01*
X237832142Y-92754819D02*
X237736904Y-92802438D01*
X237736904Y-92802438D02*
X237689285Y-92850057D01*
X237689285Y-92850057D02*
X237641666Y-92945295D01*
X237641666Y-92945295D02*
X237641666Y-93088152D01*
X237641666Y-93088152D02*
X237689285Y-93183390D01*
X237689285Y-93183390D02*
X237736904Y-93231009D01*
X237736904Y-93231009D02*
X237832142Y-93278628D01*
X237832142Y-93278628D02*
X238213094Y-93278628D01*
X236784523Y-93088152D02*
X236784523Y-93754819D01*
X237022618Y-92707200D02*
X237260713Y-93421485D01*
X237260713Y-93421485D02*
X236641666Y-93421485D01*
X229908599Y-100423333D02*
X229908599Y-101232856D01*
X229908599Y-101232856D02*
X229860980Y-101328094D01*
X229860980Y-101328094D02*
X229813361Y-101375714D01*
X229813361Y-101375714D02*
X229718123Y-101423333D01*
X229718123Y-101423333D02*
X229527647Y-101423333D01*
X229527647Y-101423333D02*
X229432409Y-101375714D01*
X229432409Y-101375714D02*
X229384790Y-101328094D01*
X229384790Y-101328094D02*
X229337171Y-101232856D01*
X229337171Y-101232856D02*
X229337171Y-100423333D01*
X228908599Y-100518571D02*
X228860980Y-100470952D01*
X228860980Y-100470952D02*
X228765742Y-100423333D01*
X228765742Y-100423333D02*
X228527647Y-100423333D01*
X228527647Y-100423333D02*
X228432409Y-100470952D01*
X228432409Y-100470952D02*
X228384790Y-100518571D01*
X228384790Y-100518571D02*
X228337171Y-100613809D01*
X228337171Y-100613809D02*
X228337171Y-100709047D01*
X228337171Y-100709047D02*
X228384790Y-100851904D01*
X228384790Y-100851904D02*
X228956218Y-101423333D01*
X228956218Y-101423333D02*
X228337171Y-101423333D01*
X236460357Y-125334580D02*
X236507976Y-125382200D01*
X236507976Y-125382200D02*
X236650833Y-125429819D01*
X236650833Y-125429819D02*
X236746071Y-125429819D01*
X236746071Y-125429819D02*
X236888928Y-125382200D01*
X236888928Y-125382200D02*
X236984166Y-125286961D01*
X236984166Y-125286961D02*
X237031785Y-125191723D01*
X237031785Y-125191723D02*
X237079404Y-125001247D01*
X237079404Y-125001247D02*
X237079404Y-124858390D01*
X237079404Y-124858390D02*
X237031785Y-124667914D01*
X237031785Y-124667914D02*
X236984166Y-124572676D01*
X236984166Y-124572676D02*
X236888928Y-124477438D01*
X236888928Y-124477438D02*
X236746071Y-124429819D01*
X236746071Y-124429819D02*
X236650833Y-124429819D01*
X236650833Y-124429819D02*
X236507976Y-124477438D01*
X236507976Y-124477438D02*
X236460357Y-124525057D01*
X235507976Y-125429819D02*
X236079404Y-125429819D01*
X235793690Y-125429819D02*
X235793690Y-124429819D01*
X235793690Y-124429819D02*
X235888928Y-124572676D01*
X235888928Y-124572676D02*
X235984166Y-124667914D01*
X235984166Y-124667914D02*
X236079404Y-124715533D01*
X235031785Y-125429819D02*
X234841309Y-125429819D01*
X234841309Y-125429819D02*
X234746071Y-125382200D01*
X234746071Y-125382200D02*
X234698452Y-125334580D01*
X234698452Y-125334580D02*
X234603214Y-125191723D01*
X234603214Y-125191723D02*
X234555595Y-125001247D01*
X234555595Y-125001247D02*
X234555595Y-124620295D01*
X234555595Y-124620295D02*
X234603214Y-124525057D01*
X234603214Y-124525057D02*
X234650833Y-124477438D01*
X234650833Y-124477438D02*
X234746071Y-124429819D01*
X234746071Y-124429819D02*
X234936547Y-124429819D01*
X234936547Y-124429819D02*
X235031785Y-124477438D01*
X235031785Y-124477438D02*
X235079404Y-124525057D01*
X235079404Y-124525057D02*
X235127023Y-124620295D01*
X235127023Y-124620295D02*
X235127023Y-124858390D01*
X235127023Y-124858390D02*
X235079404Y-124953628D01*
X235079404Y-124953628D02*
X235031785Y-125001247D01*
X235031785Y-125001247D02*
X234936547Y-125048866D01*
X234936547Y-125048866D02*
X234746071Y-125048866D01*
X234746071Y-125048866D02*
X234650833Y-125001247D01*
X234650833Y-125001247D02*
X234603214Y-124953628D01*
X234603214Y-124953628D02*
X234555595Y-124858390D01*
X221391666Y-121234580D02*
X221439285Y-121282200D01*
X221439285Y-121282200D02*
X221582142Y-121329819D01*
X221582142Y-121329819D02*
X221677380Y-121329819D01*
X221677380Y-121329819D02*
X221820237Y-121282200D01*
X221820237Y-121282200D02*
X221915475Y-121186961D01*
X221915475Y-121186961D02*
X221963094Y-121091723D01*
X221963094Y-121091723D02*
X222010713Y-120901247D01*
X222010713Y-120901247D02*
X222010713Y-120758390D01*
X222010713Y-120758390D02*
X221963094Y-120567914D01*
X221963094Y-120567914D02*
X221915475Y-120472676D01*
X221915475Y-120472676D02*
X221820237Y-120377438D01*
X221820237Y-120377438D02*
X221677380Y-120329819D01*
X221677380Y-120329819D02*
X221582142Y-120329819D01*
X221582142Y-120329819D02*
X221439285Y-120377438D01*
X221439285Y-120377438D02*
X221391666Y-120425057D01*
X221058332Y-120329819D02*
X220439285Y-120329819D01*
X220439285Y-120329819D02*
X220772618Y-120710771D01*
X220772618Y-120710771D02*
X220629761Y-120710771D01*
X220629761Y-120710771D02*
X220534523Y-120758390D01*
X220534523Y-120758390D02*
X220486904Y-120806009D01*
X220486904Y-120806009D02*
X220439285Y-120901247D01*
X220439285Y-120901247D02*
X220439285Y-121139342D01*
X220439285Y-121139342D02*
X220486904Y-121234580D01*
X220486904Y-121234580D02*
X220534523Y-121282200D01*
X220534523Y-121282200D02*
X220629761Y-121329819D01*
X220629761Y-121329819D02*
X220915475Y-121329819D01*
X220915475Y-121329819D02*
X221010713Y-121282200D01*
X221010713Y-121282200D02*
X221058332Y-121234580D01*
X222366666Y-112529819D02*
X222699999Y-112053628D01*
X222938094Y-112529819D02*
X222938094Y-111529819D01*
X222938094Y-111529819D02*
X222557142Y-111529819D01*
X222557142Y-111529819D02*
X222461904Y-111577438D01*
X222461904Y-111577438D02*
X222414285Y-111625057D01*
X222414285Y-111625057D02*
X222366666Y-111720295D01*
X222366666Y-111720295D02*
X222366666Y-111863152D01*
X222366666Y-111863152D02*
X222414285Y-111958390D01*
X222414285Y-111958390D02*
X222461904Y-112006009D01*
X222461904Y-112006009D02*
X222557142Y-112053628D01*
X222557142Y-112053628D02*
X222938094Y-112053628D01*
X221461904Y-111529819D02*
X221938094Y-111529819D01*
X221938094Y-111529819D02*
X221985713Y-112006009D01*
X221985713Y-112006009D02*
X221938094Y-111958390D01*
X221938094Y-111958390D02*
X221842856Y-111910771D01*
X221842856Y-111910771D02*
X221604761Y-111910771D01*
X221604761Y-111910771D02*
X221509523Y-111958390D01*
X221509523Y-111958390D02*
X221461904Y-112006009D01*
X221461904Y-112006009D02*
X221414285Y-112101247D01*
X221414285Y-112101247D02*
X221414285Y-112339342D01*
X221414285Y-112339342D02*
X221461904Y-112434580D01*
X221461904Y-112434580D02*
X221509523Y-112482200D01*
X221509523Y-112482200D02*
X221604761Y-112529819D01*
X221604761Y-112529819D02*
X221842856Y-112529819D01*
X221842856Y-112529819D02*
X221938094Y-112482200D01*
X221938094Y-112482200D02*
X221985713Y-112434580D01*
X222816666Y-93704819D02*
X223149999Y-93228628D01*
X223388094Y-93704819D02*
X223388094Y-92704819D01*
X223388094Y-92704819D02*
X223007142Y-92704819D01*
X223007142Y-92704819D02*
X222911904Y-92752438D01*
X222911904Y-92752438D02*
X222864285Y-92800057D01*
X222864285Y-92800057D02*
X222816666Y-92895295D01*
X222816666Y-92895295D02*
X222816666Y-93038152D01*
X222816666Y-93038152D02*
X222864285Y-93133390D01*
X222864285Y-93133390D02*
X222911904Y-93181009D01*
X222911904Y-93181009D02*
X223007142Y-93228628D01*
X223007142Y-93228628D02*
X223388094Y-93228628D01*
X222483332Y-92704819D02*
X221816666Y-92704819D01*
X221816666Y-92704819D02*
X222245237Y-93704819D01*
X221316666Y-115084580D02*
X221364285Y-115132200D01*
X221364285Y-115132200D02*
X221507142Y-115179819D01*
X221507142Y-115179819D02*
X221602380Y-115179819D01*
X221602380Y-115179819D02*
X221745237Y-115132200D01*
X221745237Y-115132200D02*
X221840475Y-115036961D01*
X221840475Y-115036961D02*
X221888094Y-114941723D01*
X221888094Y-114941723D02*
X221935713Y-114751247D01*
X221935713Y-114751247D02*
X221935713Y-114608390D01*
X221935713Y-114608390D02*
X221888094Y-114417914D01*
X221888094Y-114417914D02*
X221840475Y-114322676D01*
X221840475Y-114322676D02*
X221745237Y-114227438D01*
X221745237Y-114227438D02*
X221602380Y-114179819D01*
X221602380Y-114179819D02*
X221507142Y-114179819D01*
X221507142Y-114179819D02*
X221364285Y-114227438D01*
X221364285Y-114227438D02*
X221316666Y-114275057D01*
X220364285Y-115179819D02*
X220935713Y-115179819D01*
X220649999Y-115179819D02*
X220649999Y-114179819D01*
X220649999Y-114179819D02*
X220745237Y-114322676D01*
X220745237Y-114322676D02*
X220840475Y-114417914D01*
X220840475Y-114417914D02*
X220935713Y-114465533D01*
X219691666Y-113309580D02*
X219739285Y-113357200D01*
X219739285Y-113357200D02*
X219882142Y-113404819D01*
X219882142Y-113404819D02*
X219977380Y-113404819D01*
X219977380Y-113404819D02*
X220120237Y-113357200D01*
X220120237Y-113357200D02*
X220215475Y-113261961D01*
X220215475Y-113261961D02*
X220263094Y-113166723D01*
X220263094Y-113166723D02*
X220310713Y-112976247D01*
X220310713Y-112976247D02*
X220310713Y-112833390D01*
X220310713Y-112833390D02*
X220263094Y-112642914D01*
X220263094Y-112642914D02*
X220215475Y-112547676D01*
X220215475Y-112547676D02*
X220120237Y-112452438D01*
X220120237Y-112452438D02*
X219977380Y-112404819D01*
X219977380Y-112404819D02*
X219882142Y-112404819D01*
X219882142Y-112404819D02*
X219739285Y-112452438D01*
X219739285Y-112452438D02*
X219691666Y-112500057D01*
X218834523Y-112404819D02*
X219024999Y-112404819D01*
X219024999Y-112404819D02*
X219120237Y-112452438D01*
X219120237Y-112452438D02*
X219167856Y-112500057D01*
X219167856Y-112500057D02*
X219263094Y-112642914D01*
X219263094Y-112642914D02*
X219310713Y-112833390D01*
X219310713Y-112833390D02*
X219310713Y-113214342D01*
X219310713Y-113214342D02*
X219263094Y-113309580D01*
X219263094Y-113309580D02*
X219215475Y-113357200D01*
X219215475Y-113357200D02*
X219120237Y-113404819D01*
X219120237Y-113404819D02*
X218929761Y-113404819D01*
X218929761Y-113404819D02*
X218834523Y-113357200D01*
X218834523Y-113357200D02*
X218786904Y-113309580D01*
X218786904Y-113309580D02*
X218739285Y-113214342D01*
X218739285Y-113214342D02*
X218739285Y-112976247D01*
X218739285Y-112976247D02*
X218786904Y-112881009D01*
X218786904Y-112881009D02*
X218834523Y-112833390D01*
X218834523Y-112833390D02*
X218929761Y-112785771D01*
X218929761Y-112785771D02*
X219120237Y-112785771D01*
X219120237Y-112785771D02*
X219215475Y-112833390D01*
X219215475Y-112833390D02*
X219263094Y-112881009D01*
X219263094Y-112881009D02*
X219310713Y-112976247D01*
X236316666Y-105192319D02*
X236792856Y-105192319D01*
X236792856Y-105192319D02*
X236792856Y-104192319D01*
X236030951Y-104287557D02*
X235983332Y-104239938D01*
X235983332Y-104239938D02*
X235888094Y-104192319D01*
X235888094Y-104192319D02*
X235649999Y-104192319D01*
X235649999Y-104192319D02*
X235554761Y-104239938D01*
X235554761Y-104239938D02*
X235507142Y-104287557D01*
X235507142Y-104287557D02*
X235459523Y-104382795D01*
X235459523Y-104382795D02*
X235459523Y-104478033D01*
X235459523Y-104478033D02*
X235507142Y-104620890D01*
X235507142Y-104620890D02*
X236078570Y-105192319D01*
X236078570Y-105192319D02*
X235459523Y-105192319D01*
X232991666Y-125609580D02*
X233039285Y-125657200D01*
X233039285Y-125657200D02*
X233182142Y-125704819D01*
X233182142Y-125704819D02*
X233277380Y-125704819D01*
X233277380Y-125704819D02*
X233420237Y-125657200D01*
X233420237Y-125657200D02*
X233515475Y-125561961D01*
X233515475Y-125561961D02*
X233563094Y-125466723D01*
X233563094Y-125466723D02*
X233610713Y-125276247D01*
X233610713Y-125276247D02*
X233610713Y-125133390D01*
X233610713Y-125133390D02*
X233563094Y-124942914D01*
X233563094Y-124942914D02*
X233515475Y-124847676D01*
X233515475Y-124847676D02*
X233420237Y-124752438D01*
X233420237Y-124752438D02*
X233277380Y-124704819D01*
X233277380Y-124704819D02*
X233182142Y-124704819D01*
X233182142Y-124704819D02*
X233039285Y-124752438D01*
X233039285Y-124752438D02*
X232991666Y-124800057D01*
X232420237Y-125133390D02*
X232515475Y-125085771D01*
X232515475Y-125085771D02*
X232563094Y-125038152D01*
X232563094Y-125038152D02*
X232610713Y-124942914D01*
X232610713Y-124942914D02*
X232610713Y-124895295D01*
X232610713Y-124895295D02*
X232563094Y-124800057D01*
X232563094Y-124800057D02*
X232515475Y-124752438D01*
X232515475Y-124752438D02*
X232420237Y-124704819D01*
X232420237Y-124704819D02*
X232229761Y-124704819D01*
X232229761Y-124704819D02*
X232134523Y-124752438D01*
X232134523Y-124752438D02*
X232086904Y-124800057D01*
X232086904Y-124800057D02*
X232039285Y-124895295D01*
X232039285Y-124895295D02*
X232039285Y-124942914D01*
X232039285Y-124942914D02*
X232086904Y-125038152D01*
X232086904Y-125038152D02*
X232134523Y-125085771D01*
X232134523Y-125085771D02*
X232229761Y-125133390D01*
X232229761Y-125133390D02*
X232420237Y-125133390D01*
X232420237Y-125133390D02*
X232515475Y-125181009D01*
X232515475Y-125181009D02*
X232563094Y-125228628D01*
X232563094Y-125228628D02*
X232610713Y-125323866D01*
X232610713Y-125323866D02*
X232610713Y-125514342D01*
X232610713Y-125514342D02*
X232563094Y-125609580D01*
X232563094Y-125609580D02*
X232515475Y-125657200D01*
X232515475Y-125657200D02*
X232420237Y-125704819D01*
X232420237Y-125704819D02*
X232229761Y-125704819D01*
X232229761Y-125704819D02*
X232134523Y-125657200D01*
X232134523Y-125657200D02*
X232086904Y-125609580D01*
X232086904Y-125609580D02*
X232039285Y-125514342D01*
X232039285Y-125514342D02*
X232039285Y-125323866D01*
X232039285Y-125323866D02*
X232086904Y-125228628D01*
X232086904Y-125228628D02*
X232134523Y-125181009D01*
X232134523Y-125181009D02*
X232229761Y-125133390D01*
X226833333Y-99404819D02*
X226833333Y-100119104D01*
X226833333Y-100119104D02*
X226880952Y-100261961D01*
X226880952Y-100261961D02*
X226976190Y-100357200D01*
X226976190Y-100357200D02*
X227119047Y-100404819D01*
X227119047Y-100404819D02*
X227214285Y-100404819D01*
X225833333Y-100404819D02*
X226404761Y-100404819D01*
X226119047Y-100404819D02*
X226119047Y-99404819D01*
X226119047Y-99404819D02*
X226214285Y-99547676D01*
X226214285Y-99547676D02*
X226309523Y-99642914D01*
X226309523Y-99642914D02*
X226404761Y-99690533D01*
X225367857Y-112434580D02*
X225415476Y-112482200D01*
X225415476Y-112482200D02*
X225558333Y-112529819D01*
X225558333Y-112529819D02*
X225653571Y-112529819D01*
X225653571Y-112529819D02*
X225796428Y-112482200D01*
X225796428Y-112482200D02*
X225891666Y-112386961D01*
X225891666Y-112386961D02*
X225939285Y-112291723D01*
X225939285Y-112291723D02*
X225986904Y-112101247D01*
X225986904Y-112101247D02*
X225986904Y-111958390D01*
X225986904Y-111958390D02*
X225939285Y-111767914D01*
X225939285Y-111767914D02*
X225891666Y-111672676D01*
X225891666Y-111672676D02*
X225796428Y-111577438D01*
X225796428Y-111577438D02*
X225653571Y-111529819D01*
X225653571Y-111529819D02*
X225558333Y-111529819D01*
X225558333Y-111529819D02*
X225415476Y-111577438D01*
X225415476Y-111577438D02*
X225367857Y-111625057D01*
X224415476Y-112529819D02*
X224986904Y-112529819D01*
X224701190Y-112529819D02*
X224701190Y-111529819D01*
X224701190Y-111529819D02*
X224796428Y-111672676D01*
X224796428Y-111672676D02*
X224891666Y-111767914D01*
X224891666Y-111767914D02*
X224986904Y-111815533D01*
X224082142Y-111529819D02*
X223463095Y-111529819D01*
X223463095Y-111529819D02*
X223796428Y-111910771D01*
X223796428Y-111910771D02*
X223653571Y-111910771D01*
X223653571Y-111910771D02*
X223558333Y-111958390D01*
X223558333Y-111958390D02*
X223510714Y-112006009D01*
X223510714Y-112006009D02*
X223463095Y-112101247D01*
X223463095Y-112101247D02*
X223463095Y-112339342D01*
X223463095Y-112339342D02*
X223510714Y-112434580D01*
X223510714Y-112434580D02*
X223558333Y-112482200D01*
X223558333Y-112482200D02*
X223653571Y-112529819D01*
X223653571Y-112529819D02*
X223939285Y-112529819D01*
X223939285Y-112529819D02*
X224034523Y-112482200D01*
X224034523Y-112482200D02*
X224082142Y-112434580D01*
X233252857Y-116757080D02*
X233300476Y-116804700D01*
X233300476Y-116804700D02*
X233443333Y-116852319D01*
X233443333Y-116852319D02*
X233538571Y-116852319D01*
X233538571Y-116852319D02*
X233681428Y-116804700D01*
X233681428Y-116804700D02*
X233776666Y-116709461D01*
X233776666Y-116709461D02*
X233824285Y-116614223D01*
X233824285Y-116614223D02*
X233871904Y-116423747D01*
X233871904Y-116423747D02*
X233871904Y-116280890D01*
X233871904Y-116280890D02*
X233824285Y-116090414D01*
X233824285Y-116090414D02*
X233776666Y-115995176D01*
X233776666Y-115995176D02*
X233681428Y-115899938D01*
X233681428Y-115899938D02*
X233538571Y-115852319D01*
X233538571Y-115852319D02*
X233443333Y-115852319D01*
X233443333Y-115852319D02*
X233300476Y-115899938D01*
X233300476Y-115899938D02*
X233252857Y-115947557D01*
X232871904Y-115947557D02*
X232824285Y-115899938D01*
X232824285Y-115899938D02*
X232729047Y-115852319D01*
X232729047Y-115852319D02*
X232490952Y-115852319D01*
X232490952Y-115852319D02*
X232395714Y-115899938D01*
X232395714Y-115899938D02*
X232348095Y-115947557D01*
X232348095Y-115947557D02*
X232300476Y-116042795D01*
X232300476Y-116042795D02*
X232300476Y-116138033D01*
X232300476Y-116138033D02*
X232348095Y-116280890D01*
X232348095Y-116280890D02*
X232919523Y-116852319D01*
X232919523Y-116852319D02*
X232300476Y-116852319D01*
X231348095Y-116852319D02*
X231919523Y-116852319D01*
X231633809Y-116852319D02*
X231633809Y-115852319D01*
X231633809Y-115852319D02*
X231729047Y-115995176D01*
X231729047Y-115995176D02*
X231824285Y-116090414D01*
X231824285Y-116090414D02*
X231919523Y-116138033D01*
X232991666Y-120459580D02*
X233039285Y-120507200D01*
X233039285Y-120507200D02*
X233182142Y-120554819D01*
X233182142Y-120554819D02*
X233277380Y-120554819D01*
X233277380Y-120554819D02*
X233420237Y-120507200D01*
X233420237Y-120507200D02*
X233515475Y-120411961D01*
X233515475Y-120411961D02*
X233563094Y-120316723D01*
X233563094Y-120316723D02*
X233610713Y-120126247D01*
X233610713Y-120126247D02*
X233610713Y-119983390D01*
X233610713Y-119983390D02*
X233563094Y-119792914D01*
X233563094Y-119792914D02*
X233515475Y-119697676D01*
X233515475Y-119697676D02*
X233420237Y-119602438D01*
X233420237Y-119602438D02*
X233277380Y-119554819D01*
X233277380Y-119554819D02*
X233182142Y-119554819D01*
X233182142Y-119554819D02*
X233039285Y-119602438D01*
X233039285Y-119602438D02*
X232991666Y-119650057D01*
X232515475Y-120554819D02*
X232324999Y-120554819D01*
X232324999Y-120554819D02*
X232229761Y-120507200D01*
X232229761Y-120507200D02*
X232182142Y-120459580D01*
X232182142Y-120459580D02*
X232086904Y-120316723D01*
X232086904Y-120316723D02*
X232039285Y-120126247D01*
X232039285Y-120126247D02*
X232039285Y-119745295D01*
X232039285Y-119745295D02*
X232086904Y-119650057D01*
X232086904Y-119650057D02*
X232134523Y-119602438D01*
X232134523Y-119602438D02*
X232229761Y-119554819D01*
X232229761Y-119554819D02*
X232420237Y-119554819D01*
X232420237Y-119554819D02*
X232515475Y-119602438D01*
X232515475Y-119602438D02*
X232563094Y-119650057D01*
X232563094Y-119650057D02*
X232610713Y-119745295D01*
X232610713Y-119745295D02*
X232610713Y-119983390D01*
X232610713Y-119983390D02*
X232563094Y-120078628D01*
X232563094Y-120078628D02*
X232515475Y-120126247D01*
X232515475Y-120126247D02*
X232420237Y-120173866D01*
X232420237Y-120173866D02*
X232229761Y-120173866D01*
X232229761Y-120173866D02*
X232134523Y-120126247D01*
X232134523Y-120126247D02*
X232086904Y-120078628D01*
X232086904Y-120078628D02*
X232039285Y-119983390D01*
D13*
%TO.C,U1*%
X234000000Y-95877500D02*
X234800000Y-95877500D01*
X234000000Y-98997500D02*
X234800000Y-98997500D01*
X235600000Y-95877500D02*
X234800000Y-95877500D01*
X235600000Y-98997500D02*
X234800000Y-98997500D01*
X236100000Y-95927500D02*
X235860000Y-95597500D01*
X236340000Y-95597500D01*
X236100000Y-95927500D01*
G36*
X236100000Y-95927500D02*
G01*
X235860000Y-95597500D01*
X236340000Y-95597500D01*
X236100000Y-95927500D01*
G37*
%TO.C,Y2*%
X229790000Y-123285000D02*
X229790000Y-121935000D01*
X231540000Y-123285000D02*
X231540000Y-121935000D01*
%TO.C,R6*%
X235517621Y-94220000D02*
X235182379Y-94220000D01*
X235517621Y-94980000D02*
X235182379Y-94980000D01*
%TO.C,C2*%
X218816665Y-119115000D02*
X219048335Y-119115000D01*
X218816665Y-119835000D02*
X219048335Y-119835000D01*
%TO.C,C22*%
X235915000Y-117140835D02*
X235915000Y-116909165D01*
X236635000Y-117140835D02*
X236635000Y-116909165D01*
%TO.C,L1*%
X218990000Y-117246267D02*
X218990000Y-116903733D01*
X220010000Y-117246267D02*
X220010000Y-116903733D01*
%TO.C,C12*%
X225240000Y-110098335D02*
X225240000Y-109866665D01*
X225960000Y-110098335D02*
X225960000Y-109866665D01*
%TO.C,C20*%
X238973335Y-123015000D02*
X238741665Y-123015000D01*
X238973335Y-123735000D02*
X238741665Y-123735000D01*
%TO.C,Y1*%
X217800000Y-107050000D02*
X217800000Y-111050000D01*
X217800000Y-111050000D02*
X221100000Y-111050000D01*
%TO.C,C5*%
X237390000Y-97809165D02*
X237390000Y-98040835D01*
X238110000Y-97809165D02*
X238110000Y-98040835D01*
%TO.C,C7*%
X221890000Y-107334165D02*
X221890000Y-107565835D01*
X222610000Y-107334165D02*
X222610000Y-107565835D01*
%TO.C,C4*%
X231590000Y-97434165D02*
X231590000Y-97665835D01*
X232310000Y-97434165D02*
X232310000Y-97665835D01*
%TO.C,R8*%
X220007379Y-93995000D02*
X220342621Y-93995000D01*
X220007379Y-94755000D02*
X220342621Y-94755000D01*
%TO.C,R4*%
X235182379Y-92970000D02*
X235517621Y-92970000D01*
X235182379Y-93730000D02*
X235517621Y-93730000D01*
%TO.C,U2*%
X228346695Y-101808514D02*
X229146695Y-101808514D01*
X228346695Y-104928514D02*
X229146695Y-104928514D01*
X229946695Y-101808514D02*
X229146695Y-101808514D01*
X229946695Y-104928514D02*
X229146695Y-104928514D01*
X230446695Y-101858514D02*
X230206695Y-101528514D01*
X230686695Y-101528514D01*
X230446695Y-101858514D01*
G36*
X230446695Y-101858514D02*
G01*
X230206695Y-101528514D01*
X230686695Y-101528514D01*
X230446695Y-101858514D01*
G37*
%TO.C,C19*%
X238965835Y-124615000D02*
X238734165Y-124615000D01*
X238965835Y-125335000D02*
X238734165Y-125335000D01*
%TO.C,C3*%
X218816665Y-120390000D02*
X219048335Y-120390000D01*
X218816665Y-121110000D02*
X219048335Y-121110000D01*
%TO.C,R5*%
X221863070Y-110348992D02*
X221863070Y-110013750D01*
X222623072Y-110348992D02*
X222623072Y-110013750D01*
%TO.C,R7*%
X222792621Y-93995000D02*
X222457379Y-93995000D01*
X222792621Y-94755000D02*
X222457379Y-94755000D01*
%TO.C,C1*%
X218809165Y-114340000D02*
X219040835Y-114340000D01*
X218809165Y-115060000D02*
X219040835Y-115060000D01*
%TO.C,C6*%
X219636545Y-111341651D02*
X219404875Y-111341651D01*
X219636545Y-112061651D02*
X219404875Y-112061651D01*
%TO.C,L2*%
X238150000Y-99627500D02*
X234150000Y-99627500D01*
X238150000Y-103847500D02*
X236150000Y-103847500D01*
%TO.C,C8*%
X230835835Y-124897500D02*
X230604165Y-124897500D01*
X230835835Y-125617500D02*
X230604165Y-125617500D01*
%TO.C,R11*%
X237270000Y-127807379D02*
X237270000Y-128142621D01*
X238030000Y-127807379D02*
X238030000Y-128142621D01*
%TO.C,J1*%
X222560000Y-95630000D02*
X220860000Y-95630000D01*
X222560000Y-104970000D02*
X220860000Y-104970000D01*
%TO.C,C13*%
X223865000Y-110098335D02*
X223865000Y-109866665D01*
X224585000Y-110098335D02*
X224585000Y-109866665D01*
%TO.C,C21*%
X234765000Y-117140835D02*
X234765000Y-116909165D01*
X235485000Y-117140835D02*
X235485000Y-116909165D01*
%TO.C,C9*%
X230835835Y-119622500D02*
X230604165Y-119622500D01*
X230835835Y-120342500D02*
X230604165Y-120342500D01*
%TD*%
M02*
