%TF.GenerationSoftware,KiCad,Pcbnew,8.0.1*%
%TF.CreationDate,2024-04-18T13:31:19+02:00*%
%TF.ProjectId,ESP32S3_M.2_Board,45535033-3253-4335-9f4d-2e325f426f61,rev?*%
%TF.SameCoordinates,Original*%
%TF.FileFunction,Paste,Top*%
%TF.FilePolarity,Positive*%
%FSLAX46Y46*%
G04 Gerber Fmt 4.6, Leading zero omitted, Abs format (unit mm)*
G04 Created by KiCad (PCBNEW 8.0.1) date 2024-04-18 13:31:19*
%MOMM*%
%LPD*%
G01*
G04 APERTURE LIST*
G04 Aperture macros list*
%AMRoundRect*
0 Rectangle with rounded corners*
0 $1 Rounding radius*
0 $2 $3 $4 $5 $6 $7 $8 $9 X,Y pos of 4 corners*
0 Add a 4 corners polygon primitive as box body*
4,1,4,$2,$3,$4,$5,$6,$7,$8,$9,$2,$3,0*
0 Add four circle primitives for the rounded corners*
1,1,$1+$1,$2,$3*
1,1,$1+$1,$4,$5*
1,1,$1+$1,$6,$7*
1,1,$1+$1,$8,$9*
0 Add four rect primitives between the rounded corners*
20,1,$1+$1,$2,$3,$4,$5,0*
20,1,$1+$1,$4,$5,$6,$7,0*
20,1,$1+$1,$6,$7,$8,$9,0*
20,1,$1+$1,$8,$9,$2,$3,0*%
G04 Aperture macros list end*
%ADD10RoundRect,0.155000X-0.212500X-0.155000X0.212500X-0.155000X0.212500X0.155000X-0.212500X0.155000X0*%
%ADD11RoundRect,0.079500X-0.100500X0.079500X-0.100500X-0.079500X0.100500X-0.079500X0.100500X0.079500X0*%
%ADD12RoundRect,0.237500X0.237500X-0.287500X0.237500X0.287500X-0.237500X0.287500X-0.237500X-0.287500X0*%
%ADD13RoundRect,0.250000X-0.285000X-0.285000X0.285000X-0.285000X0.285000X0.285000X-0.285000X0.285000X0*%
%ADD14RoundRect,0.050000X-0.350000X-0.050000X0.350000X-0.050000X0.350000X0.050000X-0.350000X0.050000X0*%
%ADD15RoundRect,0.050000X-0.050000X-0.350000X0.050000X-0.350000X0.050000X0.350000X-0.050000X0.350000X0*%
%ADD16RoundRect,0.237500X0.300000X0.237500X-0.300000X0.237500X-0.300000X-0.237500X0.300000X-0.237500X0*%
%ADD17R,1.340000X0.700000*%
%ADD18RoundRect,0.155000X0.212500X0.155000X-0.212500X0.155000X-0.212500X-0.155000X0.212500X-0.155000X0*%
%ADD19RoundRect,0.155000X-0.155000X0.212500X-0.155000X-0.212500X0.155000X-0.212500X0.155000X0.212500X0*%
%ADD20R,1.000000X1.450000*%
%ADD21RoundRect,0.090000X0.090000X-0.139000X0.090000X0.139000X-0.090000X0.139000X-0.090000X-0.139000X0*%
%ADD22R,0.300000X0.900000*%
%ADD23R,1.650000X0.250000*%
%ADD24RoundRect,0.160000X-0.160000X0.197500X-0.160000X-0.197500X0.160000X-0.197500X0.160000X0.197500X0*%
%ADD25R,1.150000X1.800000*%
%ADD26RoundRect,0.160000X-0.197500X-0.160000X0.197500X-0.160000X0.197500X0.160000X-0.197500X0.160000X0*%
%ADD27RoundRect,0.090000X-0.139000X-0.090000X0.139000X-0.090000X0.139000X0.090000X-0.139000X0.090000X0*%
%ADD28R,0.350000X2.500000*%
%ADD29RoundRect,0.160000X0.197500X0.160000X-0.197500X0.160000X-0.197500X-0.160000X0.197500X-0.160000X0*%
G04 APERTURE END LIST*
D10*
%TO.C,C14*%
X230340000Y-106075000D03*
X231475000Y-106075000D03*
%TD*%
D11*
%TO.C,R1*%
X233050000Y-122180000D03*
X233050000Y-122870000D03*
%TD*%
D12*
%TO.C,L3*%
X221875000Y-101075000D03*
X221875000Y-99325000D03*
%TD*%
D13*
%TO.C,U3*%
X227605000Y-111250000D03*
X227605000Y-112580000D03*
X227605000Y-113910000D03*
X228935000Y-111250000D03*
X228935000Y-112580000D03*
X228935000Y-113910000D03*
X230265000Y-111250000D03*
X230265000Y-112580000D03*
X230265000Y-113910000D03*
D14*
X225485000Y-109980000D03*
X225485000Y-110380000D03*
X225485000Y-110780000D03*
X225485000Y-111180000D03*
X225485000Y-111580000D03*
X225485000Y-111980000D03*
X225485000Y-112380000D03*
X225485000Y-112780000D03*
X225485000Y-113180000D03*
X225485000Y-113580000D03*
X225485000Y-113980000D03*
X225485000Y-114380000D03*
X225485000Y-114780000D03*
X225485000Y-115180000D03*
D15*
X226335000Y-116030000D03*
X226735000Y-116030000D03*
X227135000Y-116030000D03*
X227535000Y-116030000D03*
X227935000Y-116030000D03*
X228335000Y-116030000D03*
X228735000Y-116030000D03*
X229135000Y-116030000D03*
X229535000Y-116030000D03*
X229935000Y-116030000D03*
X230335000Y-116030000D03*
X230735000Y-116030000D03*
X231135000Y-116030000D03*
X231535000Y-116030000D03*
D14*
X232385000Y-115180000D03*
X232385000Y-114780000D03*
X232385000Y-114380000D03*
X232385000Y-113980000D03*
X232385000Y-113580000D03*
X232385000Y-113180000D03*
X232385000Y-112780000D03*
X232385000Y-112380000D03*
X232385000Y-111980000D03*
X232385000Y-111580000D03*
X232385000Y-111180000D03*
X232385000Y-110780000D03*
X232385000Y-110380000D03*
X232385000Y-109980000D03*
D15*
X231535000Y-109130000D03*
X231135000Y-109130000D03*
X230735000Y-109130000D03*
X230335000Y-109130000D03*
X229935000Y-109130000D03*
X229535000Y-109130000D03*
X229135000Y-109130000D03*
X228735000Y-109130000D03*
X228335000Y-109130000D03*
X227935000Y-109130000D03*
X227535000Y-109130000D03*
X227135000Y-109130000D03*
X226735000Y-109130000D03*
X226335000Y-109130000D03*
%TD*%
D16*
%TO.C,C25*%
X221812500Y-97675000D03*
X220087500Y-97675000D03*
%TD*%
D17*
%TO.C,LED*%
X225990000Y-98750000D03*
X225990000Y-99850000D03*
X228460000Y-99850000D03*
X228460000Y-98750000D03*
%TD*%
D18*
%TO.C,C26*%
X227667500Y-96550000D03*
X226532500Y-96550000D03*
%TD*%
D19*
%TO.C,C15*%
X226650000Y-119707500D03*
X226650000Y-120842500D03*
%TD*%
D20*
%TO.C,RST*%
X232625000Y-101825000D03*
X232625000Y-96675000D03*
X234325000Y-101825000D03*
X234325000Y-96675000D03*
%TD*%
D21*
%TO.C,R3*%
X239575000Y-107682500D03*
X239575000Y-106817500D03*
%TD*%
D22*
%TO.C,U4*%
X238040000Y-114910000D03*
X238540000Y-114910000D03*
X239040000Y-114910000D03*
X239540000Y-114910000D03*
X239540000Y-112110000D03*
X239040000Y-112110000D03*
X238540000Y-112110000D03*
X238040000Y-112110000D03*
D23*
X238790000Y-113510000D03*
%TD*%
D24*
%TO.C,R10*%
X237900000Y-128227500D03*
X237900000Y-129422500D03*
%TD*%
D10*
%TO.C,C17*%
X238282500Y-126575000D03*
X239417500Y-126575000D03*
%TD*%
D16*
%TO.C,C24*%
X221837500Y-102825000D03*
X220112500Y-102825000D03*
%TD*%
D25*
%TO.C,ANT1*%
X221825000Y-93150000D03*
X218825000Y-93150000D03*
%TD*%
D26*
%TO.C,R12*%
X236527500Y-103450000D03*
X237722500Y-103450000D03*
%TD*%
D19*
%TO.C,C11*%
X227800000Y-119707500D03*
X227800000Y-120842500D03*
%TD*%
D10*
%TO.C,C16*%
X238290000Y-123375000D03*
X239425000Y-123375000D03*
%TD*%
D27*
%TO.C,R13*%
X227067500Y-105750000D03*
X227932500Y-105750000D03*
%TD*%
D11*
%TO.C,R2*%
X233950000Y-122180000D03*
X233950000Y-122870000D03*
%TD*%
D10*
%TO.C,C18*%
X238290000Y-124975000D03*
X239425000Y-124975000D03*
%TD*%
D28*
%TO.C,J2*%
X238150000Y-131850000D03*
X237650000Y-131850000D03*
X237150000Y-131850000D03*
X236650000Y-131850000D03*
X236150000Y-131850000D03*
X235650000Y-131850000D03*
X233150000Y-131850000D03*
X232650000Y-131850000D03*
X232150000Y-131850000D03*
X231650000Y-131850000D03*
X231150000Y-131850000D03*
X230650000Y-131850000D03*
X230150000Y-131850000D03*
X229650000Y-131850000D03*
X229150000Y-131850000D03*
X228650000Y-131850000D03*
X228150000Y-131850000D03*
X227650000Y-131850000D03*
X227150000Y-131850000D03*
X226650000Y-131850000D03*
X226150000Y-131850000D03*
X225650000Y-131850000D03*
X225150000Y-131850000D03*
X224650000Y-131850000D03*
X224150000Y-131850000D03*
X223650000Y-131850000D03*
X223150000Y-131850000D03*
X222650000Y-131850000D03*
X222150000Y-131850000D03*
X221650000Y-131850000D03*
X221150000Y-131850000D03*
X220650000Y-131850000D03*
X220150000Y-131850000D03*
X219650000Y-131850000D03*
%TD*%
D29*
%TO.C,R9*%
X234797500Y-103450000D03*
X233602500Y-103450000D03*
%TD*%
D18*
%TO.C,C10*%
X234967500Y-93525000D03*
X233832500Y-93525000D03*
%TD*%
D10*
%TO.C,C23*%
X236382500Y-93525000D03*
X237517500Y-93525000D03*
%TD*%
D20*
%TO.C,BOOT*%
X238700000Y-96675000D03*
X238700000Y-101825000D03*
X237000000Y-96675000D03*
X237000000Y-101825000D03*
%TD*%
M02*
