M48
; DRILL file {KiCad 8.0.1} date 2024-04-18T13:31:22+0200
; FORMAT={-:-/ absolute / inch / decimal}
; #@! TF.CreationDate,2024-04-18T13:31:22+02:00
; #@! TF.GenerationSoftware,Kicad,Pcbnew,8.0.1
; #@! TF.FileFunction,Plated,1,4,PTH
FMAT,2
INCH
; #@! TA.AperFunction,Plated,PTH,ViaDrill
T1C0.0118
; #@! TA.AperFunction,Plated,PTH,ComponentDrill
T2C0.0236
; #@! TA.AperFunction,Plated,PTH,ComponentDrill
T3C0.1378
%
G90
G05
T1
X8.5896Y-3.7392
X8.5965Y-4.4813
X8.597Y-4.6728
X8.597Y-4.7825
X8.6043Y-4.1981
X8.6102Y-3.8445
X8.6102Y-4.0482
X8.6417Y-4.4813
X8.6417Y-4.7825
X8.6567Y-5.1054
X8.6968Y-4.3977
X8.7161Y-5.1054
X8.7165Y-4.3366
X8.7748Y-5.1043
X8.7913Y-4.3061
X8.8022Y-4.1949
X8.812Y-4.2264
X8.8278Y-4.2815
X8.8343Y-5.1037
X8.8356Y-4.251
X8.8494Y-3.7333
X8.873Y-3.8228
X8.875Y-3.8543
X8.876Y-4.0758
X8.8819Y-4.2835
X8.8858Y-3.8012
X8.8858Y-4.0059
X8.8858Y-4.0344
X8.8943Y-5.1036
X8.8976Y-4.1634
X8.8976Y-4.7579
X8.8986Y-4.7126
X8.9114Y-4.3927
X8.9124Y-4.3484
X8.9301Y-4.0699
X8.9321Y-3.8543
X8.9494Y-4.211
X8.9524Y-5.1033
X8.9705Y-3.9646
X8.9819Y-4.211
X8.9967Y-4.3331
X9.001Y-3.8012
X9.011Y-5.1033
X9.0134Y-4.211
X9.0167Y-4.1063
X9.0246Y-4.0699
X9.0246Y-4.7687
X9.0291Y-4.3331
X9.0301Y-4.7228
X9.0443Y-3.8553
X9.0443Y-3.878
X9.0449Y-4.211
X9.0482Y-3.9311
X9.0679Y-3.8424
X9.0679Y-3.8661
X9.0679Y-3.8917
X9.0685Y-4.2415
X9.0705Y-5.1033
X9.0758Y-4.1358
X9.0896Y-3.7726
X9.0906Y-3.8553
X9.0906Y-3.8791
X9.094Y-4.6855
X9.1122Y-4.5305
X9.1142Y-4.1407
X9.126Y-4.2106
X9.127Y-4.6855
X9.1271Y-5.0117
X9.1276Y-4.9758
X9.1291Y-5.1023
X9.1492Y-4.3094
X9.1496Y-4.7726
X9.1506Y-4.8868
X9.1629Y-4.6895
X9.1634Y-4.0659
X9.1663Y-4.2106
X9.1732Y-4.1309
X9.1742Y-3.6821
X9.1817Y-4.3094
X9.188Y-4.6673
X9.1886Y-5.1017
X9.1978Y-4.2106
X9.2132Y-4.3094
X9.2274Y-4.5531
X9.2283Y-4.189
X9.2447Y-4.3094
X9.2545Y-4.4463
X9.2559Y-5.0569
X9.2559Y-5.0807
X9.2569Y-4.6614
X9.2693Y-4.5309
X9.2726Y-3.751
X9.2772Y-4.3094
X9.2795Y-3.6486
X9.2844Y-4.0728
X9.2978Y-4.4689
X9.3022Y-4.6614
X9.3096Y-4.3094
X9.3169Y-5.0835
X9.3169Y-5.1073
X9.3313Y-4.3429
X9.3338Y-4.4664
X9.3455Y-4.8504
X9.3455Y-4.8789
X9.3455Y-4.9075
X9.3455Y-4.936
X9.349Y-4.4138
X9.3809Y-3.9114
X9.3927Y-3.6811
X9.3957Y-4.0837
X9.3996Y-3.9281
X9.3996Y-3.9537
X9.4045Y-4.061
X9.4055Y-3.8652
X9.4124Y-4.6043
X9.4154Y-4.4843
X9.4262Y-4.8189
X9.4262Y-4.9528
X9.4262Y-5.0167
X9.4321Y-4.1693
X9.4321Y-4.2746
T3
X9.0118Y-3.5866
T2
G00X8.6333Y-3.7787
M15
G01X8.6648Y-3.7787
M16
G05
G00X8.6333Y-4.1189
M15
G01X8.6648Y-4.1189
M16
G05
G00X8.7919Y-3.7787
M15
G01X8.8352Y-3.7787
M16
G05
G00X8.7919Y-4.1189
M15
G01X8.8352Y-4.1189
M16
G05
M30
